SplineFontDB: 1.0
FontName: NimbusSansL-Regu
FullName: Nimbus Sans L Regular
FamilyName: Nimbus Sans L
Weight: Regular
Copyright: Copyright (URW)++,Copyright 1999 by (URW)++ Design & Development; Cyrillic glyphs added by Valek Filippov (C) 2001-2004
Version: 1.06
ItalicAngle: 0
UnderlinePosition: -151
UnderlineWidth: 50
Ascent: 800
Descent: 200
NeedsXUIDChange: 1
UniqueID: 4095404
FSType: 0
OS2WinAscent: 0
OS2WinAOffset: 1
OS2WinDescent: 0
OS2WinDOffset: 1
HheadAscent: 0
HheadAOffset: 1
HheadDescent: 0
HheadDOffset: 1
ScriptLang: 2
 1 latn 1 dflt 
 1 DFLT 1 dflt 
Encoding: adobestandard
UnicodeInterp: none
DisplaySize: -36
AntiAlias: 1
FitToEm: 1
WinInfo: 0 27 12
BeginPrivate: 7
BlueValues 31 [-23 0 524 544 729 749 686 709]
BlueScale 8 0.039625
StdHW 4 [78]
StdVW 4 [85]
StemSnapH 194 [69 74 78 83] 
systemdict /internaldict known
{1183615869 systemdict /internaldict get exec
/StemSnapLength 2 copy known { get 4 lt } { pop pop true } ifelse }
{ true } ifelse { pop [78 83] } if
StemSnapV 191 [78 85 94] 
systemdict /internaldict known
{1183615869 systemdict /internaldict get exec
/StemSnapLength 2 copy known { get 3 lt } { pop pop true } ifelse }
{ true } ifelse { pop [85 94] } if
ForceBold 5 false
EndPrivate
BeginChars: 767 661
StartChar: uniFFFD
Encoding: 0 65533 138
Width: 333
Flags: W
HStem: -205 45<118 138> -20 20G<98 168>
VStem: 192 73<-113 -104>
Fore
168 0 m 1
 98 0 l 1
 171 -41 192 -64 192 -106 c 0
 192 -141 167 -160 120 -160 c 0
 96 -160 75 -157 57 -150 c 1
 57 -195 l 1
 81 -200 114 -205 133 -205 c 0
 155 -205 180 -200 202 -192 c 0
 244 -176 265 -150 265 -111 c 0
 265 -63 229 -22 168 0 c 1
EndSplineSet
EndChar
StartChar: exclam
Encoding: 33 33 2
Width: 278
Flags: W
HStem: 0 21G<124 208> 709 20G<125 208>
VStem: 124 84<0 104 390 729>
Fore
208 729 m 1
 208 391 l 1
 186 168 l 1
 147 168 l 1
 125 391 l 1
 125 729 l 1
 208 729 l 1
208 104 m 1
 208 0 l 1
 124 0 l 1
 124 104 l 1
 208 104 l 1
EndSplineSet
EndChar
StartChar: quotedbl
Encoding: 34 34 3
Width: 355
Flags: W
HStem: 689 20G<52 145 212 305>
VStem: 52 93<597 709> 212 93<597 709>
Fore
52 709 m 1
 145 709 l 1
 145 598 l 1
 118 464 l 1
 79 464 l 1
 52 598 l 1
 52 709 l 1
212 709 m 1
 305 709 l 1
 305 598 l 1
 278 464 l 1
 239 464 l 1
 212 598 l 1
 212 709 l 1
EndSplineSet
EndChar
StartChar: numbersign
Encoding: 35 35 4
Width: 556
Flags: W
HStem: -20 21G<77 153 278 354> 191 68<14 115 204 316 405 510> 433 68<51 159 248 360 449 542> 433 264<208 360 408 542>
DStem: 115 191 192 191 77 -20 153 -20 159 433 236 433 128 259 204 259 208 697 284 697 172 501 248 501 316 191 393 191 278 -20 354 -20 360 433 436 433 329 259 405 259 408 697 485 697 373 501 449 501
Fore
485 697 m 1xd0
 449 501 l 1
 542 501 l 1
 542 433 l 1xe0
 436 433 l 1xd0
 405 259 l 1
 510 259 l 1
 510 191 l 1
 393 191 l 1
 354 -20 l 1
 278 -20 l 1
 316 191 l 1
 192 191 l 1
 153 -20 l 1
 77 -20 l 1
 115 191 l 1
 14 191 l 1
 14 259 l 1
 128 259 l 1
 159 433 l 1
 51 433 l 1
 51 501 l 1
 172 501 l 1xe0
 208 697 l 1
 284 697 l 1xd0
 248 501 l 1
 373 501 l 1xe0
 408 697 l 1
 485 697 l 1xd0
360 433 m 1
 236 433 l 1xd0
 204 259 l 1
 329 259 l 1
 360 433 l 1
EndSplineSet
EndChar
StartChar: dollar
Encoding: 36 36 5
Width: 556
Flags: W
VStem: 46 81<513 531> 243 59<-126 -23 46 309 405 646 715 770> 417 79<519 535.255> 436 82<177 197>
Fore
243 770 m 1xd0
 302 770 l 1
 302 716 l 1
 423 707 496 633 496 519 c 1
 417 519 l 1xe0
 416 592 369 643 302 646 c 1
 302 397 l 1
 394 369 407 364 433 349 c 0
 491 316 518 266 518 195 c 0
 518 117 484 48 426 12 c 0
 393 -8 356 -19 302 -23 c 1
 302 -126 l 1
 243 -126 l 1
 243 -23 l 1
 102 -14 26 69 33 208 c 1
 112 208 l 1
 118 143 122 126 137 103 c 1
 160 72 198 52 243 46 c 1
 243 318 l 1
 170 340 143 351 117 370 c 0
 70 404 46 453 46 516 c 0
 46 630 115 700 243 716 c 1
 243 770 l 1xd0
243 405 m 1
 243 645 l 1
 169 635 127 592 127 526 c 0
 127 465 164 426 243 405 c 1
302 309 m 1
 302 46 l 1
 345 51 370 60 394 83 c 0
 421 109 436 144 436 183 c 0xd0
 436 249 404 279 302 309 c 1
EndSplineSet
EndChar
StartChar: percent
Encoding: 37 37 6
Width: 889
Flags: W
HStem: -19 70<689 702> 252 70<688 702> 343 70<200 214> 615 70<199 214> 689 20G<609 675>
VStem: 29 69<514 525> 301 69<507 525> 518 69<152 157> 790 69<150 157>
DStem: 609 709 675 709 214 -20 280 -20
Fore
199 685 m 0
 295 685 370 609 370 512 c 0
 370 420 293 343 200 343 c 0
 106 343 29 420 29 514 c 0
 29 608 106 685 199 685 c 0
199 615 m 0
 144 615 98 570 98 514 c 0
 98 459 144 413 200 413 c 0
 255 413 301 458 301 513 c 0
 301 570 256 615 199 615 c 0
609 709 m 1
 675 709 l 1
 280 -20 l 1
 214 -20 l 1
 609 709 l 1
688 322 m 0
 784 322 859 246 859 150 c 0
 859 58 781 -19 689 -19 c 0
 595 -19 518 58 518 152 c 0
 518 245 595 322 688 322 c 0
688 252 m 0
 633 252 587 207 587 152 c 0
 587 96 633 51 689 51 c 0
 744 51 790 96 790 150 c 0
 790 207 745 252 688 252 c 0
EndSplineSet
EndChar
StartChar: ampersand
Encoding: 38 38 7
Width: 667
Flags: W
HStem: -23 78<255 277> 639 70<285 309>
VStem: 52 84<168 185> 133 82<536 557> 388 79<550 556> 493 80<310.979 333.938>
DStem: 258 337 329 378 418 137 462 215 466 78 515 151 528 0 637 0
Fore
493 334 m 1xdc
 573 334 l 1
 573 274 552 208 515 151 c 1
 637 0 l 1
 528 0 l 1
 466 78 l 1
 428 41 410 26 389 13 c 0
 353 -10 306 -23 257 -23 c 0
 134 -23 52 56 52 176 c 0xec
 52 267 90 317 214 389 c 1
 152 467 133 505 133 552 c 0
 133 640 209 709 304 709 c 0
 399 709 467 644 467 552 c 0
 467 480 433 437 329 378 c 1
 462 215 l 1
 482 250 494 298 493 334 c 1xdc
285 431 m 1
 363 480 388 509 388 554 c 0
 388 603 351 639 301 639 c 0
 249 639 215 605 215 553 c 0xdc
 215 518 224 501 285 431 c 1
418 137 m 1
 258 337 l 1
 167 279 136 239 136 183 c 0xec
 136 113 195 55 267 55 c 0
 319 55 362 78 418 137 c 1
EndSplineSet
EndChar
StartChar: quoteright
Encoding: 39 8217 8
Width: 221
Flags: W
HStem: 709 20G<64 157>
VStem: 64 93<625 729>
Fore
64 729 m 1
 157 729 l 1
 157 628 l 2
 157 548 124 502 64 497 c 1
 64 535 l 1
 99 540 113 567 112 625 c 1
 64 625 l 1
 64 729 l 1
EndSplineSet
KernsSLIF: 65 -72 1 0 225 -85 1 0 257 -72 1 0 256 -72 1 0 262 -72 1 0 44 -60 1 0 100 -20 1 0 111 -26 1 0 46 -60 1 0 114 -18 1 0 115 -18 1 0 116 -7 1 0 118 -2 1 0 119 2 1 0 121 -6 1 0
EndChar
StartChar: parenleft
Encoding: 40 40 9
Width: 333
Flags: W
HStem: 709 20G<236 291>
VStem: 73 81<259 285>
Fore
236 729 m 1
 291 729 l 1
 203 587 154 418 154 259 c 0
 154 99 203 -69 291 -212 c 1
 236 -212 l 1
 136 -81 73 101 73 259 c 0
 73 416 136 598 236 729 c 1
EndSplineSet
EndChar
StartChar: parenright
Encoding: 41 41 10
Width: 333
Flags: W
HStem: 709 20G<38 93>
VStem: 175 81<258 285>
Fore
93 -212 m 1
 38 -212 l 1
 126 -70 175 99 175 258 c 0
 175 418 126 586 38 729 c 1
 93 729 l 1
 193 598 256 416 256 258 c 0
 256 101 193 -81 93 -212 c 1
EndSplineSet
EndChar
StartChar: asterisk
Encoding: 42 42 11
Width: 389
Flags: W
HStem: 709 20G<160 223>
DStem: 148 566 192 534 79 477 129 441 160 729 223 729 165 617 218 617
Fore
160 729 m 1
 223 729 l 1
 218 617 l 1
 324 655 l 1
 343 596 l 1
 235 566 l 1
 305 477 l 1
 254 441 l 1
 192 534 l 1
 129 441 l 1
 79 477 l 1
 148 566 l 1
 40 596 l 1
 59 655 l 1
 165 617 l 1
 160 729 l 1
EndSplineSet
EndChar
StartChar: plus
Encoding: 43 43 12
Width: 584
Flags: W
HStem: -10 21G<257 327> 197 70<50 257 327 534>
VStem: 257 70<-10 197 267 474>
Fore
534 267 m 1
 534 197 l 1
 327 197 l 1
 327 -10 l 1
 257 -10 l 1
 257 197 l 1
 50 197 l 1
 50 267 l 1
 257 267 l 1
 257 474 l 1
 327 474 l 1
 327 267 l 1
 534 267 l 1
EndSplineSet
EndChar
StartChar: comma
Encoding: 44 44 13
Width: 278
Flags: W
HStem: -147 38<87 110.5> -20 20G<87 147>
VStem: 87 105<-1 104>
Fore
87 104 m 1
 192 104 l 1
 192 -16 l 2
 192 -102 157 -147 87 -147 c 1
 87 -109 l 1
 134 -107 147 -87 147 -18 c 2
 147 0 l 1
 87 0 l 1
 87 104 l 1
EndSplineSet
KernsSLIF: 49 -100 1 0 186 -41 1 0 39 -50 1 0
EndChar
StartChar: hyphen
Encoding: 45 45 14
Width: 333
Flags: W
HStem: 240 72<46 284>
Fore
284 312 m 1
 284 240 l 1
 46 240 l 1
 46 312 l 1
 284 312 l 1
EndSplineSet
KernsSLIF: 65 -7 1 0 225 -11 1 0 257 -7 1 0 256 -7 1 0 262 -7 1 0 84 -80 1 0 86 -46 1 0 87 -19 1 0 89 -92 1 0
EndChar
StartChar: period
Encoding: 46 46 15
Width: 278
Flags: W
HStem: 0 104<87 191>
VStem: 87 104<0 104>
Fore
191 104 m 1
 191 0 l 1
 87 0 l 1
 87 104 l 1
 191 104 l 1
EndSplineSet
KernsSLIF: 49 -101 1 0 186 -41 1 0 39 -51 1 0
EndChar
StartChar: slash
Encoding: 47 47 16
Width: 278
Flags: W
HStem: -20 21G<-8 47> 709 20G<229 284>
DStem: 229 729 284 729 -8 -20 47 -20
Fore
229 729 m 1
 284 729 l 1
 47 -20 l 1
 -8 -20 l 1
 229 729 l 1
EndSplineSet
EndChar
StartChar: zero
Encoding: 48 48 17
Width: 556
Flags: W
HStem: -23 73<266 284> 631 78<275 284>
VStem: 43 90<312 378> 417 90<296 378>
Fore
275 709 m 0
 342 709 401 681 438 631 c 0
 485 567 507 475 507 337 c 0
 507 104 425 -23 275 -23 c 0
 123 -23 43 104 43 343 c 0
 43 474 66 569 112 631 c 0
 149 680 209 709 275 709 c 0
275 631 m 0
 180 631 133 536 133 342 c 0
 133 148 180 50 273 50 c 0
 371 50 417 144 417 345 c 0
 417 535 370 631 275 631 c 0
EndSplineSet
KernsSLIF: 52 -2 1 0 49 -46 1 0 55 -39 1 0
EndChar
StartChar: one
Encoding: 49 49 18
Width: 556
Flags: W
HStem: 0 21G<259 347> 689 20G<289 347>
VStem: 259 88<0 709>
Fore
259 505 m 1
 102 505 l 1
 102 568 l 1
 238 585 258 600 289 709 c 1
 347 709 l 1
 347 0 l 1
 259 0 l 1
 259 505 l 1
EndSplineSet
KernsSLIF: 44 -74 1 0 56 -65 1 0 53 -67 1 0 52 -81 1 0 57 -65 1 0 49 -118 1 0 46 -74 1 0 55 -90 1 0 54 -62 1 0 51 -67 1 0 50 -69 1 0 48 -62 1 0
EndChar
StartChar: two
Encoding: 50 50 19
Width: 556
Flags: W
HStem: 0 87<133 506> 632 77<273 291>
VStem: 421 90<482.148 513>
Fore
506 87 m 1
 506 0 l 1
 34 0 l 1
 42 156 85 223 233 307 c 2
 325 359 l 2
 388 395 421 443 421 499 c 0
 421 575 361 632 281 632 c 0
 228 632 182 606 159 563 c 0
 147 540 141 511 138 463 c 1
 50 463 l 1
 52 535 63 579 88 617 c 0
 127 677 194 709 284 709 c 0
 351 709 403 691 445 653 c 0
 487 615 511 560 511 501 c 0
 511 414 460 341 361 287 c 2
 261 233 l 1
 174 182 142 145 133 87 c 1
 506 87 l 1
EndSplineSet
KernsSLIF: 52 -37 1 0 49 -36 1 0 55 -25 1 0
EndChar
StartChar: three
Encoding: 51 51 20
Width: 556
Flags: W
HStem: -23 78<255 289> 325 75<221 232> 632 77<255 289>
VStem: 47 88<480 502.292> 395 90<504 522> 416 90<184 218>
Fore
221 325 m 1xf4
 221 400 l 1
 283 401 314 405 338 415 c 0
 377 431 395 461 395 511 c 0
 395 586 348 632 270 632 c 0
 215 632 171 608 151 569 c 0
 140 547 136 523 135 480 c 1
 47 480 l 1
 50 631 126 709 269 709 c 0
 404 709 485 636 485 514 c 0xf8
 485 443 452 393 386 367 c 1
 471 338 506 288 506 198 c 0
 506 64 412 -23 266 -23 c 0
 169 -23 99 12 63 80 c 0
 46 112 36 149 32 206 c 1
 120 206 l 1
 126 103 173 55 269 55 c 0
 361 55 416 108 416 197 c 0
 416 282 366 326 269 326 c 2
 232 325 l 1
 221 325 l 1xf4
EndSplineSet
KernsSLIF: 52 -2 1 0 49 -49 1 0 55 -33 1 0
EndChar
StartChar: four
Encoding: 52 52 21
Width: 556
Flags: W
HStem: 0 21G<327 415> 170 79<105 327 415 520> 689 20G<350 415>
VStem: 327 88<0 170 249 709>
DStem: 350 709 327 559 28 263 105 249
Fore
327 170 m 1
 28 170 l 1
 28 263 l 1
 350 709 l 1
 415 709 l 1
 415 249 l 1
 520 249 l 1
 520 170 l 1
 415 170 l 1
 415 0 l 1
 327 0 l 1
 327 170 l 1
327 249 m 1
 327 559 l 1
 105 249 l 1
 327 249 l 1
EndSplineSet
KernsSLIF: 52 5 1 0 49 -84 1 0 55 -56 1 0
EndChar
StartChar: five
Encoding: 53 53 22
Width: 556
Flags: W
HStem: -23 78<258 286> 389 78<266 286> 622 87<110 476>
VStem: 423 90<216 233>
DStem: 110 709 181 622 57 323 153 424
Fore
476 709 m 1
 476 622 l 1
 181 622 l 1
 153 424 l 1
 194 454 234 467 284 467 c 0
 420 467 513 371 513 231 c 0
 513 81 413 -23 270 -23 c 0
 190 -23 118 8 78 62 c 1
 57 88 47 116 35 174 c 1
 123 174 l 1
 144 94 191 55 268 55 c 0
 364 55 423 117 423 219 c 0
 423 324 363 389 268 389 c 0
 213 389 179 372 138 323 c 1
 57 323 l 1
 110 709 l 1
 476 709 l 1
EndSplineSet
KernsSLIF: 52 1 1 0 49 -76 1 0 55 -26 1 0
EndChar
StartChar: six
Encoding: 54 54 23
Width: 556
Flags: W
HStem: -23 78<266 300> 363 78<279 300> 524 21G<410 498> 631 78<279 299>
VStem: 43 90<323 366> 423 90<200 218>
Fore
498 524 m 1
 410 524 l 1
 396 592 353 631 291 631 c 0
 190 631 134 535 133 362 c 1
 171 414 226 441 296 441 c 0
 423 441 513 348 513 216 c 0
 513 77 416 -23 281 -23 c 0
 203 -23 141 8 103 65 c 0
 61 128 43 204 43 323 c 0
 43 452 63 539 107 608 c 0
 149 671 219 709 297 709 c 0
 405 709 481 640 498 524 c 1
285 363 m 0
 198 363 138 302 138 214 c 0
 138 123 200 55 282 55 c 0
 363 55 423 120 423 209 c 0
 423 304 370 363 285 363 c 0
EndSplineSet
KernsSLIF: 52 1 1 0 49 -43 1 0 55 -30 1 0
EndChar
StartChar: seven
Encoding: 55 55 24
Width: 556
Flags: W
HStem: 0 21G<138 232> 622 87<46 429>
Fore
520 709 m 1
 520 635 l 1
 360 422 271 227 232 0 c 1
 138 0 l 1
 191 233 260 381 429 622 c 1
 46 622 l 1
 46 709 l 1
 520 709 l 1
EndSplineSet
KernsSLIF: 58 -77 1 0 44 -119 1 0 56 -28 1 0 53 -30 1 0 52 -93 1 0 49 -53 1 0 46 -119 1 0 55 -4 1 0 54 -40 1 0 51 -23 1 0 50 -28 1 0
EndChar
StartChar: eight
Encoding: 56 56 25
Width: 556
Flags: W
HStem: -23 78<260 294> 334 74<275 294> 631 78<275 294>
VStem: 37 90<184 202> 62 90<504 522> 398 90<504 522> 423 90<184 202>
Fore
391 373 m 1xec
 473 334 513 275 513 196 c 0
 513 67 415 -23 275 -23 c 0
 135 -23 37 67 37 197 c 0xf2
 37 275 77 334 158 373 c 1
 86 418 62 454 62 520 c 0
 62 631 150 709 275 709 c 0
 401 709 488 631 488 520 c 0
 488 453 464 417 391 373 c 1xec
275 631 m 0
 201 631 152 587 152 519 c 0
 152 452 201 408 275 408 c 0
 349 408 398 452 398 518 c 0xec
 398 587 350 631 275 631 c 0
275 334 m 0
 187 334 127 278 127 195 c 0
 127 112 187 55 273 55 c 0
 363 55 423 111 423 195 c 0xf2
 423 278 363 334 275 334 c 0
EndSplineSet
KernsSLIF: 52 1 1 0 49 -48 1 0 55 -33 1 0
EndChar
StartChar: nine
Encoding: 57 57 26
Width: 556
Flags: W
HStem: -23 78<245 272> 245 78<252 279> 632 77<252 279>
VStem: 38 90<456 490> 418 91<321 363>
Fore
53 162 m 1
 141 162 l 1
 155 94 198 55 260 55 c 0
 361 55 417 151 418 324 c 1
 372 269 323 245 256 245 c 0
 128 245 38 338 38 470 c 0
 38 609 135 709 270 709 c 0
 348 709 410 678 449 621 c 0
 491 558 509 482 509 363 c 0
 509 234 489 147 444 78 c 0
 403 15 332 -23 254 -23 c 0
 146 -23 70 46 53 162 c 1
269 632 m 0
 188 632 128 567 128 477 c 0
 128 382 181 323 266 323 c 0
 352 323 413 385 413 472 c 0
 413 564 351 632 269 632 c 0
EndSplineSet
KernsSLIF: 52 -3 1 0 49 -43 1 0 55 -37 1 0
EndChar
StartChar: colon
Encoding: 58 58 27
Width: 278
Flags: W
HStem: 0 104<110 214> 420 104<110 214>
VStem: 110 104<0 104 420 524>
Fore
214 104 m 1
 214 0 l 1
 110 0 l 1
 110 104 l 1
 214 104 l 1
214 524 m 1
 214 420 l 1
 110 420 l 1
 110 524 l 1
 214 524 l 1
EndSplineSet
EndChar
StartChar: semicolon
Encoding: 59 59 28
Width: 278
Flags: W
HStem: -147 38<110 133.5> -20 20G<110 170> 420 104<111 215>
VStem: 110 105<-1 104 420 524>
Fore
215 524 m 1
 215 420 l 1
 111 420 l 1
 111 524 l 1
 215 524 l 1
110 104 m 1
 215 104 l 1
 215 -16 l 2
 215 -102 180 -147 110 -147 c 1
 110 -109 l 1
 157 -107 170 -87 170 -18 c 2
 170 0 l 1
 110 0 l 1
 110 104 l 1
EndSplineSet
EndChar
StartChar: less
Encoding: 60 60 29
Width: 584
Flags: W
DStem: 45 198 140 234 534 -9 534 70 534 474 534 395 45 267 140 234
Fore
45 198 m 1
 45 267 l 1
 534 474 l 1
 534 395 l 1
 140 234 l 1
 534 70 l 1
 534 -9 l 1
 45 198 l 1
EndSplineSet
EndChar
StartChar: equal
Encoding: 61 61 30
Width: 584
Flags: W
HStem: 111 70<50 534> 283 70<50 534>
Fore
534 353 m 1
 534 283 l 1
 50 283 l 1
 50 353 l 1
 534 353 l 1
534 181 m 1
 534 111 l 1
 50 111 l 1
 50 181 l 1
 534 181 l 1
EndSplineSet
EndChar
StartChar: greater
Encoding: 62 62 31
Width: 584
Flags: W
DStem: 50 395 50 474 444 231 539 267 444 231 539 198 50 70 50 -9
Fore
539 267 m 1
 539 198 l 1
 50 -9 l 1
 50 70 l 1
 444 231 l 1
 50 395 l 1
 50 474 l 1
 539 267 l 1
EndSplineSet
EndChar
StartChar: question
Encoding: 63 63 32
Width: 556
Flags: W
HStem: 0 21G<240 330> 663 78<284 302>
VStem: 77 85<507 536.731> 240 90<0 104 199 256> 419 90<549 561>
Fore
330 199 m 1
 240 199 l 1
 240 254 l 2
 240 290 247 313 268 341 c 0
 285 364 285 364 344 417 c 0
 397 464 419 503 419 549 c 0
 419 617 368 663 291 663 c 0
 238 663 198 642 179 605 c 0
 167 581 162 553 162 507 c 1
 77 507 l 1
 77 661 152 741 296 741 c 0
 426 741 509 666 509 549 c 0
 509 483 484 438 409 370 c 0
 341 307 330 290 330 246 c 2
 330 199 l 1
330 104 m 1
 330 0 l 1
 240 0 l 1
 240 104 l 1
 330 104 l 1
EndSplineSet
EndChar
StartChar: at
Encoding: 64 64 33
Width: 1015
Flags: W
HStem: -142 77<465 523> 57 70<679 698> 458 64<510 527> 664 77<495 531>
VStem: 34 85<256 275> 264 90<226.847 260> 864 87<353 371>
Fore
665 501 m 1
 748 501 l 1
 658 221 l 1
 650 198 646 180 646 171 c 0
 646 147 669 127 696 127 c 0
 781 127 864 240 864 357 c 0
 864 524 703 664 512 664 c 0
 301 664 119 483 119 273 c 0
 119 82 282 -65 494 -65 c 0
 548 -65 605 -56 687 -33 c 1
 715 -100 l 1
 643 -127 563 -142 489 -142 c 0
 236 -142 34 36 34 258 c 0
 34 389 94 523 192 612 c 0
 280 692 406 741 525 741 c 0
 758 741 951 572 951 369 c 0
 951 291 920 210 865 146 c 0
 814 86 753 57 679 57 c 0
 616 57 578 83 569 134 c 1
 523 84 480 62 427 62 c 0
 334 62 264 141 264 245 c 0
 264 390 387 522 521 522 c 0
 576 522 618 492 643 435 c 1
 665 501 l 1
515 458 m 0
 431 458 354 356 354 244 c 0
 354 178 398 126 453 126 c 0
 490 126 527 150 555 191 c 0
 580 228 607 312 609 362 c 0
 612 416 571 458 515 458 c 0
EndSplineSet
EndChar
StartChar: A
Encoding: 65 65 34
Width: 667
Flags: W
HStem: 0 21G<17 116 549 653> 219 78<216 474> 709 20G<277 397>
DStem: 277 729 336 629 17 0 216 297 277 729 193 219 17 0 116 0 474 219 397 729 549 0 653 0
Fore
474 219 m 1
 193 219 l 1
 116 0 l 1
 17 0 l 1
 277 729 l 1
 397 729 l 1
 653 0 l 1
 549 0 l 1
 474 219 l 1
448 297 m 1
 336 629 l 1
 216 297 l 1
 448 297 l 1
EndSplineSet
KernsSLIF: 67 -36 0 0 264 -36 0 0 71 -35 0 0 79 -33 0 0 286 -33 0 0 81 -32 0 0 84 -93 0 0 85 -37 0 0 299 -37 0 0 301 -37 0 0 298 -37 0 0 300 -37 0 0 86 -75 0 0 87 -51 0 0 89 -99 0 0 97 -4 0 0 98 4 0 0 99 -11 0 0 332 -10 0 0 44 5 0 0 100 -8 0 0 101 -16 0 0 103 -10 0 0 171 -44 0 0 172 -40 0 0 45 -3 0 0 111 -13 0 0 46 5 0 0 113 -8 0 0 186 -56 0 0 39 -65 0 0 116 -16 0 0 117 -12 0 0 118 -31 0 0 119 -21 0 0 121 -34 0 0
EndChar
StartChar: B
Encoding: 66 66 35
Width: 667
Flags: W
HStem: 0 82<172 416> 333 82<172 399> 647 82<79 377>
VStem: 79 93<0 333 0 647> 498 93<527 546> 530 93<191 225>
Fore
79 0 m 1xf4
 79 729 l 1
 375 729 l 2
 445 729 495 713 533 678 c 0
 571 644 591 597 591 544 c 0xf8
 591 470 556 416 490 385 c 1
 583 349 623 296 623 208 c 0
 623 151 603 99 567 61 c 0
 528 19 477 0 408 0 c 2
 79 0 l 1xf4
172 415 m 1
 352 415 l 2
 404 415 433 422 458 441 c 0
 484 461 498 492 498 531 c 0
 498 571 484 601 458 621 c 0
 433 640 404 647 352 647 c 2
 172 647 l 1
 172 415 l 1
172 82 m 1
 399 82 l 2
 444 82 474 93 496 117 c 0
 518 140 530 172 530 207 c 0xf4
 530 243 518 275 496 298 c 0
 474 322 444 333 399 333 c 2
 172 333 l 1
 172 82 l 1
EndSplineSet
KernsSLIF: 65 -21 0 0 225 -21 0 0 257 -21 0 0 259 -21 0 0 256 -21 0 0 262 -21 0 0 261 -21 0 0 79 -7 0 0 234 -5 0 0 287 -7 0 0 289 -7 0 0 286 -7 0 0 288 -7 0 0 233 -1 0 0 86 -41 0 0 87 -25 0 0 89 -44 0 0
EndChar
StartChar: C
Encoding: 67 67 36
Width: 722
Flags: W
HStem: -23 82<367 401> 659 82<351 385>
VStem: 48 93<328 378>
Fore
662 503 m 1
 567 503 l 1
 556 557 541 588 514 613 c 0
 484 641 429 659 370 659 c 0
 229 659 141 544 141 357 c 0
 141 175 233 59 378 59 c 0
 456 59 518 93 548 153 c 0
 563 182 573 216 581 266 c 1
 677 266 l 1
 655 73 555 -23 377 -23 c 0
 282 -23 210 4 154 62 c 0
 85 133 48 236 48 356 c 0
 48 474 84 578 150 650 c 0
 204 710 283 741 381 741 c 0
 541 741 633 663 662 503 c 1
EndSplineSet
KernsSLIF: 65 -32 0 0 225 -33 0 0 257 -32 0 0 256 -32 0 0 262 -32 0 0 72 -12 0 0 75 -10 0 0 79 -8 0 0 287 -8 0 0 286 -8 0 0
EndChar
StartChar: D
Encoding: 68 68 37
Width: 722
Flags: W
HStem: 0 82<182 378> 647 82<89 378>
VStem: 89 93<0 647> 574 93<335 385>
Fore
89 0 m 1
 89 729 l 1
 370 729 l 2
 555 729 667 591 667 365 c 0
 667 138 554 0 370 0 c 2
 89 0 l 1
182 82 m 1
 354 82 l 2
 498 82 574 180 574 364 c 0
 574 550 498 647 354 647 c 2
 182 647 l 1
 182 82 l 1
EndSplineSet
KernsSLIF: 65 -42 0 0 257 -42 0 0 259 -42 0 0 256 -42 0 0 258 -42 0 0 262 -42 0 0 261 -42 0 0 74 -5 0 0 84 -45 0 0 86 -51 0 0 87 -29 0 0 88 -53 0 0 89 -63 0 0
EndChar
StartChar: E
Encoding: 69 69 38
Width: 667
Flags: W
HStem: 0 82<183 613> 332 82<183 580> 647 82<90 595>
VStem: 90 93<0 332 0 647>
Fore
183 332 m 1
 183 82 l 1
 613 82 l 1
 613 0 l 1
 90 0 l 1
 90 729 l 1
 595 729 l 1
 595 647 l 1
 183 647 l 1
 183 414 l 1
 580 414 l 1
 580 332 l 1
 183 332 l 1
EndSplineSet
EndChar
StartChar: F
Encoding: 70 70 39
Width: 611
Flags: W
HStem: 0 21G<90 183> 332 82<183 531> 647 82<90 579>
VStem: 90 93<0 332 0 647>
Fore
183 332 m 1
 183 0 l 1
 90 0 l 1
 90 729 l 1
 579 729 l 1
 579 647 l 1
 183 647 l 1
 183 414 l 1
 531 414 l 1
 531 332 l 1
 183 332 l 1
EndSplineSet
KernsSLIF: 65 -69 0 0 257 -69 0 0 259 -69 0 0 256 -69 0 0 258 -69 0 0 262 -69 0 0 261 -69 0 0 74 -51 0 0 79 -22 0 0 286 -22 0 0 97 -33 0 0 323 -33 0 0 322 -33 0 0 241 -29 0 0 328 -33 0 0 44 -108 0 0 101 -24 0 0 335 -24 0 0 45 -14 0 0 105 -10 0 0 106 -12 0 0 111 -21 0 0 352 -21 0 0 351 -21 0 0 250 -23 0 0 249 -21 0 0 46 -108 0 0 114 -35 0 0 117 -33 0 0
EndChar
StartChar: G
Encoding: 71 71 40
Width: 778
Flags: W
HStem: -23 82<376 405> 303 82<405 627> 659 82<376 413>
VStem: 44 93<344 387> 627 82<264 385>
Fore
709 385 m 1
 709 -4 l 1
 650 -4 l 1
 627 93 l 1
 556 14 477 -23 378 -23 c 0
 181 -23 44 133 44 357 c 0
 44 488 92 601 176 671 c 0
 233 718 305 741 394 741 c 0
 561 741 673 656 699 508 c 1
 604 508 l 1
 584 602 504 659 393 659 c 0
 239 659 137 541 137 362 c 0
 137 272 166 185 214 133 c 0
 257 86 324 59 398 59 c 0
 531 59 627 153 627 283 c 2
 627 303 l 1
 405 303 l 1
 405 385 l 1
 709 385 l 1
EndSplineSet
KernsSLIF: 65 -6 0 0 225 -3 0 0 257 -6 0 0 259 -6 0 0 256 -6 0 0 258 -6 0 0 262 -6 0 0 261 -6 0 0 84 -44 0 0 86 -50 0 0 87 -28 0 0 89 -62 0 0
EndChar
StartChar: H
Encoding: 72 72 41
Width: 722
Flags: W
HStem: 332 82<176 551> 709 20G<83 176 551 644>
VStem: 83 94<0 332 0 729> 551 93<0 729>
Fore
551 332 m 1
 177 332 l 1
 177 0 l 1
 83 0 l 1
 83 729 l 1
 176 729 l 1
 176 414 l 1
 551 414 l 1
 551 729 l 1
 644 729 l 1
 644 0 l 1
 551 0 l 1
 551 332 l 1
EndSplineSet
EndChar
StartChar: I
Encoding: 73 73 42
Width: 278
Flags: W
HStem: 0 21G<100 194> 709 20G<100 194>
VStem: 100 94<0 729>
Fore
194 729 m 1
 194 0 l 1
 100 0 l 1
 100 729 l 1
 194 729 l 1
EndSplineSet
EndChar
StartChar: J
Encoding: 74 74 43
Width: 500
Flags: W
HStem: -23 78<208 226> 709 20G<333 426>
VStem: 17 95<168 234> 333 93<180 729>
Fore
333 729 m 1
 426 729 l 1
 426 182 l 2
 426 56 347 -23 220 -23 c 0
 95 -23 17 52 17 170 c 2
 17 234 l 1
 112 234 l 1
 112 187 l 2
 112 102 151 55 221 55 c 0
 258 55 292 72 310 100 c 0
 327 125 333 158 333 216 c 2
 333 729 l 1
EndSplineSet
KernsSLIF: 65 -32 0 0 225 -31 0 0 256 -32 0 0 262 -32 0 0
EndChar
StartChar: K
Encoding: 75 75 44
Width: 667
Flags: W
HStem: 0 21G<79 172 548 658> 709 20G<79 172 535 655>
VStem: 79 93<0 255 0 729>
DStem: 291 374 358 432 548 0 658 0 535 729 655 729 172 360 358 432 535 729 291 374 172 360 172 255
Fore
172 255 m 1
 172 0 l 1
 79 0 l 1
 79 729 l 1
 172 729 l 1
 172 360 l 1
 535 729 l 1
 655 729 l 1
 358 432 l 1
 658 0 l 1
 548 0 l 1
 291 374 l 1
 172 255 l 1
EndSplineSet
KernsSLIF: 67 -51 0 0 71 -51 0 0 79 -48 0 0 234 -45 0 0 287 -48 0 0 286 -48 0 0 83 -38 0 0 84 20 0 0 97 -11 0 0 322 -11 0 0 241 -7 0 0 328 -11 0 0 101 -32 0 0 45 -47 0 0 111 -29 0 0 352 -29 0 0 351 -29 0 0 117 -19 0 0 362 -19 0 0 121 -62 0 0
EndChar
StartChar: L
Encoding: 76 76 45
Width: 556
Flags: W
HStem: 0 82<172 533> 709 20G<80 173>
VStem: 80 93<0 729>
Fore
173 729 m 1
 173 82 l 1
 533 82 l 1
 533 0 l 1
 80 0 l 1
 80 729 l 1
 173 729 l 1
EndSplineSet
KernsSLIF: 65 17 0 0 225 20 0 0 257 17 0 0 256 17 0 0 262 17 0 0 67 -41 0 0 264 -37 0 0 71 -42 0 0 79 -41 0 0 287 -41 0 0 289 -41 0 0 286 -41 0 0 288 -41 0 0 290 -41 0 0 83 -19 0 0 84 -105 0 0 85 -35 0 0 298 -35 0 0 86 -105 0 0 87 -68 0 0 89 -121 0 0 45 -125 0 0 186 -141 0 0 39 -149 0 0 117 -7 0 0 362 -7 0 0 121 -56 0 0
EndChar
StartChar: M
Encoding: 77 77 46
Width: 833
Flags: W
HStem: 0 21G<75 163 370 468 673 761> 709 20G<75 204 632 761>
VStem: 75 88<0 611> 673 88<0 729>
DStem: 163 611 204 729 370 0 420 94 632 729 673 611 420 94 468 0
Fore
468 0 m 1
 370 0 l 1
 163 611 l 1
 163 0 l 1
 75 0 l 1
 75 729 l 1
 204 729 l 1
 420 94 l 1
 632 729 l 1
 761 729 l 1
 761 0 l 1
 673 0 l 1
 673 611 l 1
 468 0 l 1
EndSplineSet
EndChar
StartChar: N
Encoding: 78 78 47
Width: 722
Flags: W
HStem: 0 21G<76 164 541 646> 709 20G<76 177 558 646>
VStem: 76 88<0 591> 558 88<133 729>
DStem: 164 591 177 729 541 0 558 133
Fore
646 729 m 1
 646 0 l 1
 541 0 l 1
 164 591 l 1
 164 0 l 1
 76 0 l 1
 76 729 l 1
 177 729 l 1
 558 133 l 1
 558 729 l 1
 646 729 l 1
EndSplineSet
KernsSLIF: 65 -9 0 0 225 -6 0 0 257 -9 0 0 256 -9 0 0 262 -9 0 0 67 -3 0 0 264 -3 0 0 71 -2 0 0 97 -5 0 0 323 -5 0 0 322 -5 0 0 241 -2 0 0 328 -5 0 0 44 -7 0 0 111 2 0 0 352 2 0 0 351 2 0 0 249 4 0 0 46 -7 0 0
EndChar
StartChar: O
Encoding: 79 79 48
Width: 778
Flags: W
HStem: -23 82<390 407> 659 82<389 407>
VStem: 38 93<359 378> 649 93<328 378>
Fore
389 741 m 0
 603 741 742 588 742 353 c 0
 742 234 695 121 616 54 c 0
 557 4 478 -23 390 -23 c 0
 180 -23 38 131 38 359 c 0
 38 587 180 741 389 741 c 0
389 659 m 0
 235 659 131 539 131 359 c 0
 131 179 235 59 390 59 c 0
 544 59 649 179 649 355 c 0
 649 539 547 659 389 659 c 0
EndSplineSet
KernsSLIF: 65 -35 0 0 225 -39 0 0 257 -35 0 0 256 -35 0 0 262 -35 0 0 84 -42 0 0 86 -45 0 0 87 -23 0 0 88 -46 0 0 89 -59 0 0
EndChar
StartChar: P
Encoding: 80 80 49
Width: 667
Flags: W
HStem: 0 21G<91 184> 309 82<184 413> 647 82<91 396>
VStem: 91 93<0 309 0 647> 520 97<511 529>
Fore
184 309 m 1
 184 0 l 1
 91 0 l 1
 91 729 l 1
 392 729 l 2
 536 729 617 652 617 515 c 0
 617 448 598 401 554 361 c 0
 515 326 470 309 413 309 c 2
 184 309 l 1
184 391 m 1
 378 391 l 2
 467 391 520 439 520 519 c 0
 520 599 467 647 378 647 c 2
 184 647 l 1
 184 391 l 1
EndSplineSet
KernsSLIF: 65 -78 0 0 225 -86 0 0 257 -78 0 0 256 -78 0 0 262 -78 0 0 74 -78 0 0 97 -28 0 0 323 -28 0 0 322 -28 0 0 241 -24 0 0 328 -28 0 0 44 -135 0 0 101 -31 0 0 335 -31 0 0 45 -40 0 0 111 -27 0 0 352 -27 0 0 351 -27 0 0 250 -28 0 0 249 -27 0 0 46 -135 0 0
EndChar
StartChar: Q
Encoding: 81 81 50
Width: 778
Flags: W
HStem: -23 82<373 407> 659 82<390 407>
VStem: 38 93<359 390> 649 93<340 390>
DStem: 435 149 481 205 509 87 570 132 581 28 639 76 686 -59 733 -1
Fore
733 -1 m 1
 686 -59 l 1
 581 28 l 1
 522 -7 462 -23 390 -23 c 0
 180 -23 38 131 38 359 c 0
 38 587 180 741 390 741 c 0
 600 741 742 587 742 361 c 0
 742 246 708 152 639 76 c 1
 733 -1 l 1
481 205 m 1
 570 132 l 1
 624 193 649 266 649 360 c 0
 649 539 545 659 390 659 c 0
 235 659 131 539 131 359 c 0
 131 179 234 59 389 59 c 0
 433 59 466 67 509 87 c 1
 435 149 l 1
 481 205 l 1
EndSplineSet
EndChar
StartChar: R
Encoding: 82 82 51
Width: 722
Flags: W
HStem: 0 21G<93 186 566 679> 314 82<186 432> 647 82<93 432>
VStem: 93 93<0 314 0 647> 545 90<119 193> 554 97<511 536>
Fore
186 314 m 1xf8
 186 0 l 1
 93 0 l 1
 93 729 l 1
 429 729 l 2
 572 729 651 660 651 534 c 0xf4
 651 451 618 400 536 360 c 1
 615 326 634 290 635 170 c 0
 637 73 644 47 679 23 c 1
 679 0 l 1
 566 0 l 1
 553 30 545 74 545 119 c 1
 546 184 l 1
 546 274 509 314 426 314 c 2
 186 314 l 1xf8
186 396 m 1
 411 396 l 2
 510 396 554 435 554 521 c 0
 554 565 541 598 516 619 c 0
 493 639 463 647 411 647 c 2
 186 647 l 1
 186 396 l 1
EndSplineSet
KernsSLIF: 67 -16 0 0 264 -16 0 0 71 -15 0 0 79 -13 0 0 234 -11 0 0 287 -13 0 0 286 -13 0 0 84 -23 0 0 85 -17 0 0 298 -17 0 0 86 -39 0 0 87 -27 0 0 89 -43 0 0 97 -15 0 0 323 -15 0 0 322 -15 0 0 241 -12 0 0 328 -15 0 0 101 -12 0 0 335 -12 0 0 45 -2 0 0 111 -9 0 0 352 -9 0 0 351 -9 0 0 250 -11 0 0 117 -9 0 0 363 -9 0 0 362 -9 0 0 121 -8 0 0
EndChar
StartChar: S
Encoding: 83 83 52
Width: 667
Flags: W
HStem: -23 82<319 369> 663 78<303 353>
VStem: 70 93<525 542> 508 88<515 533.073> 528 93<184 202>
Fore
596 515 m 1xf0
 508 515 l 1xf0
 507 610 442 663 326 663 c 0
 228 663 163 614 163 540 c 0
 163 484 195 456 283 432 c 2
 466 383 l 2
 565 356 621 290 621 200 c 0
 621 137 590 72 541 33 c 0
 494 -3 423 -23 336 -23 c 0
 225 -23 141 13 91 81 c 0
 62 121 49 165 48 232 c 1
 136 232 l 1
 135 187 147 152 174 120 c 0
 209 78 263 59 342 59 c 0
 401 59 447 70 476 90 c 0
 507 112 528 152 528 191 c 0xe8
 528 248 486 285 394 309 c 2
 213 357 l 2
 117 382 70 438 70 527 c 0
 70 659 169 741 329 741 c 0
 497 741 595 658 596 515 c 1xf0
EndSplineSet
KernsSLIF: 65 -22 0 0 225 -22 0 0 257 -22 0 0 256 -22 0 0 262 -22 0 0 84 -28 0 0 86 -42 0 0 87 -28 0 0 89 -48 0 0 116 -3 0 0
EndChar
StartChar: T
Encoding: 84 84 53
Width: 611
Flags: W
HStem: 0 21G<261 354> 647 82<21 261 21 593>
VStem: 261 93<0 647>
Fore
354 647 m 5
 354 0 l 1
 261 0 l 1
 261 647 l 5
 21 647 l 5
 21 729 l 5
 593 729 l 5
 593 647 l 5
 354 647 l 5
EndSplineSet
KernsSLIF: 65 -95 0 0 225 -97 0 0 257 -95 0 0 259 -95 0 0 256 -95 0 0 258 -95 0 0 262 -95 0 0 261 -95 0 0 67 -44 0 0 71 -45 0 0 74 -100 0 0 79 -42 0 0 234 -35 0 0 287 -42 0 0 289 -42 0 0 286 -42 0 0 288 -42 0 0 233 -41 0 0 290 -42 0 0 83 -24 0 0 86 12 0 0 87 16 0 0 89 20 0 0 97 -100 0 0 241 -97 0 0 99 -90 0 0 58 -133 0 0 44 -100 0 0 101 -95 0 0 103 -89 0 0 171 -121 0 0 172 -117 0 0 45 -77 0 0 105 -3 0 0 106 -5 0 0 111 -92 0 0 249 -87 0 0 46 -100 0 0 114 -92 0 0 115 -92 0 0 59 -129 0 0 117 -91 0 0 118 -95 0 0 119 -93 0 0 121 -100 0 0
EndChar
StartChar: U
Encoding: 85 85 54
Width: 722
Flags: W
HStem: -23 82<364 390> 709 20G<85 178 552 645>
VStem: 85 93<217 729> 552 93<217 729>
Fore
552 729 m 1
 645 729 l 1
 645 217 l 2
 645 71 535 -23 364 -23 c 0
 191 -23 85 69 85 217 c 2
 85 729 l 1
 178 729 l 1
 178 217 l 2
 178 162 195 125 231 97 c 1
 266 72 310 59 364 59 c 0
 481 59 552 119 552 217 c 2
 552 729 l 1
EndSplineSet
KernsSLIF: 65 -36 0 0 225 -39 0 0 257 -36 0 0 259 -36 0 0 256 -36 0 0 262 -36 0 0 261 -36 0 0 44 -27 0 0 109 -4 0 0 110 -4 0 0 112 3 0 0 46 -25 0 0 114 -4 0 0
EndChar
StartChar: V
Encoding: 86 86 55
Width: 667
Flags: W
HStem: 0 21G<292 392> 709 20G<30 130 546 645>
DStem: 30 729 130 729 292 0 344 112
Fore
392 0 m 1
 292 0 l 1
 30 729 l 1
 130 729 l 1
 344 112 l 1
 546 729 l 1
 645 729 l 1
 392 0 l 1
EndSplineSet
KernsSLIF: 65 -71 0 0 225 -78 0 0 257 -71 0 0 259 -71 0 0 256 -71 0 0 258 -71 0 0 262 -71 0 0 261 -71 0 0 67 -43 0 0 71 -42 0 0 79 -40 0 0 287 -40 0 0 289 -40 0 0 286 -40 0 0 288 -40 0 0 233 -33 0 0 290 -40 0 0 83 -35 0 0 84 15 0 0 97 -59 0 0 241 -55 0 0 58 -66 0 0 44 -89 0 0 101 -57 0 0 103 -50 0 0 171 -83 0 0 172 -80 0 0 45 -38 0 0 105 -5 0 0 111 -54 0 0 249 -50 0 0 46 -89 0 0 114 -42 0 0 59 -66 0 0 117 -41 0 0 121 -20 0 0
EndChar
StartChar: W
Encoding: 87 87 56
Width: 944
Flags: W
HStem: 0 21G<209 311 642 744> 709 20G<22 126 425 525 825 929>
DStem: 425 729 474 599 263 137 311 0 474 599 525 729 642 0 691 137
Fore
744 0 m 1
 642 0 l 1
 474 599 l 1
 311 0 l 1
 209 0 l 1
 22 729 l 1
 126 729 l 1
 263 137 l 1
 425 729 l 1
 525 729 l 1
 691 137 l 1
 825 729 l 1
 929 729 l 1
 744 0 l 1
EndSplineSet
KernsSLIF: 65 -50 0 0 225 -56 0 0 257 -50 0 0 259 -50 0 0 256 -50 0 0 258 -50 0 0 262 -50 0 0 261 -50 0 0 67 -23 0 0 71 -22 0 0 79 -20 0 0 287 -20 0 0 289 -20 0 0 286 -20 0 0 288 -20 0 0 233 -13 0 0 290 -20 0 0 83 -24 0 0 84 19 0 0 97 -38 0 0 241 -34 0 0 58 -52 0 0 44 -56 0 0 101 -32 0 0 103 -25 0 0 171 -58 0 0 172 -54 0 0 45 -13 0 0 105 -1 0 0 111 -29 0 0 249 -25 0 0 46 -56 0 0 114 -28 0 0 59 -53 0 0 117 -28 0 0 121 -6 0 0
EndChar
StartChar: X
Encoding: 88 88 57
Width: 667
Flags: W
HStem: 0 21G<22 135 534 649> 709 20G<38 151 526 637>
DStem: 38 729 151 729 280 374 338 443 280 374 335 304 22 0 135 0
Fore
391 374 m 1
 649 0 l 1
 534 0 l 1
 335 304 l 1
 135 0 l 1
 22 0 l 1
 280 374 l 1
 38 729 l 1
 151 729 l 1
 338 443 l 1
 526 729 l 1
 637 729 l 1
 391 374 l 1
EndSplineSet
KernsSLIF: 67 -48 0 0 79 -45 0 0 286 -45 0 0 81 -44 0 0 97 -15 0 0 101 -36 0 0 45 -51 0 0 111 -33 0 0 117 -24 0 0 121 -61 0 0
EndChar
StartChar: Y
Encoding: 89 89 58
Width: 667
Flags: W
HStem: 0 21G<294 387> 709 20G<13 128 550 661>
VStem: 294 93<0 286>
Fore
387 286 m 1
 387 0 l 1
 294 0 l 1
 294 286 l 1
 13 729 l 1
 128 729 l 1
 342 374 l 1
 550 729 l 1
 661 729 l 1
 387 286 l 1
EndSplineSet
KernsSLIF: 65 -96 0 0 225 -103 0 0 257 -96 0 0 259 -96 0 0 256 -96 0 0 258 -96 0 0 262 -96 0 0 261 -96 0 0 67 -58 0 0 71 -58 0 0 79 -56 0 0 287 -56 0 0 289 -56 0 0 286 -56 0 0 288 -56 0 0 233 -54 0 0 290 -56 0 0 83 -41 0 0 84 23 0 0 97 -88 0 0 241 -84 0 0 58 -87 0 0 44 -111 0 0 101 -89 0 0 103 -83 0 0 171 -123 0 0 172 -119 0 0 45 -84 0 0 105 3 0 0 111 -86 0 0 249 -82 0 0 112 -54 0 0 46 -111 0 0 59 -88 0 0 117 -63 0 0 118 -36 0 0
EndChar
StartChar: Z
Encoding: 90 90 59
Width: 611
Flags: W
HStem: 0 82<145 583> 647 82<56 466>
DStem: 466 647 581 645 28 82 145 82
Fore
581 729 m 1
 581 645 l 1
 145 82 l 1
 583 82 l 1
 583 0 l 1
 28 0 l 1
 28 82 l 1
 466 647 l 1
 56 647 l 1
 56 729 l 1
 581 729 l 1
EndSplineSet
KernsSLIF: 118 -33 0 0 121 -38 0 0
EndChar
StartChar: bracketleft
Encoding: 91 91 60
Width: 278
Flags: W
HStem: -212 72<147 250> 657 72<64 250>
VStem: 64 83<-212 657>
Fore
250 729 m 1
 250 657 l 1
 147 657 l 1
 147 -140 l 1
 250 -140 l 1
 250 -212 l 1
 64 -212 l 1
 64 729 l 1
 250 729 l 1
EndSplineSet
EndChar
StartChar: backslash
Encoding: 92 92 61
Width: 278
Flags: W
HStem: -20 21G<229 284> 709 20G<-8 47>
DStem: -8 729 47 729 229 -20 284 -20
Fore
47 729 m 1
 284 -20 l 1
 229 -20 l 1
 -8 729 l 1
 47 729 l 1
EndSplineSet
EndChar
StartChar: bracketright
Encoding: 93 93 62
Width: 278
Flags: W
HStem: -212 72<23 209> 657 72<23 126>
VStem: 126 83<-140 729>
Fore
23 -212 m 1
 23 -140 l 1
 126 -140 l 1
 126 657 l 1
 23 657 l 1
 23 729 l 1
 209 729 l 1
 209 -212 l 1
 23 -212 l 1
EndSplineSet
EndChar
StartChar: asciicircum
Encoding: 94 94 63
Width: 469
Flags: W
HStem: 689 20G<197 270>
DStem: 197 709 234 629 44 329 113 329 234 629 270 709 356 329 425 329
Fore
197 709 m 1
 270 709 l 1
 425 329 l 1
 356 329 l 1
 234 629 l 1
 113 329 l 1
 44 329 l 1
 197 709 l 1
EndSplineSet
EndChar
StartChar: underscore
Encoding: 95 95 64
Width: 556
Flags: W
HStem: -176 50<-22 578>
Fore
578 -126 m 1
 578 -176 l 1
 -22 -176 l 1
 -22 -126 l 1
 578 -126 l 1
EndSplineSet
EndChar
StartChar: quoteleft
Encoding: 96 8216 65
Width: 222
Flags: W
VStem: 65 93<477 581>
Fore
158 477 m 1
 65 477 l 1
 65 578 l 2
 65 657 98 704 158 709 c 1
 158 671 l 1
 124 666 109 638 110 581 c 1
 158 581 l 1
 158 477 l 1
EndSplineSet
KernsSLIF: 65 -67 1 0 225 -79 1 0 257 -67 1 0 256 -67 1 0 262 -67 1 0 84 -5 1 0 87 12 1 0 89 -9 1 0
EndChar
StartChar: a
Encoding: 97 97 66
Width: 556
Flags: W
HStem: -23 70<478 517> 462 77<249 283>
VStem: 42 87<120 138> 389 83<152 396>
Fore
535 49 m 1
 535 -14 l 1
 508 -21 495 -23 478 -23 c 0
 424 -23 398 1 392 54 c 1
 333 0 280 -23 214 -23 c 0
 108 -23 42 37 42 132 c 0
 42 200 73 247 134 272 c 0
 166 285 184 289 302 304 c 0
 368 312 389 327 389 362 c 2
 389 384 l 2
 389 434 347 462 272 462 c 0
 194 462 156 433 149 369 c 1
 65 369 l 1
 67 421 77 451 101 478 c 0
 136 517 199 539 275 539 c 0
 404 539 472 489 472 396 c 2
 472 88 l 2
 472 62 488 47 517 47 c 0
 522 47 526 47 535 49 c 1
389 165 m 2
 389 259 l 1
 361 246 343 242 255 230 c 0
 166 217 129 189 129 134 c 0
 129 81 167 50 232 50 c 0
 281 50 322 66 356 97 c 0
 381 120 389 137 389 165 c 2
EndSplineSet
KernsSLIF: 106 -4 0 0 39 -23 0 0 118 -21 0 0 119 -13 0 0 121 -26 0 0
EndChar
StartChar: b
Encoding: 98 98 67
Width: 556
Flags: W
HStem: -23 78<277 301> 461 78<277 301> 709 20G<54 137>
VStem: 54 83<0 282 0 729> 436 87<232 282>
Fore
54 729 m 1
 137 729 l 1
 137 453 l 1
 176 512 227 539 299 539 c 0
 437 539 523 434 523 264 c 0
 523 90 433 -23 295 -23 c 0
 222 -23 169 6 129 67 c 1
 129 0 l 1
 54 0 l 1
 54 729 l 1
283 461 m 0
 195 461 137 381 137 258 c 0
 137 135 195 55 283 55 c 0
 374 55 436 136 436 255 c 0
 436 380 376 461 283 461 c 0
EndSplineSet
KernsSLIF: 118 -11 0 0 119 -3 0 0 121 -15 0 0
EndChar
StartChar: c
Encoding: 99 99 68
Width: 500
Flags: W
HStem: -23 77<254 272> 462 77<254 272>
VStem: 31 87<253 282>
Fore
471 348 m 1
 387 348 l 1
 377 421 333 462 263 462 c 0
 172 462 118 384 118 253 c 0
 118 129 173 54 265 54 c 0
 336 54 379 96 393 180 c 1
 477 180 l 1
 467 52 388 -23 263 -23 c 0
 121 -23 31 84 31 253 c 0
 31 427 123 539 264 539 c 0
 337 539 400 510 436 461 c 0
 456 432 467 399 471 348 c 1
EndSplineSet
KernsSLIF: 104 1 0 0 107 7 0 0
EndChar
StartChar: d
Encoding: 100 100 69
Width: 556
Flags: W
HStem: -23 78<249 268> 461 78<249 269> 709 20G<412 495>
VStem: 26 87<232 282> 421 74<0 729>
Fore
495 729 m 1
 495 0 l 1
 421 0 l 1
 421 69 l 1
 376 4 326 -23 254 -23 c 0
 113 -23 26 86 26 263 c 0
 26 430 115 539 251 539 c 0
 321 539 377 511 412 458 c 1
 412 729 l 1
 495 729 l 1
265 461 m 0
 174 461 113 380 113 258 c 0
 113 136 174 55 266 55 c 0
 354 55 412 135 412 256 c 0
 412 381 355 461 265 461 c 0
EndSplineSet
EndChar
StartChar: e
Encoding: 101 101 70
Width: 556
Flags: W
HStem: -23 77<263 297> 234 68<129 513> 462 77<263 297>
VStem: 40 87<232 255> 424 89<234 308>
Fore
513 234 m 1
 127 234 l 1
 128 182 135 152 155 122 c 0
 183 78 228 54 281 54 c 0
 348 54 395 90 418 159 c 1
 502 159 l 1
 481 45 398 -23 278 -23 c 0
 131 -23 40 83 40 255 c 0
 40 427 134 539 280 539 c 0
 378 539 458 487 492 401 c 0
 507 362 513 314 513 234 c 1
129 302 m 1
 423 302 l 1
 424 304 424 306 424 308 c 0
 424 394 361 462 279 462 c 0
 195 462 136 399 129 302 c 1
EndSplineSet
KernsSLIF: 39 -18 0 0 116 -10 0 0 118 -15 0 0 119 -9 0 0 120 -27 0 0 121 -19 0 0
EndChar
StartChar: f
Encoding: 102 102 71
Width: 278
Flags: W
HStem: 0 21G<88 171> 456 68<18 88 171 258> 659 73<211 231>
VStem: 88 83<0 456 524 615>
Fore
258 524 m 1
 258 456 l 1
 171 456 l 1
 171 0 l 1
 88 0 l 1
 88 456 l 1
 18 456 l 1
 18 524 l 1
 88 524 l 1
 88 613 l 2
 88 688 134 732 211 732 c 0
 228 732 239 731 258 727 c 1
 258 658 l 1
 239 659 236 659 229 659 c 0
 191 659 171 641 171 606 c 2
 171 524 l 1
 258 524 l 1
EndSplineSet
KernsSLIF: 97 -9 0 0 323 -9 0 0 322 -9 0 0 241 -5 0 0 328 -9 0 0 101 -15 0 0 335 -15 0 0 102 22 0 0 105 -2 0 0 106 -4 0 0 108 -3 0 0 111 -10 0 0 352 -10 0 0 351 -10 0 0 250 -12 0 0 249 -9 0 0 116 24 0 0
EndChar
StartChar: g
Encoding: 103 103 72
Width: 556
Flags: W
HStem: -218 70<243 270> -23 77<244 264> 462 77<243 270>
VStem: 29 87<229 279> 404 85<37 86 229 524>
Fore
412 524 m 1
 489 524 l 1
 489 86 l 2
 489 -37 474 -103 434 -151 c 0
 400 -193 333 -218 255 -218 c 0
 132 -218 55 -159 46 -60 c 1
 131 -60 l 1
 136 -91 144 -105 163 -120 c 0
 186 -138 220 -148 258 -148 c 0
 309 -148 352 -130 374 -99 c 0
 395 -70 404 -27 404 44 c 2
 404 71 l 1
 357 5 311 -23 245 -23 c 0
 190 -23 134 3 95 47 c 0
 52 97 29 167 29 253 c 0
 29 423 119 539 252 539 c 0
 319 539 370 510 412 448 c 1
 412 524 l 1
261 462 m 0
 172 462 116 384 116 258 c 0
 116 131 171 54 262 54 c 0
 350 54 404 130 404 255 c 0
 404 386 351 462 261 462 c 0
EndSplineSet
KernsSLIF: 97 -5 0 0 322 -5 0 0 241 -1 0 0 328 -5 0 0 352 3 0 0 351 3 0 0
EndChar
StartChar: h
Encoding: 104 104 73
Width: 556
Flags: W
HStem: 0 21G<70 153 403 486> 466 73<295 321> 709 20G<70 153>
VStem: 70 83<0 305 0 729> 403 83<0 396>
Fore
70 729 m 1
 153 729 l 1
 153 452 l 1
 202 516 247 539 321 539 c 0
 423 539 486 484 486 396 c 2
 486 0 l 1
 403 0 l 1
 403 363 l 2
 403 400 393 425 369 442 c 0
 349 457 322 466 295 466 c 0
 209 466 153 396 153 289 c 2
 153 0 l 1
 70 0 l 1
 70 729 l 1
EndSplineSet
KernsSLIF: 39 -15 0 0 121 -18 0 0
EndChar
StartChar: i
Encoding: 105 105 74
Width: 222
Flags: W
HStem: 0 21G<67 150> 504 20G<67 150> 709 20G<66 150>
VStem: 67 83<0 524 624 729>
Fore
150 524 m 1
 150 0 l 1
 67 0 l 1
 67 524 l 1
 150 524 l 1
150 729 m 1
 150 624 l 1
 66 624 l 1
 66 729 l 1
 150 729 l 1
EndSplineSet
KernsSLIF: 84 -7 0 0 106 -3 0 0
EndChar
StartChar: j
Encoding: 106 106 75
Width: 222
Flags: W
HStem: -218 73<-3 15> 504 20G<70 153> 709 20G<70 153>
VStem: 70 83<-91 524 624 729>
Fore
70 524 m 1
 153 524 l 1
 153 -109 l 2
 153 -180 104 -218 10 -218 c 0
 -3 -218 -8 -217 -18 -215 c 1
 -18 -144 l 1
 -1 -145 -1 -145 2 -145 c 0
 53 -145 70 -128 70 -76 c 2
 70 524 l 1
153 729 m 1
 153 624 l 1
 70 624 l 1
 70 729 l 1
 153 729 l 1
EndSplineSet
EndChar
StartChar: k
Encoding: 107 107 76
Width: 500
Flags: W
HStem: 0 21G<58 141 399 502> 504 20G<363 470> 709 20G<58 141>
VStem: 58 83<0 204 0 729>
DStem: 222 284 288 343 399 0 502 0 363 524 470 524 141 302 288 343
Fore
141 729 m 1
 141 302 l 1
 363 524 l 1
 470 524 l 1
 288 343 l 1
 502 0 l 1
 399 0 l 1
 222 284 l 1
 141 204 l 1
 141 0 l 1
 58 0 l 1
 58 729 l 1
 141 729 l 1
EndSplineSet
KernsSLIF: 97 -2 0 0 323 -2 0 0 322 -2 0 0 241 2 0 0 328 -2 0 0 101 -21 0 0 335 -21 0 0 103 -16 0 0 45 -41 0 0 111 -19 0 0 352 -19 0 0 351 -19 0 0 115 -3 0 0 117 -11 0 0 362 -6 0 0
EndChar
StartChar: l
Encoding: 108 108 77
Width: 222
Flags: W
HStem: 0 21G<68 152> 709 20G<68 152>
VStem: 68 84<0 729>
Fore
152 729 m 1
 152 0 l 1
 68 0 l 1
 68 729 l 1
 152 729 l 1
EndSplineSet
KernsSLIF: 121 -5 0 0
EndChar
StartChar: m
Encoding: 109 109 78
Width: 833
Flags: W
HStem: 0 21G<70 154 374 458 678 762> 466 73<277 308 581 610>
VStem: 70 77<0 524> 70 84<0 337> 374 84<0 337> 678 84<0 393>
Fore
70 524 m 1xec
 147 524 l 1
 147 450 l 1xec
 192 513 238 539 308 539 c 0
 376 539 418 515 449 459 c 1
 498 518 540 539 610 539 c 0
 708 539 762 487 762 393 c 2
 762 0 l 1
 678 0 l 1
 678 361 l 2
 678 427 642 466 581 466 c 0
 513 466 458 405 458 329 c 2
 458 0 l 1
 374 0 l 1
 374 361 l 2
 374 428 339 466 277 466 c 0
 209 466 154 405 154 329 c 2
 154 0 l 1xdc
 70 0 l 1
 70 524 l 1xec
EndSplineSet
KernsSLIF: 112 5 0 0 118 -13 0 0 119 -7 0 0 121 -18 0 0
EndChar
StartChar: n
Encoding: 110 110 79
Width: 556
Flags: W
HStem: 0 21G<70 154 404 487> 466 73<296 321>
VStem: 70 77<0 524> 70 84<0 305> 404 83<0 396>
Fore
70 524 m 1xe8
 147 524 l 1
 147 436 l 1xe8
 193 509 243 539 321 539 c 0
 422 539 487 483 487 396 c 2
 487 0 l 1
 404 0 l 1
 404 363 l 2
 404 426 362 466 296 466 c 0
 210 466 154 396 154 289 c 2
 154 0 l 1xd8
 70 0 l 1
 70 524 l 1xe8
EndSplineSet
KernsSLIF: 84 -96 0 0 112 5 0 0 39 -14 0 0 118 -13 0 0 119 -7 0 0 121 -18 0 0
EndChar
StartChar: o
Encoding: 111 111 80
Width: 556
Flags: W
HStem: -23 77<273 277> 462 77<259 277>
VStem: 36 87<258 282> 423 87<232 282>
Fore
272 539 m 0
 423 539 510 435 510 254 c 0
 510 82 420 -23 273 -23 c 0
 124 -23 36 82 36 258 c 0
 36 434 125 539 272 539 c 0
273 462 m 0
 180 462 123 384 123 258 c 0
 123 131 180 54 273 54 c 0
 365 54 423 132 423 255 c 0
 423 385 367 462 273 462 c 0
EndSplineSet
KernsSLIF: 84 -99 0 0 39 -21 0 0 116 -10 0 0 118 -18 0 0 119 -10 0 0 120 -27 0 0 121 -22 0 0
EndChar
StartChar: p
Encoding: 112 112 81
Width: 556
Flags: W
HStem: -23 78<277 301> 461 78<277 302>
VStem: 54 77<-218 524> 54 84<-218 55 -218 279> 436 87<229 279>
Fore
54 -218 m 1xe8
 54 524 l 1
 131 524 l 1
 131 445 l 1xe8
 170 507 227 539 298 539 c 0
 437 539 523 429 523 253 c 0
 523 86 434 -23 299 -23 c 0
 231 -23 182 1 138 55 c 1
 138 -218 l 1xd8
 54 -218 l 1xe8
284 461 m 0
 196 461 138 381 138 258 c 0xd8
 138 135 196 55 284 55 c 0
 375 55 436 136 436 255 c 0
 436 380 376 461 284 461 c 0
EndSplineSet
KernsSLIF: 116 -4 0 0 121 -16 0 0
EndChar
StartChar: q
Encoding: 113 113 82
Width: 556
Flags: W
HStem: -23 78<248 268> 461 78<248 268>
VStem: 26 87<245 279> 412 83<-218 524>
Fore
495 -218 m 1
 412 -218 l 1
 412 60 l 1
 373 3 323 -23 250 -23 c 0
 112 -23 26 82 26 252 c 0
 26 426 116 539 254 539 c 0
 323 539 382 509 421 454 c 1
 421 524 l 1
 495 524 l 1
 495 -218 l 1
266 461 m 0
 174 461 113 379 113 258 c 0
 113 136 174 55 266 55 c 0
 354 55 412 135 412 255 c 0
 412 381 355 461 266 461 c 0
EndSplineSet
KernsSLIF: 99 8 0 0 117 4 0 0
EndChar
StartChar: r
Encoding: 114 114 83
Width: 333
Flags: W
HStem: 0 21G<69 153> 451 88<289 321>
VStem: 69 77<0 524> 69 84<0 289>
Fore
69 524 m 1xe0
 146 524 l 1
 146 429 l 1xe0
 194 507 235 539 289 539 c 0
 300 539 307 538 321 536 c 1
 321 451 l 1
 263 450 238 444 212 425 c 0
 172 396 153 347 153 272 c 2
 153 0 l 1xd0
 69 0 l 1
 69 524 l 1xe0
EndSplineSet
KernsSLIF: 97 -5 0 0 323 -5 0 0 325 -5 0 0 322 -5 0 0 241 -1 0 0 324 -5 0 0 328 -5 0 0 99 -6 0 0 332 -9 0 0 58 -22 0 0 44 -69 0 0 100 -1 0 0 101 -11 0 0 335 -11 0 0 337 -11 0 0 336 -11 0 0 102 26 0 0 103 -4 0 0 45 -47 0 0 105 1 0 0 107 6 0 0 108 1 0 0 111 -6 0 0 352 -6 0 0 354 -6 0 0 351 -6 0 0 250 -8 0 0 353 -6 0 0 249 -6 0 0 112 8 0 0 46 -69 0 0 113 -3 0 0 39 1 0 0 115 4 0 0 59 -22 0 0 116 28 0 0 117 2 0 0 118 29 0 0 119 31 0 0 120 20 0 0 121 24 0 0 122 9 0 0
EndChar
StartChar: s
Encoding: 115 115 84
Width: 500
Flags: W
HStem: -23 77<229 259> 462 77<225 259>
VStem: 47 87<376 394> 372 87<134 145>
Fore
438 378 m 1
 350 378 l 1
 348 433 312 462 245 462 c 0
 177 462 134 431 134 383 c 0
 134 346 163 324 231 308 c 2
 311 289 l 2
 415 264 459 221 459 143 c 0
 459 42 375 -23 243 -23 c 0
 106 -23 38 35 34 156 c 1
 122 156 l 1
 127 119 133 104 146 89 c 0
 167 67 205 54 250 54 c 0
 323 54 372 87 372 136 c 0
 372 174 349 195 291 209 c 2
 213 228 l 2
 89 258 47 297 47 379 c 0
 47 476 126 539 248 539 c 0
 369 539 437 481 438 378 c 1
EndSplineSet
KernsSLIF: 39 -22 0 0 116 -3 0 0
EndChar
StartChar: t
Encoding: 116 116 85
Width: 278
Flags: W
HStem: -23 73<186 214> 456 68<14 85 168 254>
VStem: 85 83<60 456 524 668>
Fore
254 524 m 1
 254 456 l 1
 168 456 l 1
 168 97 l 2
 168 60 178 50 214 50 c 0
 230 50 243 51 254 54 c 1
 254 -16 l 1
 226 -21 206 -23 186 -23 c 0
 121 -23 85 7 85 60 c 2
 85 456 l 1
 14 456 l 1
 14 524 l 1
 85 524 l 1
 85 668 l 1
 168 668 l 1
 168 524 l 1
 254 524 l 1
EndSplineSet
KernsSLIF: 83 -8 0 0 97 -1 0 0 323 -1 0 0 322 -1 0 0 241 2 0 0 328 -1 0 0 58 -28 0 0 101 -14 0 0 335 -14 0 0 104 -3 0 0 111 -12 0 0 352 -12 0 0 351 -12 0 0 39 -1 0 0 59 -28 0 0
EndChar
StartChar: u
Encoding: 117 117 86
Width: 556
Flags: W
HStem: -23 73<232 256> 504 20G<65 148 399 482>
VStem: 65 83<120 524> 407 75<0 524>
Fore
482 0 m 1
 407 0 l 1
 407 73 l 1
 358 4 309 -23 232 -23 c 0
 130 -23 65 33 65 120 c 2
 65 524 l 1
 148 524 l 1
 148 153 l 2
 148 90 190 50 256 50 c 0
 343 50 399 120 399 227 c 2
 399 524 l 1
 482 524 l 1
 482 0 l 1
EndSplineSet
KernsSLIF: 39 -8 0 0
EndChar
StartChar: v
Encoding: 118 118 87
Width: 500
Flags: W
HStem: 0 21G<194 285> 504 20G<10 104 392 486>
DStem: 10 524 104 524 194 0 244 99
Fore
285 0 m 1
 194 0 l 1
 10 524 l 1
 104 524 l 1
 244 99 l 1
 392 524 l 1
 486 524 l 1
 285 0 l 1
EndSplineSet
KernsSLIF: 97 -18 0 0 323 -18 0 0 325 -18 0 0 322 -18 0 0 241 -14 0 0 324 -18 0 0 328 -18 0 0 327 -18 0 0 99 -16 0 0 58 -23 0 0 44 -69 0 0 101 -21 0 0 335 -21 0 0 337 -21 0 0 336 -21 0 0 103 -14 0 0 45 -12 0 0 111 -17 0 0 352 -17 0 0 351 -17 0 0 353 -17 0 0 249 -17 0 0 46 -69 0 0 115 -9 0 0 59 -23 0 0
EndChar
StartChar: w
Encoding: 119 119 88
Width: 722
Flags: W
HStem: 0 21G<158 252 459 554> 504 20G<6 98 305 407 614 708>
DStem: 305 524 353 411 205 116 252 0 353 411 407 524 459 0 510 116
Fore
554 0 m 1
 459 0 l 1
 353 411 l 1
 252 0 l 1
 158 0 l 1
 6 524 l 1
 98 524 l 1
 205 116 l 1
 305 524 l 1
 407 524 l 1
 510 116 l 1
 614 524 l 1
 708 524 l 1
 554 0 l 1
EndSplineSet
KernsSLIF: 97 -15 0 0 323 -15 0 0 325 -15 0 0 322 -15 0 0 241 -11 0 0 324 -15 0 0 328 -15 0 0 327 -15 0 0 99 -7 0 0 58 -23 0 0 44 -50 0 0 101 -12 0 0 335 -12 0 0 337 -12 0 0 336 -12 0 0 103 -6 0 0 45 -1 0 0 111 -9 0 0 352 -9 0 0 351 -9 0 0 353 -9 0 0 249 -6 0 0 46 -50 0 0 115 -5 0 0 59 -23 0 0
EndChar
StartChar: x
Encoding: 120 120 89
Width: 500
Flags: W
HStem: 0 21G<17 112 376 473> 504 20G<27 122 374 468>
DStem: 27 524 122 524 202 267 248 334 202 267 245 201 17 0 112 0 245 201 292 271 376 0 473 0 374 524 468 524 248 334 292 271
Fore
292 271 m 1
 473 0 l 1
 376 0 l 1
 245 201 l 1
 112 0 l 1
 17 0 l 1
 202 267 l 1
 27 524 l 1
 122 524 l 1
 248 334 l 1
 374 524 l 1
 468 524 l 1
 292 271 l 1
EndSplineSet
KernsSLIF: 97 -17 0 0 99 -23 0 0 101 -28 0 0 335 -28 0 0 111 -25 0 0 113 -20 0 0
EndChar
StartChar: y
Encoding: 121 121 90
Width: 500
Flags: W
HStem: -218 82<96 112> 504 20G<20 109 388 478>
DStem: 20 524 109 524 197 -2 243 116 388 524 478 524 243 116 245 -110
Fore
388 524 m 1
 478 524 l 1
 245 -110 l 1
 229 -152 214 -174 188 -193 c 0
 166 -209 137 -218 110 -218 c 0
 88 -218 71 -214 54 -205 c 1
 54 -130 l 1
 72 -134 86 -136 98 -136 c 0
 133 -136 152 -122 165 -85 c 1
 197 -2 l 1
 20 524 l 1
 109 524 l 1
 243 116 l 1
 388 524 l 1
EndSplineSet
KernsSLIF: 97 -22 0 0 323 -22 0 0 325 -22 0 0 322 -22 0 0 241 -18 0 0 324 -22 0 0 328 -22 0 0 327 -22 0 0 99 -19 0 0 58 -27 0 0 44 -70 0 0 101 -24 0 0 335 -24 0 0 337 -24 0 0 336 -24 0 0 103 -17 0 0 45 -14 0 0 108 -4 0 0 111 -20 0 0 352 -20 0 0 351 -20 0 0 353 -20 0 0 249 -19 0 0 46 -70 0 0 115 -12 0 0 59 -27 0 0
EndChar
StartChar: z
Encoding: 122 122 91
Width: 500
Flags: W
HStem: 0 73<132 457> 451 73<52 344>
DStem: 344 451 443 450 31 75 132 73
Fore
443 524 m 1
 443 450 l 1
 132 73 l 1
 457 73 l 1
 457 0 l 1
 31 0 l 1
 31 75 l 1
 344 451 l 1
 52 451 l 1
 52 524 l 1
 443 524 l 1
EndSplineSet
EndChar
StartChar: braceleft
Encoding: 123 123 92
Width: 334
Flags: W
HStem: -212 65<250 276> 664 65<230 276>
VStem: 121 77<-101 109 411 605>
Fore
276 729 m 1
 276 664 l 1
 261 664 l 2
 212 664 198 649 198 597 c 2
 198 416 l 2
 198 324 177 283 116 259 c 1
 172 233 198 184 198 101 c 2
 198 -80 l 2
 198 -132 212 -147 261 -147 c 2
 276 -147 l 1
 276 -212 l 1
 230 -212 l 2
 161 -212 121 -164 121 -81 c 2
 121 86 l 2
 121 178 102 212 43 224 c 1
 43 293 l 1
 102 305 121 338 121 431 c 2
 121 598 l 2
 121 681 161 729 230 729 c 2
 276 729 l 1
EndSplineSet
EndChar
StartChar: bar
Encoding: 124 124 93
Width: 260
Flags: W
HStem: 709 20G<100 160>
VStem: 100 60<-212 729>
Fore
100 729 m 1
 160 729 l 1
 160 -212 l 1
 100 -212 l 1
 100 729 l 1
EndSplineSet
EndChar
StartChar: braceright
Encoding: 125 125 94
Width: 334
Flags: W
HStem: 709 20G<29 76>
VStem: 109 77<-101 109 411 605>
Fore
29 -212 m 1
 29 -147 l 1
 45 -147 l 2
 95 -147 109 -132 109 -80 c 2
 109 101 l 2
 109 184 135 233 191 258 c 1
 135 284 109 334 109 416 c 2
 109 597 l 2
 109 649 95 664 45 664 c 2
 29 664 l 1
 29 729 l 1
 76 729 l 2
 146 729 186 681 186 598 c 2
 186 431 l 2
 186 339 205 305 262 293 c 1
 262 224 l 1
 205 212 186 178 186 86 c 2
 186 -81 l 2
 186 -164 146 -212 76 -212 c 2
 29 -212 l 1
EndSplineSet
EndChar
StartChar: asciitilde
Encoding: 126 126 95
Width: 584
Flags: W
HStem: 268 68<394 412> 371 67<179 188>
VStem: 455 53<393 411>
DStem: 224 357 237 422 322 294 354 353
Fore
455 411 m 1
 508 411 l 1
 508 395 l 2
 508 318 467 268 403 268 c 0
 378 268 348 278 322 294 c 2
 224 357 l 2
 214 363 191 371 181 371 c 0
 163 371 146 358 136 336 c 0
 132 326 130 316 128 293 c 1
 75 293 l 1
 80 387 118 438 183 438 c 0
 201 438 220 432 237 422 c 2
 354 353 l 2
 374 341 390 336 404 336 c 0
 441 336 456 358 455 411 c 1
EndSplineSet
EndChar
StartChar: exclamdown
Encoding: 161 161 96
Width: 333
Flags: W
HStem: 504 20G<121 205>
VStem: 122 83<-205 133 420 524>
Fore
122 -205 m 1
 122 133 l 1
 144 356 l 1
 183 356 l 1
 205 133 l 1
 205 -205 l 1
 122 -205 l 1
121 420 m 1
 121 524 l 1
 205 524 l 1
 205 420 l 1
 121 420 l 1
EndSplineSet
EndChar
StartChar: cent
Encoding: 162 162 97
Width: 556
Flags: W
VStem: 52 87<253 281> 270 42<-120 -23 55 462 538 628>
Fore
312 462 m 1
 312 53 l 1
 376 60 414 101 426 180 c 1
 510 180 l 1
 503 60 428 -17 312 -23 c 1
 312 -120 l 1
 270 -120 l 1
 270 -22 l 1
 135 -10 52 94 52 253 c 0
 52 416 135 524 270 538 c 1
 270 628 l 1
 312 628 l 1
 312 539 l 1
 429 531 498 462 504 348 c 1
 420 348 l 1
 413 415 373 457 312 462 c 1
270 55 m 1
 270 461 l 1
 184 445 139 374 139 253 c 0
 139 140 187 68 270 55 c 1
EndSplineSet
EndChar
StartChar: sterling
Encoding: 163 163 98
Width: 556
Flags: W
HStem: -23 92<402 424> 23 77<192 249> 321 55<26 136 206 366> 651 78<281 299>
VStem: 54 93<504 525> 160 85<241 252>
Fore
366 376 m 1x7c
 366 321 l 1
 230 321 l 1
 240 292 245 269 245 250 c 0
 245 198 217 152 127 61 c 1
 166 87 206 100 249 100 c 0x7c
 275 100 293 97 331 85 c 0
 372 73 392 69 410 69 c 0
 436 69 464 79 493 99 c 1
 535 33 l 1
 495 -6 456 -23 404 -23 c 0xbc
 367 -23 341 -17 258 12 c 0
 237 19 213 23 192 23 c 0
 157 23 121 11 83 -14 c 1
 35 52 l 1
 127 131 160 182 160 243 c 0
 160 268 151 296 136 321 c 1
 26 321 l 1
 26 376 l 1
 107 376 l 1
 61 452 54 471 54 515 c 0
 54 636 158 729 292 729 c 0
 377 729 448 692 484 630 c 0
 503 597 511 558 512 497 c 1
 424 497 l 1
 421 600 375 651 288 651 c 0
 203 651 147 600 147 523 c 0
 147 486 153 469 190 404 c 1
 193 401 200 388 206 376 c 1
 366 376 l 1x7c
EndSplineSet
EndChar
StartChar: fraction
Encoding: 164 8260 99
Width: 167
Flags: W
HStem: -20 21G<-174 -116> 689 20G<278 336>
DStem: 278 709 336 709 -174 -20 -116 -20
Fore
278 709 m 1
 336 709 l 1
 -116 -20 l 1
 -174 -20 l 1
 278 709 l 1
EndSplineSet
EndChar
StartChar: yen
Encoding: 165 165 100
Width: 556
Flags: W
HStem: 0 21G<237 325> 175 51<65 237 325 495> 303 51<65 237 344 495> 689 20G<11 96 460 545>
VStem: 237 88<0 175 226 303>
DStem: 11 709 96 709 216 354 281 387 460 709 545 709 281 387 344 354
Fore
495 354 m 1
 495 303 l 1
 325 303 l 1
 325 226 l 1
 495 226 l 1
 495 175 l 1
 325 175 l 1
 325 0 l 1
 237 0 l 1
 237 175 l 1
 65 175 l 1
 65 226 l 1
 237 226 l 1
 237 303 l 1
 65 303 l 1
 65 354 l 1
 216 354 l 1
 11 709 l 1
 96 709 l 1
 281 387 l 1
 460 709 l 1
 545 709 l 1
 344 354 l 1
 495 354 l 1
EndSplineSet
EndChar
StartChar: florin
Encoding: 166 402 101
Width: 556
Flags: W
HStem: -212 78<64 81> 392 70<140 253 354 467> 658 80<458 469>
DStem: 253 392 341 392 175 -21 266 -5
Fore
467 462 m 1
 467 392 l 1
 341 392 l 1
 266 -5 l 1
 253 -75 233 -122 201 -155 c 0
 167 -190 116 -212 66 -212 c 0
 42 -212 24 -209 11 -202 c 1
 28 -118 l 1
 45 -129 59 -134 79 -134 c 0
 130 -134 160 -98 175 -21 c 1
 253 392 l 1
 140 392 l 1
 140 462 l 1
 265 462 l 1
 287 566 l 1
 298 622 318 661 348 690 c 0
 380 720 423 738 463 738 c 0
 489 738 512 732 542 719 c 1
 512 640 l 1
 487 654 475 658 460 658 c 0
 413 658 381 614 366 532 c 1
 354 462 l 1
 467 462 l 1
EndSplineSet
EndChar
StartChar: section
Encoding: 167 167 102
Width: 556
Flags: W
HStem: -213 77<249 268> -34 20G<77 162> 524 21G<380 464> 652 77<281 291>
VStem: 43 79<310 332> 104 90<554 572> 360 90<-54 -36> 427 79<207 229>
DStem: 135 155 188 229 305 38 354 106 193 429 251 490 354 320 397 396
Fore
464 524 m 1xf4
 380 524 l 1
 380 533 l 1
 380 550 l 2
 380 612 342 652 283 652 c 0
 232 652 194 616 194 567 c 0
 194 538 209 518 251 490 c 2
 397 396 l 2
 478 344 506 301 506 229 c 0xf5
 506 153 469 100 397 73 c 1
 437 28 450 -2 450 -45 c 0
 450 -141 370 -213 263 -213 c 0
 179 -213 112 -170 88 -100 c 0
 79 -73 77 -61 77 -14 c 1
 162 -14 l 1
 162 -53 166 -73 180 -92 c 0
 199 -121 228 -136 264 -136 c 0
 321 -136 360 -101 360 -50 c 0
 360 -15 344 11 305 38 c 2
 135 155 l 2
 70 200 43 247 43 312 c 0xfa
 43 378 74 423 148 462 c 1
 117 498 104 526 104 564 c 0
 104 656 185 729 289 729 c 0
 393 729 464 658 464 552 c 2
 464 532 l 1
 464 524 l 1xf4
188 229 m 2
 354 106 l 1
 401 131 427 168 427 208 c 0
 427 249 403 286 354 320 c 2
 193 429 l 1
 141 395 122 368 122 328 c 0xf9
 122 288 135 268 188 229 c 2
EndSplineSet
EndChar
StartChar: currency
Encoding: 168 164 103
Width: 556
Flags: W
HStem: 159 77<260.103 277> 445 77<259.469 277>
VStem: 89 79<325.693 343> 381 79<325.163 344>
Fore
485 190 m 1
 427 136 l 1
 374 189 l 1
 347 169 313 159 274 159 c 0
 241 159 206 168 180 184 c 1
 129 133 l 1
 73 190 l 1
 121 239 l 1
 101 266 89 305 89 341 c 0
 89 377 101 415 121 443 c 1
 67 498 l 1
 123 551 l 1
 178 496 l 1
 207 513 239 522 275 522 c 0
 312 522 347 512 373 494 c 1
 432 547 l 1
 489 489 l 1
 434 434 l 1
 450 409 460 373 460 341 c 0
 460 307 450 275 431 244 c 1
 485 190 l 1
274 445 m 0
 216 445 168 398 168 340 c 0
 168 283 216 236 275 236 c 0
 332 236 381 283 381 339 c 0
 381 398 334 445 274 445 c 0
EndSplineSet
EndChar
StartChar: quotesingle
Encoding: 169 39 104
Width: 191
Flags: W
HStem: 689 20G<48 142>
VStem: 48 94<597 709>
Fore
48 709 m 1
 142 709 l 1
 142 598 l 1
 115 464 l 1
 75 464 l 1
 48 598 l 1
 48 709 l 1
EndSplineSet
EndChar
StartChar: quotedblleft
Encoding: 170 8220 105
Width: 333
Flags: W
VStem: 48 45<578 601.155> 48 93<477 581> 206 45<578 601.155> 206 93<477 581>
Fore
141 477 m 1x40
 48 477 l 1x40
 48 578 l 2x80
 48 657 81 704 141 709 c 1
 141 671 l 1x40
 107 666 92 638 93 581 c 1x80
 141 581 l 1
 141 477 l 1x40
299 477 m 1x10
 206 477 l 1x10
 206 578 l 2x20
 206 657 239 704 299 709 c 1
 299 671 l 1x10
 265 666 250 638 251 581 c 1x20
 299 581 l 1
 299 477 l 1x10
EndSplineSet
KernsSLIF: 65 -52 1 0 225 -64 1 0 257 -52 1 0 256 -52 1 0 262 -52 1 0 84 9 1 0 86 15 1 0 87 27 1 0 89 5 1 0
EndChar
StartChar: guillemotleft
Encoding: 171 171 106
Width: 556
Flags: W
DStem: 98 227 144 272 250 106 250 189 250 438 250 355 98 316 144 272 303 227 349 272 455 106 455 189 455 438 455 355 303 316 349 272
Fore
98 227 m 1
 98 316 l 1
 250 438 l 1
 250 355 l 1
 144 272 l 1
 250 189 l 1
 250 106 l 1
 98 227 l 1
303 227 m 1
 303 316 l 1
 455 438 l 1
 455 355 l 1
 349 272 l 1
 455 189 l 1
 455 106 l 1
 303 227 l 1
EndSplineSet
EndChar
StartChar: guilsinglleft
Encoding: 172 8249 107
Width: 333
Flags: W
DStem: 91 227 137 272 243 106 243 189 243 438 243 355 91 316 137 272
Fore
91 227 m 1
 91 316 l 1
 243 438 l 1
 243 355 l 1
 137 272 l 1
 243 189 l 1
 243 106 l 1
 91 227 l 1
EndSplineSet
EndChar
StartChar: guilsinglright
Encoding: 173 8250 108
Width: 333
Flags: W
DStem: 85 355 85 438 193 272 239 317 193 272 239 228 85 189 85 106
Fore
239 317 m 1
 239 228 l 1
 85 106 l 1
 85 189 l 1
 193 272 l 1
 85 355 l 1
 85 438 l 1
 239 317 l 1
EndSplineSet
KernsSLIF: 65 -44 1 0 225 -48 1 0 257 -44 1 0 256 -44 1 0 262 -44 1 0 84 -121 1 0 86 -88 1 0 87 -60 1 0 89 -128 1 0
EndChar
StartChar: fi
Encoding: 174 64257 109
Width: 500
Flags: W
HStem: 0 21G<82 165 353 436> 456 68<12 82 165 252> 659 73<205 225>
VStem: 82 83<0 456 524 615> 353 83<0 524 624 729>
Fore
252 524 m 1
 252 456 l 1
 165 456 l 1
 165 0 l 1
 82 0 l 1
 82 456 l 1
 12 456 l 1
 12 524 l 1
 82 524 l 1
 82 613 l 2
 82 688 128 732 205 732 c 0
 222 732 233 731 252 727 c 1
 252 658 l 1
 233 659 230 659 223 659 c 0
 185 659 165 641 165 606 c 2
 165 524 l 1
 252 524 l 1
436 524 m 1
 436 0 l 1
 353 0 l 1
 353 524 l 1
 436 524 l 1
436 729 m 1
 436 624 l 1
 353 624 l 1
 353 729 l 1
 436 729 l 1
EndSplineSet
Ligature: 0 0 'liga' f i
EndChar
StartChar: fl
Encoding: 175 64258 110
Width: 500
Flags: W
HStem: 0 21G<87 170 347 430> 456 68<17 87 170 257> 659 73<210 230>
VStem: 87 83<0 456 524 615> 347 83<0 729>
Fore
257 524 m 1
 257 456 l 1
 170 456 l 1
 170 0 l 1
 87 0 l 1
 87 456 l 1
 17 456 l 1
 17 524 l 1
 87 524 l 1
 87 613 l 2
 87 688 133 732 210 732 c 0
 227 732 238 731 257 727 c 1
 257 658 l 1
 238 659 235 659 228 659 c 0
 190 659 170 641 170 606 c 2
 170 524 l 1
 257 524 l 1
430 729 m 1
 430 0 l 1
 347 0 l 1
 347 729 l 1
 430 729 l 1
EndSplineSet
Ligature: 0 0 'liga' f l
EndChar
StartChar: endash
Encoding: 177 8211 111
Width: 556
Flags: W
HStem: 240 72<-5 561>
Fore
561 312 m 1
 561 240 l 1
 -5 240 l 1
 -5 312 l 1
 561 312 l 1
EndSplineSet
EndChar
StartChar: dagger
Encoding: 178 8224 112
Width: 556
Flags: W
HStem: 420 82<38 231 319 513> 689 20G<231 319>
VStem: 231 88<-177 420 502 709>
Fore
513 502 m 1
 513 420 l 1
 319 420 l 1
 319 -177 l 1
 231 -177 l 1
 231 420 l 1
 38 420 l 1
 38 502 l 1
 231 502 l 1
 231 709 l 1
 319 709 l 1
 319 502 l 1
 513 502 l 1
EndSplineSet
EndChar
StartChar: daggerdbl
Encoding: 179 8225 113
Width: 556
Flags: W
HStem: 31 82<38 231 319 513> 420 82<38 231 319 513> 689 20G<231 319>
VStem: 231 88<-177 31 113 420 502 709>
Fore
513 502 m 1
 513 420 l 1
 319 420 l 1
 319 113 l 1
 513 113 l 1
 513 31 l 1
 319 31 l 1
 319 -177 l 1
 231 -177 l 1
 231 31 l 1
 38 31 l 1
 38 113 l 1
 231 113 l 1
 231 420 l 1
 38 420 l 1
 38 502 l 1
 231 502 l 1
 231 709 l 1
 319 709 l 1
 319 502 l 1
 513 502 l 1
EndSplineSet
EndChar
StartChar: periodcentered
Encoding: 180 183 114
Width: 278
Flags: W
VStem: 87 124<302 427>
Fore
211 427 m 1
 211 302 l 1
 87 302 l 1
 87 427 l 1
 211 427 l 1
EndSplineSet
EndChar
StartChar: paragraph
Encoding: 182 182 115
Width: 537
Flags: W
HStem: 665 64<272 401 272 522>
VStem: 255 64<-177 665> 401 64<-177 665>
Fore
522 729 m 1
 522 665 l 1
 465 665 l 1
 465 -177 l 1
 401 -177 l 1
 401 665 l 1
 319 665 l 1
 319 -177 l 1
 255 -177 l 1
 255 259 l 1
 200 262 165 274 130 303 c 0
 78 346 48 415 48 489 c 0
 48 624 146 729 272 729 c 2
 522 729 l 1
EndSplineSet
EndChar
StartChar: bullet
Encoding: 183 8226 116
Width: 350
Flags: W
Fore
175 470 m 0
 245 470 300 414 300 343 c 0
 300 276 243 220 175 220 c 0
 106 220 50 276 50 345 c 0
 50 414 106 470 175 470 c 0
EndSplineSet
EndChar
StartChar: quotesinglbase
Encoding: 184 8218 117
Width: 222
Flags: W
HStem: -20 20G<65 113>
VStem: 65 93<0 104>
Fore
65 104 m 1
 158 104 l 1
 158 3 l 2
 158 -77 125 -123 64 -128 c 1
 64 -90 l 1
 100 -85 115 -58 113 0 c 1
 65 0 l 1
 65 104 l 1
EndSplineSet
EndChar
StartChar: quotedblbase
Encoding: 185 8222 118
Width: 333
Flags: W
HStem: -20 20G<47 95 207 255>
VStem: 47 93<0 104> 95 45<-17 3> 207 93<0 104> 255 45<-17 3>
Fore
47 104 m 1xc0
 140 104 l 1
 140 3 l 2
 140 -77 107 -123 47 -128 c 1
 47 -90 l 1xc0
 82 -85 96 -58 95 0 c 1xa0
 47 0 l 1
 47 104 l 1xc0
207 104 m 1x90
 300 104 l 1
 300 3 l 2
 300 -77 267 -123 207 -128 c 1
 207 -90 l 1x90
 242 -85 256 -58 255 0 c 1x88
 207 0 l 1
 207 104 l 1x90
EndSplineSet
KernsSLIF: 65 30 1 0 225 30 1 0 84 -75 1 0 86 -69 1 0 87 -34 1 0 89 -91 1 0
EndChar
StartChar: quotedblright
Encoding: 186 8221 119
Width: 333
Flags: W
HStem: 689 20G<49 142 209 302>
VStem: 49 93<605 709> 97 45<588 608> 209 93<605 709> 257 45<588 608>
Fore
49 709 m 1xc0
 142 709 l 1
 142 608 l 2
 142 528 109 482 49 477 c 1
 49 515 l 1xc0
 84 520 98 547 97 605 c 1xa0
 49 605 l 1
 49 709 l 1xc0
209 709 m 1x90
 302 709 l 1
 302 608 l 2
 302 528 269 482 209 477 c 1
 209 515 l 1x90
 244 520 258 547 257 605 c 1x88
 209 605 l 1
 209 709 l 1x90
EndSplineSet
KernsSLIF: 65 -53 1 0 225 -66 1 0 257 -53 1 0 256 -53 1 0 262 -53 1 0 84 11 1 0 86 15 1 0 87 26 1 0 89 7 1 0
EndChar
StartChar: guillemotright
Encoding: 187 187 120
Width: 556
Flags: W
DStem: 98 355 98 438 206 272 252 317 206 272 252 228 98 189 98 106 297 355 297 438 405 272 451 317 405 272 451 228 297 189 297 106
Fore
252 317 m 1
 252 228 l 1
 98 106 l 1
 98 189 l 1
 206 272 l 1
 98 355 l 1
 98 438 l 1
 252 317 l 1
451 317 m 1
 451 228 l 1
 297 106 l 1
 297 189 l 1
 405 272 l 1
 297 355 l 1
 297 438 l 1
 451 317 l 1
EndSplineSet
KernsSLIF: 65 -50 1 0 225 -54 1 0 257 -50 1 0 256 -50 1 0 262 -50 1 0 84 -126 1 0 86 -93 1 0 87 -66 1 0 89 -133 1 0
EndChar
StartChar: ellipsis
Encoding: 188 8230 121
Width: 1000
Flags: W
HStem: 0 104<115 219 448 552 781 885>
VStem: 115 104<0 104> 448 104<0 104> 781 104<0 104>
CounterMasks: 1 00
Fore
219 104 m 1
 219 0 l 1
 115 0 l 1
 115 104 l 1
 219 104 l 1
552 104 m 1
 552 0 l 1
 448 0 l 1
 448 104 l 1
 552 104 l 1
885 104 m 1
 885 0 l 1
 781 0 l 1
 781 104 l 1
 885 104 l 1
EndSplineSet
Ligature: 0 1 'liga' period period period
EndChar
StartChar: perthousand
Encoding: 189 8240 122
Width: 1000
Flags: W
HStem: -22 60<472 494 829.684 846> 219 60<483 494 829.684 846> 427 60<159 170> 668 60<158 170>
VStem: 9 59<578 587> 249 59<569 587> 334 59<129 139> 574 59<121 139> 694 59<129 139> 934 59<121 139>
DStem: 492 738 558 738 97 -20 163 -20
Fore
158 728 m 0
 242 728 308 661 308 576 c 0
 308 495 240 427 159 427 c 0
 76 427 9 495 9 578 c 0
 9 660 76 728 158 728 c 0
158 668 m 0
 109 668 68 627 68 578 c 0
 68 528 109 487 159 487 c 0
 208 487 249 528 249 577 c 0
 249 628 209 668 158 668 c 0
492 738 m 1
 558 738 l 1
 163 -20 l 1
 97 -20 l 1
 492 738 l 1
483 279 m 0
 567 279 633 212 633 127 c 0
 633 46 565 -22 484 -22 c 0
 401 -22 334 46 334 129 c 0
 334 211 401 279 483 279 c 0
483 219 m 0
 434 219 393 178 393 129 c 0
 393 79 434 38 483 38 c 0
 533 38 574 79 574 128 c 0
 574 179 534 219 483 219 c 0
843 279 m 0
 927 279 993 212 993 127 c 0
 993 46 925 -22 844 -22 c 0
 761 -22 694 46 694 129 c 0
 694 211 761 279 843 279 c 0
843 219 m 0
 794 219 753 178 753 129 c 0
 753 79 794 38 843 38 c 0
 893 38 934 79 934 128 c 0
 934 179 894 219 843 219 c 0
EndSplineSet
EndChar
StartChar: questiondown
Encoding: 191 191 123
Width: 611
Flags: W
HStem: -217 78<302 320> 504 20G<275 365>
VStem: 95 90<-25 -8> 275 90<262 325 420 524>
Fore
275 325 m 1
 365 325 l 1
 365 270 l 2
 365 234 358 211 337 183 c 0
 319 160 319 160 260 107 c 0
 207 60 185 21 185 -25 c 0
 185 -93 237 -139 314 -139 c 0
 367 -139 407 -118 426 -81 c 0
 438 -57 443 -29 443 17 c 1
 528 17 l 1
 528 -137 453 -217 309 -217 c 0
 178 -217 95 -142 95 -25 c 0
 95 42 120 86 195 154 c 0
 265 217 275 233 275 278 c 2
 275 325 l 1
275 420 m 1
 275 524 l 1
 365 524 l 1
 365 420 l 1
 275 420 l 1
EndSplineSet
EndChar
StartChar: grave
Encoding: 193 96 124
Width: 333
Flags: W
HStem: 720 20G<22 135>
Fore
135 740 m 1
 231 592 l 1
 171 592 l 1
 22 740 l 1
 135 740 l 1
EndSplineSet
EndChar
StartChar: acute
Encoding: 194 180 125
Width: 333
Flags: W
HStem: 720 20G<188 301>
Fore
188 740 m 1
 301 740 l 1
 152 592 l 1
 92 592 l 1
 188 740 l 1
EndSplineSet
Ligature: 0 1 'liga' space acutecomb
EndChar
StartChar: circumflex
Encoding: 195 710 126
Width: 333
Flags: W
HStem: 721 20G<116 211>
Fore
116 741 m 1
 211 741 l 1
 307 591 l 1
 244 591 l 1
 163 687 l 1
 84 591 l 1
 20 591 l 1
 116 741 l 1
EndSplineSet
EndChar
StartChar: tilde
Encoding: 196 732 127
Width: 333
Flags: W
Fore
261 717 m 1
 319 717 l 1
 309 648 279 613 230 613 c 0
 211 613 199 617 145 638 c 0
 121 647 107 651 96 651 c 0
 81 651 69 637 63 614 c 1
 5 614 l 1
 16 680 47 717 91 717 c 0
 112 717 119 715 161 698 c 0
 185 687 212 680 224 680 c 0
 242 680 253 692 261 717 c 1
EndSplineSet
Ligature: 0 1 'liga' space tildecomb
EndChar
StartChar: macron
Encoding: 197 175 128
Width: 333
Flags: W
HStem: 631 70<28 302>
Fore
302 701 m 1
 302 631 l 1
 28 631 l 1
 28 701 l 1
 302 701 l 1
EndSplineSet
Ligature: 0 1 'liga' space uni0304
EndChar
StartChar: breve
Encoding: 198 728 129
Width: 333
Flags: W
HStem: 712 20G<15 74 257 316>
Fore
15 732 m 1
 74 732 l 1
 79 688 109 666 166 666 c 0
 220 666 253 690 257 732 c 1
 316 732 l 1
 309 643 257 597 164 597 c 0
 108 597 63 617 36 654 c 0
 22 674 16 693 15 732 c 1
EndSplineSet
Ligature: 0 1 'liga' space uni0306
EndChar
StartChar: dotaccent
Encoding: 199 729 130
Width: 333
Flags: W
HStem: 612 104<115 219>
VStem: 115 104<612 716>
Fore
219 716 m 1
 219 612 l 1
 115 612 l 1
 115 716 l 1
 219 716 l 1
EndSplineSet
Ligature: 0 1 'liga' space uni0307
EndChar
StartChar: dieresis
Encoding: 200 168 131
Width: 333
Flags: W
HStem: 612 103<30 134 192 296>
Fore
134 715 m 1
 134 612 l 1
 30 612 l 1
 30 715 l 1
 134 715 l 1
296 715 m 1
 296 612 l 1
 192 612 l 1
 192 715 l 1
 296 715 l 1
EndSplineSet
Ligature: 0 1 'liga' space uni0308
EndChar
StartChar: ring
Encoding: 202 730 132
Width: 333
Flags: W
HStem: 579 44<167 176> 710 44<167 176>
VStem: 79 44<667 676> 211 44<666 676>
Fore
167 754 m 0
 216 754 255 715 255 666 c 0
 255 618 215 579 167 579 c 0
 119 579 79 619 79 667 c 0
 79 714 119 754 167 754 c 0
167 710 m 0
 143 710 123 690 123 667 c 0
 123 643 143 623 167 623 c 0
 191 623 211 643 211 666 c 0
 211 691 192 710 167 710 c 0
EndSplineSet
Ligature: 0 1 'liga' space uni030A
EndChar
StartChar: cedilla
Encoding: 203 184 133
Width: 333
Flags: W
HStem: -214 41<150 168> -91 37<166 208> -20 20G<165 203>
VStem: 212 75<-135 -119>
DStem: 165 0 203 0 123 -92 180 -56
Fore
165 0 m 1
 203 0 l 1
 180 -56 l 1
 193 -54 200 -54 208 -54 c 0
 258 -54 287 -78 287 -121 c 0
 287 -178 240 -214 164 -214 c 0
 125 -214 101 -207 39 -180 c 1
 60 -140 l 1
 69 -144 l 2
 115 -167 132 -173 158 -173 c 0
 189 -173 212 -154 212 -128 c 0
 212 -105 195 -91 166 -91 c 0
 154 -91 147 -93 135 -99 c 1
 123 -92 l 1
 165 0 l 1
EndSplineSet
Ligature: 0 1 'liga' space uni0327
EndChar
StartChar: hungarumlaut
Encoding: 205 733 134
Width: 333
Flags: W
HStem: 720 20G<61 174 235 348>
Fore
61 740 m 1
 174 740 l 1
 25 590 l 1
 -35 590 l 1
 61 740 l 1
235 740 m 1
 348 740 l 1
 199 590 l 1
 139 590 l 1
 235 740 l 1
EndSplineSet
Ligature: 0 1 'liga' space uni030B
EndChar
StartChar: ogonek
Encoding: 206 731 135
Width: 333
Flags: W
HStem: -205 45<184 204> -20 20G<154 224>
VStem: 57 73<-113 -104>
Fore
154 0 m 1
 224 0 l 1
 151 -41 130 -64 130 -106 c 0
 130 -141 155 -160 202 -160 c 0
 226 -160 247 -157 265 -150 c 1
 265 -195 l 1
 241 -200 208 -205 189 -205 c 0
 167 -205 142 -200 120 -192 c 0
 78 -176 57 -150 57 -111 c 0
 57 -63 93 -22 154 0 c 1
EndSplineSet
Ligature: 0 1 'liga' space uni0328
EndChar
StartChar: caron
Encoding: 207 711 136
Width: 333
Flags: W
HStem: 721 20G<19 82 242 306>
Fore
210 591 m 1
 115 591 l 1
 19 741 l 1
 82 741 l 1
 163 645 l 1
 242 741 l 1
 306 741 l 1
 210 591 l 1
EndSplineSet
EndChar
StartChar: emdash
Encoding: 208 8212 137
Width: 1000
Flags: W
HStem: 240 72<-9 1001>
Fore
1001 312 m 1
 1001 240 l 1
 -9 240 l 1
 -9 312 l 1
 1001 312 l 1
EndSplineSet
EndChar
StartChar: AE
Encoding: 225 198 138
Width: 1000
Flags: W
HStem: 0 82<561 950> 214 82<230 468> 332 82<561 913> 647 82<310 468 310 932>
VStem: 468 93<0 332 296 647>
DStem: 310 729 368 647 11 0 230 296 310 729 199 214 11 0 114 0
Fore
468 214 m 1
 199 214 l 1
 114 0 l 1
 11 0 l 1
 310 729 l 1
 932 729 l 1
 932 647 l 1
 561 647 l 1
 561 414 l 1
 913 414 l 1
 913 332 l 1
 561 332 l 1
 561 82 l 1
 950 82 l 1
 950 0 l 1
 468 0 l 1
 468 214 l 1
468 296 m 1
 468 647 l 1
 368 647 l 1
 230 296 l 1
 468 296 l 1
EndSplineSet
EndChar
StartChar: ordfeminine
Encoding: 227 170 139
Width: 370
Flags: W
HStem: 303 51<43 320> 399 47<301 323> 690 52<164 194>
VStem: 37 58<493 500> 243 57<510 656>
Fore
320 354 m 1
 320 303 l 1
 43 303 l 1
 43 354 l 1
 320 354 l 1
333 449 m 1
 333 405 l 1
 320 400 313 399 301 399 c 0
 268 399 252 411 246 442 c 1
 213 413 180 399 141 399 c 0
 77 399 37 436 37 495 c 0
 37 537 57 566 94 582 c 0
 111 589 152 597 194 600 c 0
 232 603 243 611 243 633 c 2
 243 646 l 2
 243 674 219 690 176 690 c 0
 131 690 115 677 108 634 c 1
 49 634 l 1
 51 705 96 742 178 742 c 0
 259 742 300 711 300 648 c 2
 300 469 l 2
 300 454 308 446 323 446 c 0
 326 446 329 447 333 449 c 1
243 517 m 2
 243 568 l 1
 229 562 216 560 167 552 c 0
 115 545 95 530 95 498 c 0
 95 468 116 451 152 451 c 0
 201 451 243 482 243 517 c 2
EndSplineSet
EndChar
StartChar: Lslash
Encoding: 232 321 140
Width: 556
Flags: W
HStem: 0 82<173 552> 709 20G<80 173>
VStem: 80 93<0 329 356 729>
DStem: 344 527 344 451 173 406 173 329
Fore
173 406 m 1
 344 527 l 1
 344 451 l 1
 173 329 l 1
 173 82 l 1
 552 82 l 1
 552 0 l 1
 80 0 l 1
 80 280 l 1
 0 223 l 1
 0 300 l 1
 80 356 l 1
 80 729 l 1
 173 729 l 1
 173 406 l 1
EndSplineSet
EndChar
StartChar: Oslash
Encoding: 233 216 141
Width: 778
Flags: W
HStem: -23 82<387 399> 659 82<387 399>
VStem: 35 93<360 378> 646 93<358 378>
DStem: 111 108 146 67 30 19 69 -17 558 595 593 554 174 176 206 133 704 755 744 719 617 660 655 622
Fore
30 19 m 1
 111 108 l 1
 61 178 35 263 35 360 c 0
 35 587 177 741 387 741 c 0
 478 741 555 714 617 660 c 1
 704 755 l 1
 744 719 l 1
 655 622 l 1
 709 554 739 460 739 358 c 0
 739 131 597 -23 387 -23 c 0
 290 -23 212 6 146 67 c 1
 69 -17 l 1
 30 19 l 1
174 176 m 1
 558 595 l 1
 510 637 452 659 387 659 c 0
 232 659 128 539 128 360 c 0
 128 291 144 228 174 176 c 1
593 554 m 1
 206 133 l 1
 255 84 316 59 387 59 c 0
 542 59 646 179 646 358 c 0
 646 433 628 500 593 554 c 1
EndSplineSet
KernsSLIF: 65 -33 0 0
EndChar
StartChar: OE
Encoding: 234 338 142
Width: 1000
Flags: W
HStem: -20 82<341 364> 0 82<618 959> 327 82<618 946> 647 82<525 954> 659 82<342 364>
VStem: 43 93<325 381> 525 93<181 327 182 647>
Fore
618 327 m 1x36
 618 82 l 1
 959 82 l 1
 959 0 l 1
 525 0 l 1x76
 525 74 l 1
 479 9 422 -20 341 -20 c 0
 256 -20 182 12 130 72 c 0
 71 140 43 232 43 356 c 0
 43 492 78 596 146 663 c 0
 195 712 269 741 342 741 c 0xae
 424 741 483 713 525 653 c 1
 525 729 l 1
 954 729 l 1
 954 647 l 1
 618 647 l 1
 618 409 l 1
 946 409 l 1
 946 327 l 1
 618 327 l 1x36
525 182 m 1
 525 539 l 1
 485 620 426 659 342 659 c 0
 275 659 222 632 187 581 c 0
 151 527 136 462 136 360 c 0
 136 259 151 194 187 140 c 0
 222 89 275 62 341 62 c 0xae
 425 62 485 101 525 182 c 1
EndSplineSet
EndChar
StartChar: ordmasculine
Encoding: 235 186 143
Width: 365
Flags: W
HStem: 303 51<51 314> 399 52<168.967 185> 690 52<168.967 185>
VStem: 40 58<571 592> 266 58<558 592>
Fore
314 354 m 1
 314 303 l 1
 51 303 l 1
 51 354 l 1
 314 354 l 1
182 742 m 0
 273 742 324 680 324 568 c 0
 324 462 271 399 182 399 c 0
 92 399 40 462 40 571 c 0
 40 679 92 742 182 742 c 0
182 690 m 0
 130 690 98 645 98 571 c 0
 98 496 130 451 182 451 c 0
 234 451 266 496 266 569 c 0
 266 645 235 690 182 690 c 0
EndSplineSet
EndChar
StartChar: ae
Encoding: 241 230 144
Width: 889
Flags: W
HStem: -23 73<202 223> 234 68<461 845> 462 77<241 275 593 627>
VStem: 34 87<120 138> 381 78<157 234> 755 90<234 302>
Fore
751 159 m 1
 835 159 l 1
 814 45 730 -23 612 -23 c 0
 535 -23 469 8 434 60 c 0
 429 68 425 75 418 87 c 1
 343 9 280 -23 202 -23 c 0
 100 -23 34 38 34 132 c 0
 34 200 65 246 127 272 c 0
 159 286 210 296 294 303 c 0
 362 309 381 323 381 362 c 2
 381 384 l 2
 381 435 340 462 263 462 c 0
 186 462 148 433 141 369 c 1
 57 369 l 1
 59 421 69 451 93 478 c 0
 128 517 191 539 265 539 c 0
 350 539 409 511 440 457 c 1
 476 508 541 539 613 539 c 0
 710 539 790 486 824 401 c 0
 839 362 845 314 845 234 c 1
 459 234 l 1
 460 182 467 152 487 122 c 0
 515 78 560 54 613 54 c 0
 680 54 727 90 751 159 c 1
381 157 m 2
 381 258 l 1
 353 246 336 242 247 229 c 0
 157 216 121 189 121 134 c 0
 121 82 159 50 221 50 c 0
 261 50 299 63 332 88 c 0
 362 111 381 138 381 157 c 2
461 302 m 1
 755 302 l 1
 755 397 696 462 611 462 c 0
 527 462 468 399 461 302 c 1
EndSplineSet
KernsSLIF: 118 -16 0 0 119 -10 0 0 121 -20 0 0
EndChar
StartChar: dotlessi
Encoding: 245 305 145
Width: 278
Flags: W
HStem: 0 21G<94 178> 504 20G<94 178>
VStem: 94 84<0 524>
Fore
178 524 m 1
 178 0 l 1
 94 0 l 1
 94 524 l 1
 178 524 l 1
EndSplineSet
EndChar
StartChar: lslash
Encoding: 248 322 146
Width: 222
Flags: W
HStem: 0 21G<63 146> 709 20G<63 146>
VStem: 63 83<0 357 377 729>
Fore
146 421 m 1
 212 472 l 1
 212 408 l 1
 146 357 l 1
 146 0 l 1
 63 0 l 1
 63 313 l 1
 0 263 l 1
 0 327 l 1
 63 377 l 1
 63 729 l 1
 146 729 l 1
 146 421 l 1
EndSplineSet
EndChar
StartChar: oslash
Encoding: 249 248 147
Width: 611
Flags: W
HStem: -23 77<257 291> 462 77<273 291>
VStem: 36 87<258 275> 423 87<258 275>
DStem: 84 72 111 39 18 -2 50 -30 383 410 405 371 144 141 167 102 497 539 529 511 439 474 466 440
Fore
529 511 m 1
 466 440 l 1
 496 390 510 334 510 258 c 0
 510 82 422 -23 274 -23 c 0
 207 -23 151 -2 111 39 c 1
 50 -30 l 1
 18 -2 l 1
 84 72 l 1
 51 121 36 180 36 258 c 0
 36 434 125 539 273 539 c 0
 342 539 394 519 439 474 c 1
 497 539 l 1
 529 511 l 1
405 371 m 1
 167 102 l 1
 196 70 231 54 273 54 c 0
 366 54 423 132 423 258 c 0
 423 302 417 340 405 371 c 1
144 141 m 1
 383 410 l 1
 357 443 317 462 273 462 c 0
 180 462 123 384 123 258 c 0
 123 211 130 174 144 141 c 1
EndSplineSet
EndChar
StartChar: oe
Encoding: 250 339 148
Width: 944
Flags: W
HStem: -23 77<277 281 648.355 681> 234 68<515 899> 462 77<277 281 647 681>
VStem: 40 87<259 282> 427 86<232 256> 809 90<234 302>
Fore
804 159 m 1
 888 159 l 1
 867 45 784 -23 665 -23 c 0
 580 -23 511 14 471 80 c 1
 429 11 365 -23 277 -23 c 0
 126 -23 40 79 40 259 c 0
 40 438 126 539 277 539 c 0
 366 539 433 503 473 433 c 1
 514 500 585 539 666 539 c 0
 764 539 844 487 878 401 c 0
 893 362 899 314 899 234 c 1
 513 234 l 1
 514 182 521 152 541 122 c 0
 569 78 614 54 667 54 c 0
 734 54 781 90 804 159 c 1
277 462 m 0
 184 462 127 385 127 259 c 0
 127 131 184 54 277 54 c 0
 369 54 427 131 427 256 c 0
 427 385 371 462 277 462 c 0
515 302 m 1
 809 302 l 1
 809 397 750 462 665 462 c 0
 581 462 522 399 515 302 c 1
EndSplineSet
EndChar
StartChar: germandbls
Encoding: 251 223 149
Width: 611
Flags: W
HStem: -15 79<296 324> 354 73<294 321> 652 76<274 321>
VStem: 67 88<0 534> 449 88<528 550> 480 91<208 236>
Fore
294 427 m 1xf4
 414 427 449 481 449 540 c 0
 449 605 398 652 297 652 c 0
 184 652 155 595 155 510 c 2
 155 0 l 1
 67 0 l 1
 67 532 l 2
 67 647 148 728 298 728 c 0
 446 728 537 657 537 548 c 0xf8
 537 451 478 415 455 400 c 1
 529 380 571 294 571 234 c 0
 571 57 462 -15 319 -15 c 0
 290 -15 280 -11 266 -8 c 1
 266 67 l 1
 281 65 296 64 310 64 c 0
 419 64 480 113 480 214 c 0
 480 319 412 354 310 354 c 2
 294 354 l 1
 294 427 l 1xf4
EndSplineSet
EndChar
StartChar: Adieresis
Encoding: 256 196 150
Width: 667
Flags: W
HStem: 0 21G<17 116 549 653> 219 78<216 474> 709 20G<277 397> 811 103<202 306 364 468>
DStem: 277 729 336 629 17 0 216 297 277 729 193 219 17 0 116 0 474 219 397 729 549 0 653 0
Fore
306 914 m 1
 306 811 l 1
 202 811 l 1
 202 914 l 1
 306 914 l 1
468 914 m 1
 468 811 l 1
 364 811 l 1
 364 914 l 1
 468 914 l 1
474 219 m 1
 193 219 l 1
 116 0 l 1
 17 0 l 1
 277 729 l 1
 397 729 l 1
 653 0 l 1
 549 0 l 1
 474 219 l 1
448 297 m 1
 336 629 l 1
 216 297 l 1
 448 297 l 1
EndSplineSet
KernsSLIF: 67 -36 0 0 71 -35 0 0 79 -33 0 0 81 -32 0 0 84 -93 0 0 85 -37 0 0 86 -75 0 0 87 -51 0 0 89 -99 0 0 97 -4 0 0 98 4 0 0 99 -11 0 0 44 5 0 0 100 -8 0 0 103 -10 0 0 171 -44 0 0 172 -40 0 0 45 -3 0 0 111 -13 0 0 46 5 0 0 113 -8 0 0 186 -56 0 0 39 -65 0 0 116 -16 0 0 117 -12 0 0 118 -31 0 0 119 -21 0 0 121 -34 0 0
Ligature: 0 0 'liga' A uni0308
EndChar
StartChar: Aacute
Encoding: 257 193 151
Width: 667
Flags: W
HStem: 0 21G<17 116 549 653> 219 78<216 474> 709 20G<277 397>
DStem: 277 729 336 629 17 0 216 297 277 729 193 219 17 0 116 0 474 219 397 729 549 0 653 0
Fore
371 939 m 1
 484 939 l 1
 335 791 l 1
 275 791 l 1
 371 939 l 1
474 219 m 1
 193 219 l 1
 116 0 l 1
 17 0 l 1
 277 729 l 1
 397 729 l 1
 653 0 l 1
 549 0 l 1
 474 219 l 1
448 297 m 1
 336 629 l 1
 216 297 l 1
 448 297 l 1
EndSplineSet
KernsSLIF: 67 -36 0 0 71 -35 0 0 79 -33 0 0 81 -32 0 0 84 -93 0 0 85 -37 0 0 86 -75 0 0 87 -51 0 0 89 -99 0 0 97 -4 0 0 98 4 0 0 99 -11 0 0 44 5 0 0 100 -8 0 0 101 -16 0 0 103 -10 0 0 171 -44 0 0 172 -40 0 0 45 -3 0 0 111 -13 0 0 46 5 0 0 113 -8 0 0 39 -65 0 0 116 -16 0 0 117 -12 0 0 118 -31 0 0 119 -21 0 0 121 -34 0 0
Ligature: 0 0 'liga' A acutecomb
EndChar
StartChar: Agrave
Encoding: 258 192 152
Width: 667
Flags: W
HStem: 0 21G<17 116 549 653> 219 78<216 474> 709 20G<277 397>
DStem: 277 729 336 629 17 0 216 297 277 729 193 219 17 0 116 0 474 219 397 729 549 0 653 0
Fore
304 939 m 1
 400 791 l 1
 340 791 l 1
 191 939 l 1
 304 939 l 1
474 219 m 1
 193 219 l 1
 116 0 l 1
 17 0 l 1
 277 729 l 1
 397 729 l 1
 653 0 l 1
 549 0 l 1
 474 219 l 1
448 297 m 1
 336 629 l 1
 216 297 l 1
 448 297 l 1
EndSplineSet
KernsSLIF: 67 -36 0 0 71 -35 0 0 79 -33 0 0 81 -32 0 0 84 -93 0 0 85 -37 0 0 86 -75 0 0 87 -51 0 0 89 -99 0 0 44 5 0 0 46 5 0 0
Ligature: 0 0 'liga' A gravecomb
EndChar
StartChar: Acircumflex
Encoding: 259 194 153
Width: 667
Flags: W
HStem: 0 21G<17 116 549 653> 219 78<216 474> 709 20G<277 397>
DStem: 277 729 336 629 17 0 216 297 277 729 193 219 17 0 116 0 474 219 397 729 549 0 653 0
Fore
289 940 m 1
 384 940 l 1
 480 790 l 1
 417 790 l 1
 336 886 l 1
 257 790 l 1
 193 790 l 1
 289 940 l 1
474 219 m 1
 193 219 l 1
 116 0 l 1
 17 0 l 1
 277 729 l 1
 397 729 l 1
 653 0 l 1
 549 0 l 1
 474 219 l 1
448 297 m 1
 336 629 l 1
 216 297 l 1
 448 297 l 1
EndSplineSet
KernsSLIF: 67 -36 0 0 71 -35 0 0 79 -33 0 0 81 -32 0 0 84 -93 0 0 85 -37 0 0 86 -75 0 0 87 -51 0 0 89 -99 0 0 44 5 0 0 46 5 0 0
Ligature: 0 0 'liga' A uni0302
EndChar
StartChar: Abreve
Encoding: 260 258 154
Width: 667
Flags: W
HStem: 0 21G<17 116 549 653> 219 78<216 474> 709 20G<277 397> 796 69<320 354>
DStem: 277 729 336 629 17 0 216 297 277 729 193 219 17 0 116 0 474 219 397 729 549 0 653 0
Fore
185 931 m 1
 244 931 l 1
 249 887 279 865 336 865 c 0
 390 865 423 889 427 931 c 1
 486 931 l 1
 479 842 427 796 334 796 c 0
 278 796 233 816 206 853 c 0
 192 873 186 892 185 931 c 1
474 219 m 1
 193 219 l 1
 116 0 l 1
 17 0 l 1
 277 729 l 1
 397 729 l 1
 653 0 l 1
 549 0 l 1
 474 219 l 1
448 297 m 1
 336 629 l 1
 216 297 l 1
 448 297 l 1
EndSplineSet
Ligature: 0 0 'liga' A uni0306
EndChar
StartChar: Atilde
Encoding: 261 195 155
Width: 667
Flags: W
HStem: 0 21G<17 116 549 653> 219 78<216 474> 709 20G<277 397> 812 67<395 405> 850 66<262 279>
DStem: 277 729 336 629 17 0 216 297 277 729 193 219 17 0 116 0 474 219 397 729 549 0 653 0
Fore
434 916 m 1xe8
 492 916 l 1xe8
 482 847 452 812 403 812 c 0xf0
 384 812 372 816 318 837 c 0
 294 846 280 850 269 850 c 0
 254 850 242 836 236 813 c 1
 178 813 l 1
 189 879 220 916 264 916 c 0xe8
 285 916 292 914 334 897 c 0
 358 886 385 879 397 879 c 0xf0
 415 879 426 891 434 916 c 1xe8
474 219 m 1
 193 219 l 1
 116 0 l 1
 17 0 l 1
 277 729 l 1
 397 729 l 1
 653 0 l 1
 549 0 l 1
 474 219 l 1
448 297 m 1
 336 629 l 1
 216 297 l 1
 448 297 l 1
EndSplineSet
KernsSLIF: 67 -36 0 0 71 -35 0 0 79 -33 0 0 81 -32 0 0 84 -93 0 0 85 -37 0 0 86 -75 0 0 87 -51 0 0 89 -99 0 0 44 5 0 0 46 5 0 0
Ligature: 0 0 'liga' A tildecomb
EndChar
StartChar: Aring
Encoding: 262 197 156
Width: 667
Flags: W
HStem: 0 21G<17 116 549 653> 219 78<216 474> 709 20G<277 397> 778 44<325.75 338> 909 44<325.75 338>
VStem: 247 44<866 868> 379 44<865 869>
DStem: 277 729 336 629 17 0 216 297 277 729 193 219 17 0 116 0 474 219 397 729 549 0 653 0
Fore
335 953 m 0
 384 953 423 914 423 865 c 0
 423 817 383 778 335 778 c 0
 287 778 247 818 247 866 c 0
 247 913 287 953 335 953 c 0
335 909 m 0
 311 909 291 889 291 866 c 0
 291 842 311 822 335 822 c 0
 359 822 379 842 379 865 c 0
 379 890 360 909 335 909 c 0
474 219 m 1
 193 219 l 1
 116 0 l 1
 17 0 l 1
 277 729 l 1
 397 729 l 1
 653 0 l 1
 549 0 l 1
 474 219 l 1
448 297 m 1
 336 629 l 1
 216 297 l 1
 448 297 l 1
EndSplineSet
KernsSLIF: 67 -36 0 0 71 -35 0 0 79 -33 0 0 81 -32 0 0 84 -93 0 0 85 -37 0 0 86 -75 0 0 87 -51 0 0 89 -99 0 0 97 -4 0 0 98 4 0 0 99 -11 0 0 44 5 0 0 100 -8 0 0 101 -16 0 0 103 -10 0 0 171 -44 0 0 172 -40 0 0 45 -3 0 0 111 -13 0 0 46 5 0 0 113 -8 0 0 186 -56 0 0 39 -65 0 0 116 -16 0 0 117 -12 0 0 118 -31 0 0 119 -21 0 0 121 -34 0 0
Ligature: 0 0 'liga' A uni030A
EndChar
StartChar: Aogonek
Encoding: 263 260 157
Width: 667
Flags: W
HStem: -205 45<614 631> -20 20G<549 585> 0 21G<17 116> 219 78<216 474> 709 20G<277 397>
VStem: 484 73<-113 -103>
DStem: 277 729 336 629 17 0 216 297 277 729 193 219 17 0 116 0 474 219 397 729 549 0 653 0
Fore
474 219 m 1
 193 219 l 1
 116 0 l 1
 17 0 l 1
 277 729 l 1
 397 729 l 1
 653 0 l 1
 588 -31 557 -64 557 -105 c 0
 557 -141 582 -160 629 -160 c 0
 653 -160 674 -157 692 -150 c 1
 692 -195 l 1
 668 -200 635 -205 616 -205 c 0
 594 -205 569 -200 547 -192 c 0
 505 -176 484 -150 484 -111 c 0
 484 -63 514 -31 585 0 c 1
 549 0 l 1
 474 219 l 1
448 297 m 1
 336 629 l 1
 216 297 l 1
 448 297 l 1
EndSplineSet
Ligature: 0 0 'liga' A uni0328
EndChar
StartChar: Ccedilla
Encoding: 264 199 158
Width: 722
Flags: W
HStem: -214 41<335 354> -91 149<352 378> -23 81<378 400.808> 659 82<351 394>
VStem: 48 93<329 379> 398 75<-135 -119>
DStem: 341 -23 379 -23 310 -92 366 -56
Fore
379 -23 m 1xbc
 366 -56 l 1
 379 -54 386 -54 394 -54 c 0
 444 -54 473 -78 473 -121 c 0
 473 -178 426 -214 350 -214 c 0
 312 -214 286 -207 225 -180 c 1
 246 -140 l 1
 255 -144 l 2
 300 -167 319 -173 344 -173 c 0
 375 -173 398 -154 398 -128 c 0
 398 -105 381 -91 352 -91 c 0xdc
 340 -91 333 -93 321 -99 c 1
 310 -92 l 1
 341 -23 l 1xbc
 265 -12 235 -1 192 29 c 0
 101 94 48 214 48 356 c 0
 48 473 84 578 150 650 c 0
 204 710 283 741 381 741 c 0
 541 741 633 663 662 503 c 1
 567 503 l 1
 556 557 541 588 514 613 c 0
 484 641 429 659 371 659 c 0
 229 659 141 544 141 357 c 0
 141 174 233 58 378 58 c 0xdc
 456 58 518 92 548 152 c 0
 563 182 573 216 581 266 c 1
 677 266 l 1
 655 75 555 -23 379 -23 c 1xbc
EndSplineSet
KernsSLIF: 65 -31 0 0
Ligature: 0 0 'liga' C uni0327
EndChar
StartChar: Cacute
Encoding: 265 262 159
Width: 722
Flags: W
HStem: -23 82<367 401> 659 82<351 385>
VStem: 48 93<328 378>
Fore
406 939 m 1
 519 939 l 1
 370 791 l 1
 310 791 l 1
 406 939 l 1
662 503 m 1
 567 503 l 1
 556 557 541 588 514 613 c 0
 484 641 429 659 370 659 c 0
 229 659 141 544 141 357 c 0
 141 175 233 59 378 59 c 0
 456 59 518 93 548 153 c 0
 563 182 573 216 581 266 c 1
 677 266 l 1
 655 73 555 -23 377 -23 c 0
 282 -23 210 4 154 62 c 0
 85 133 48 236 48 356 c 0
 48 474 84 578 150 650 c 0
 204 710 283 741 381 741 c 0
 541 741 633 663 662 503 c 1
EndSplineSet
Ligature: 0 0 'liga' C acutecomb
EndChar
StartChar: Ccaron
Encoding: 266 268 160
Width: 722
Flags: W
HStem: -23 82<367 401> 659 82<351 385>
VStem: 48 93<328 378>
Fore
428 790 m 1
 333 790 l 1
 237 940 l 1
 300 940 l 1
 381 844 l 1
 460 940 l 1
 524 940 l 1
 428 790 l 1
662 503 m 1
 567 503 l 1
 556 557 541 588 514 613 c 0
 484 641 429 659 370 659 c 0
 229 659 141 544 141 357 c 0
 141 175 233 59 378 59 c 0
 456 59 518 93 548 153 c 0
 563 182 573 216 581 266 c 1
 677 266 l 1
 655 73 555 -23 377 -23 c 0
 282 -23 210 4 154 62 c 0
 85 133 48 236 48 356 c 0
 48 474 84 578 150 650 c 0
 204 710 283 741 381 741 c 0
 541 741 633 663 662 503 c 1
EndSplineSet
Ligature: 0 0 'liga' C uni030C
EndChar
StartChar: Dcaron
Encoding: 267 270 161
Width: 722
Flags: W
HStem: 0 82<182 378> 647 82<89 378>
VStem: 89 93<0 647> 574 93<335 385>
Fore
386 790 m 1
 291 790 l 1
 195 940 l 1
 258 940 l 1
 339 844 l 1
 418 940 l 1
 482 940 l 1
 386 790 l 1
89 0 m 1
 89 729 l 1
 370 729 l 2
 555 729 667 591 667 365 c 0
 667 138 554 0 370 0 c 2
 89 0 l 1
182 82 m 1
 354 82 l 2
 498 82 574 180 574 364 c 0
 574 550 498 647 354 647 c 2
 182 647 l 1
 182 82 l 1
EndSplineSet
Ligature: 0 0 'liga' D uni030C
EndChar
StartChar: Edieresis
Encoding: 268 203 162
Width: 667
Flags: W
HStem: 0 82<183 613> 332 82<183 580> 647 82<90 595> 811 103<210 314 372 476>
VStem: 90 93<0 332 0 647>
Fore
314 914 m 1
 314 811 l 1
 210 811 l 1
 210 914 l 1
 314 914 l 1
476 914 m 1
 476 811 l 1
 372 811 l 1
 372 914 l 1
 476 914 l 1
183 332 m 1
 183 82 l 1
 613 82 l 1
 613 0 l 1
 90 0 l 1
 90 729 l 1
 595 729 l 1
 595 647 l 1
 183 647 l 1
 183 414 l 1
 580 414 l 1
 580 332 l 1
 183 332 l 1
EndSplineSet
Ligature: 0 0 'liga' E uni0308
EndChar
StartChar: Eacute
Encoding: 269 201 163
Width: 667
Flags: W
HStem: 0 82<183 613> 332 82<183 580> 647 82<90 595>
VStem: 90 93<0 332 0 647>
Fore
366 941 m 1
 479 941 l 1
 330 793 l 1
 270 793 l 1
 366 941 l 1
183 332 m 1
 183 82 l 1
 613 82 l 1
 613 0 l 1
 90 0 l 1
 90 729 l 1
 595 729 l 1
 595 647 l 1
 183 647 l 1
 183 414 l 1
 580 414 l 1
 580 332 l 1
 183 332 l 1
EndSplineSet
Ligature: 0 0 'liga' E acutecomb
EndChar
StartChar: Egrave
Encoding: 270 200 164
Width: 667
Flags: W
HStem: 0 82<183 613> 332 82<183 580> 647 82<90 595>
VStem: 90 93<0 332 0 647>
Fore
321 939 m 1
 417 791 l 1
 357 791 l 1
 208 939 l 1
 321 939 l 1
183 332 m 1
 183 82 l 1
 613 82 l 1
 613 0 l 1
 90 0 l 1
 90 729 l 1
 595 729 l 1
 595 647 l 1
 183 647 l 1
 183 414 l 1
 580 414 l 1
 580 332 l 1
 183 332 l 1
EndSplineSet
Ligature: 0 0 'liga' E gravecomb
EndChar
StartChar: Ecircumflex
Encoding: 271 202 165
Width: 667
Flags: W
HStem: 0 82<183 613> 332 82<183 580> 647 82<90 595>
VStem: 90 93<0 332 0 647>
Fore
297 940 m 1
 392 940 l 1
 488 790 l 1
 425 790 l 1
 344 886 l 1
 265 790 l 1
 201 790 l 1
 297 940 l 1
183 332 m 1
 183 82 l 1
 613 82 l 1
 613 0 l 1
 90 0 l 1
 90 729 l 1
 595 729 l 1
 595 647 l 1
 183 647 l 1
 183 414 l 1
 580 414 l 1
 580 332 l 1
 183 332 l 1
EndSplineSet
Ligature: 0 0 'liga' E uni0302
EndChar
StartChar: Ecaron
Encoding: 272 282 166
Width: 667
Flags: W
HStem: 0 82<183 613> 332 82<183 580> 647 82<90 595>
VStem: 90 93<0 332 0 647>
Fore
391 790 m 1
 296 790 l 1
 200 940 l 1
 263 940 l 1
 344 844 l 1
 423 940 l 1
 487 940 l 1
 391 790 l 1
183 332 m 1
 183 82 l 1
 613 82 l 1
 613 0 l 1
 90 0 l 1
 90 729 l 1
 595 729 l 1
 595 647 l 1
 183 647 l 1
 183 414 l 1
 580 414 l 1
 580 332 l 1
 183 332 l 1
EndSplineSet
Ligature: 0 0 'liga' E uni030C
EndChar
StartChar: Edotaccent
Encoding: 273 278 167
Width: 667
Flags: W
HStem: 0 82<183 613> 332 82<183 580> 647 82<90 595> 813 104<292 396>
VStem: 90 93<0 332 0 647> 292 104<813 917>
Fore
396 917 m 1
 396 813 l 1
 292 813 l 1
 292 917 l 1
 396 917 l 1
183 332 m 1
 183 82 l 1
 613 82 l 1
 613 0 l 1
 90 0 l 1
 90 729 l 1
 595 729 l 1
 595 647 l 1
 183 647 l 1
 183 414 l 1
 580 414 l 1
 580 332 l 1
 183 332 l 1
EndSplineSet
Ligature: 0 0 'liga' E uni0307
EndChar
StartChar: Eogonek
Encoding: 274 280 168
Width: 667
Flags: W
HStem: -205 45<575 595> 0 82<183 545> 332 82<183 580> 647 82<90 595>
VStem: 90 93<0 332 0 647> 444 73<-113 -104>
Fore
183 332 m 1
 183 82 l 1
 613 82 l 1
 613 0 l 1
 549 -30 517 -65 517 -106 c 0
 517 -141 542 -160 589 -160 c 0
 613 -160 634 -157 652 -150 c 1
 652 -195 l 1
 629 -200 595 -205 577 -205 c 0
 555 -205 530 -200 507 -192 c 0
 465 -176 444 -150 444 -111 c 0
 444 -63 474 -30 545 0 c 1
 90 0 l 1
 90 729 l 1
 595 729 l 1
 595 647 l 1
 183 647 l 1
 183 414 l 1
 580 414 l 1
 580 332 l 1
 183 332 l 1
EndSplineSet
Ligature: 0 0 'liga' E uni0328
EndChar
StartChar: Gbreve
Encoding: 275 286 169
Width: 778
Flags: W
HStem: -23 82<376 406> 303 82<405 627> 659 82<376 413> 796 69<391 413>
VStem: 44 93<344 387> 627 82<264 385>
Fore
250 931 m 1
 309 931 l 1
 314 887 344 865 401 865 c 0
 455 865 488 889 492 931 c 1
 551 931 l 1
 544 842 492 796 399 796 c 0
 343 796 298 816 271 853 c 0
 257 873 251 892 250 931 c 1
709 385 m 1
 709 -4 l 1
 650 -4 l 1
 627 93 l 1
 556 14 477 -23 378 -23 c 0
 181 -23 44 133 44 357 c 0
 44 488 92 601 176 671 c 0
 233 718 305 741 394 741 c 0
 561 741 673 656 699 508 c 1
 604 508 l 1
 584 602 504 659 393 659 c 0
 239 659 137 541 137 362 c 0
 137 272 166 185 214 133 c 0
 257 86 324 59 398 59 c 0
 531 59 627 153 627 283 c 2
 627 303 l 1
 405 303 l 1
 405 385 l 1
 709 385 l 1
EndSplineSet
Ligature: 0 0 'liga' G uni0306
EndChar
StartChar: Idieresis
Encoding: 276 207 170
Width: 278
Flags: W
HStem: 0 21G<100 194> 709 20G<100 194> 805 103<8 112 170 274>
VStem: 100 94<0 729>
Fore
112 908 m 1
 112 805 l 1
 8 805 l 1
 8 908 l 1
 112 908 l 1
274 908 m 1
 274 805 l 1
 170 805 l 1
 170 908 l 1
 274 908 l 1
194 729 m 1
 194 0 l 1
 100 0 l 1
 100 729 l 1
 194 729 l 1
EndSplineSet
Ligature: 0 0 'liga' I uni0308
EndChar
StartChar: Iacute
Encoding: 277 205 171
Width: 278
Flags: W
HStem: 0 21G<100 194> 709 20G<100 194>
VStem: 100 94<0 729>
Fore
168 939 m 1
 281 939 l 1
 132 791 l 1
 72 791 l 1
 168 939 l 1
194 729 m 1
 194 0 l 1
 100 0 l 1
 100 729 l 1
 194 729 l 1
EndSplineSet
Ligature: 0 0 'liga' I acutecomb
EndChar
StartChar: Igrave
Encoding: 278 204 172
Width: 278
Flags: W
HStem: 0 21G<100 194> 709 20G<100 194>
VStem: 100 94<0 729>
Fore
113 939 m 1
 209 791 l 1
 149 791 l 1
 0 939 l 1
 113 939 l 1
194 729 m 1
 194 0 l 1
 100 0 l 1
 100 729 l 1
 194 729 l 1
EndSplineSet
Ligature: 0 0 'liga' I gravecomb
EndChar
StartChar: Icircumflex
Encoding: 279 206 173
Width: 278
Flags: W
HStem: 0 21G<100 194> 709 20G<100 194>
VStem: 100 94<0 729>
Fore
94 940 m 1
 189 940 l 1
 285 790 l 1
 222 790 l 1
 141 886 l 1
 62 790 l 1
 -2 790 l 1
 94 940 l 1
194 729 m 1
 194 0 l 1
 100 0 l 1
 100 729 l 1
 194 729 l 1
EndSplineSet
Ligature: 0 0 'liga' I uni0302
EndChar
StartChar: Idotaccent
Encoding: 280 304 174
Width: 278
Flags: W
HStem: 0 21G<100 194> 709 20G<100 194> 811 104<92 196>
VStem: 100 94<0 729>
Fore
196 915 m 1
 196 811 l 1
 92 811 l 1
 92 915 l 1
 196 915 l 1
194 729 m 1
 194 0 l 1
 100 0 l 1
 100 729 l 1
 194 729 l 1
EndSplineSet
Ligature: 0 0 'liga' I uni0307
EndChar
StartChar: Lacute
Encoding: 281 313 175
Width: 556
Flags: W
HStem: 0 82<172 533> 709 20G<80 173>
VStem: 80 93<0 729>
Fore
166 941 m 1
 279 941 l 1
 130 793 l 1
 70 793 l 1
 166 941 l 1
173 729 m 1
 173 82 l 1
 533 82 l 1
 533 0 l 1
 80 0 l 1
 80 729 l 1
 173 729 l 1
EndSplineSet
Ligature: 0 0 'liga' L acutecomb
EndChar
StartChar: Lcaron
Encoding: 282 317 176
Width: 556
Flags: W
HStem: 0 82<172 533> 505 38<273 284.254 273 335> 709 20G<80 173 273 373>
VStem: 80 93<0 729> 273 100<628 729>
Fore
273 729 m 1
 373 729 l 1
 373 626 l 2
 373 551 335 504 273 505 c 1
 273 543 l 1
 311 543 330 574 328 629 c 1
 273 629 l 1
 273 729 l 1
173 729 m 1
 173 82 l 1
 533 82 l 1
 533 0 l 1
 80 0 l 1
 80 729 l 1
 173 729 l 1
EndSplineSet
Ligature: 0 0 'liga' L uni030C
EndChar
StartChar: Nacute
Encoding: 283 323 177
Width: 722
Flags: W
HStem: 0 21G<76 164 541 646> 709 20G<76 177 558 646>
VStem: 76 88<0 591> 558 88<133 729>
DStem: 164 591 177 729 541 0 558 133
Fore
388 941 m 1
 501 941 l 1
 352 793 l 1
 292 793 l 1
 388 941 l 1
646 729 m 1
 646 0 l 1
 541 0 l 1
 164 591 l 1
 164 0 l 1
 76 0 l 1
 76 729 l 1
 177 729 l 1
 558 133 l 1
 558 729 l 1
 646 729 l 1
EndSplineSet
Ligature: 0 0 'liga' N acutecomb
EndChar
StartChar: Ncaron
Encoding: 284 327 178
Width: 722
Flags: W
HStem: 0 21G<76 164 541 646> 709 20G<76 177 558 646>
VStem: 76 88<0 591> 558 88<133 729>
DStem: 164 591 177 729 541 0 558 133
Fore
409 790 m 1
 314 790 l 1
 218 940 l 1
 281 940 l 1
 362 844 l 1
 441 940 l 1
 505 940 l 1
 409 790 l 1
646 729 m 1
 646 0 l 1
 541 0 l 1
 164 591 l 1
 164 0 l 1
 76 0 l 1
 76 729 l 1
 177 729 l 1
 558 133 l 1
 558 729 l 1
 646 729 l 1
EndSplineSet
Ligature: 0 0 'liga' N uni030C
EndChar
StartChar: Ntilde
Encoding: 285 209 179
Width: 722
Flags: W
HStem: 0 21G<76 164 541 646> 709 20G<76 177 558 646> 812 67<427 438> 850 66<295 304>
VStem: 76 88<0 591> 558 88<133 729>
DStem: 164 591 177 729 541 0 558 133
Fore
467 916 m 1xdc
 525 916 l 1xdc
 515 847 485 812 436 812 c 0xec
 417 812 405 816 351 837 c 0
 327 846 313 850 302 850 c 0
 287 850 275 836 269 813 c 1
 211 813 l 1
 222 879 253 916 297 916 c 0xdc
 318 916 325 914 367 897 c 0
 391 886 418 879 430 879 c 0xec
 448 879 459 891 467 916 c 1xdc
646 729 m 1
 646 0 l 1
 541 0 l 1
 164 591 l 1
 164 0 l 1
 76 0 l 1
 76 729 l 1
 177 729 l 1
 558 133 l 1
 558 729 l 1
 646 729 l 1
EndSplineSet
Ligature: 0 0 'liga' N tildecomb
EndChar
StartChar: Odieresis
Encoding: 286 214 180
Width: 778
Flags: W
HStem: -23 82<390 407> 659 82<389 407> 811 103<257 361 419 523>
VStem: 38 93<359 378> 649 93<328 378>
Fore
361 914 m 1
 361 811 l 1
 257 811 l 1
 257 914 l 1
 361 914 l 1
523 914 m 1
 523 811 l 1
 419 811 l 1
 419 914 l 1
 523 914 l 1
389 741 m 0
 603 741 742 588 742 353 c 0
 742 234 695 121 616 54 c 0
 557 4 478 -23 390 -23 c 0
 180 -23 38 131 38 359 c 0
 38 587 180 741 389 741 c 0
389 659 m 0
 235 659 131 539 131 359 c 0
 131 179 235 59 390 59 c 0
 544 59 649 179 649 355 c 0
 649 539 547 659 389 659 c 0
EndSplineSet
KernsSLIF: 65 -35 0 0 84 -42 0 0 86 -45 0 0 87 -23 0 0 88 -46 0 0 89 -59 0 0
Ligature: 0 0 'liga' O uni0308
EndChar
StartChar: Oacute
Encoding: 287 211 181
Width: 778
Flags: W
HStem: -23 82<390 407> 659 82<389 407>
VStem: 38 93<359 378> 649 93<328 378>
Fore
418 941 m 1
 531 941 l 1
 382 793 l 1
 322 793 l 1
 418 941 l 1
389 741 m 0
 603 741 742 588 742 353 c 0
 742 234 695 121 616 54 c 0
 557 4 478 -23 390 -23 c 0
 180 -23 38 131 38 359 c 0
 38 587 180 741 389 741 c 0
389 659 m 0
 235 659 131 539 131 359 c 0
 131 179 235 59 390 59 c 0
 544 59 649 179 649 355 c 0
 649 539 547 659 389 659 c 0
EndSplineSet
KernsSLIF: 65 -35 0 0 84 -42 0 0 86 -45 0 0 87 -23 0 0 89 -59 0 0
Ligature: 0 0 'liga' O acutecomb
EndChar
StartChar: Ograve
Encoding: 288 210 182
Width: 778
Flags: W
HStem: -23 82<390 407> 659 82<389 407>
VStem: 38 93<359 378> 649 93<328 378>
Fore
361 941 m 1
 457 793 l 1
 397 793 l 1
 248 941 l 1
 361 941 l 1
389 741 m 0
 603 741 742 588 742 353 c 0
 742 234 695 121 616 54 c 0
 557 4 478 -23 390 -23 c 0
 180 -23 38 131 38 359 c 0
 38 587 180 741 389 741 c 0
389 659 m 0
 235 659 131 539 131 359 c 0
 131 179 235 59 390 59 c 0
 544 59 649 179 649 355 c 0
 649 539 547 659 389 659 c 0
EndSplineSet
KernsSLIF: 84 -42 0 0 86 -45 0 0 89 -59 0 0
Ligature: 0 0 'liga' O gravecomb
EndChar
StartChar: Ocircumflex
Encoding: 289 212 183
Width: 778
Flags: W
HStem: -23 82<390 407> 659 82<389 407>
VStem: 38 93<359 378> 649 93<328 378>
Fore
342 940 m 1
 437 940 l 1
 533 790 l 1
 470 790 l 1
 389 886 l 1
 310 790 l 1
 246 790 l 1
 342 940 l 1
389 741 m 0
 603 741 742 588 742 353 c 0
 742 234 695 121 616 54 c 0
 557 4 478 -23 390 -23 c 0
 180 -23 38 131 38 359 c 0
 38 587 180 741 389 741 c 0
389 659 m 0
 235 659 131 539 131 359 c 0
 131 179 235 59 390 59 c 0
 544 59 649 179 649 355 c 0
 649 539 547 659 389 659 c 0
EndSplineSet
KernsSLIF: 84 -42 0 0 86 -45 0 0 89 -59 0 0
Ligature: 0 0 'liga' O uni0302
EndChar
StartChar: Otilde
Encoding: 290 213 184
Width: 778
Flags: W
HStem: -23 82<390 407> 659 82<389 407> 812 67<453 463> 850 66<320 329>
VStem: 38 93<359 378> 649 93<328 378>
Fore
492 916 m 1xdc
 550 916 l 1xdc
 540 847 510 812 461 812 c 0xec
 442 812 430 816 376 837 c 0
 352 846 338 850 327 850 c 0
 312 850 300 836 294 813 c 1
 236 813 l 1
 247 879 278 916 322 916 c 0xdc
 343 916 350 914 392 897 c 0
 416 886 443 879 455 879 c 0xec
 473 879 484 891 492 916 c 1xdc
389 741 m 0
 603 741 742 588 742 353 c 0
 742 234 695 121 616 54 c 0
 557 4 478 -23 390 -23 c 0
 180 -23 38 131 38 359 c 0
 38 587 180 741 389 741 c 0
389 659 m 0
 235 659 131 539 131 359 c 0
 131 179 235 59 390 59 c 0
 544 59 649 179 649 355 c 0
 649 539 547 659 389 659 c 0
EndSplineSet
KernsSLIF: 84 -42 0 0 86 -45 0 0 89 -59 0 0
Ligature: 0 0 'liga' O tildecomb
EndChar
StartChar: Ohungarumlaut
Encoding: 291 336 185
Width: 778
Flags: W
HStem: -23 82<390 407> 659 82<389 407>
VStem: 38 93<359 378> 649 93<328 378>
Fore
364 940 m 1
 477 940 l 1
 328 790 l 1
 268 790 l 1
 364 940 l 1
538 940 m 1
 651 940 l 1
 502 790 l 1
 442 790 l 1
 538 940 l 1
389 741 m 0
 603 741 742 588 742 353 c 0
 742 234 695 121 616 54 c 0
 557 4 478 -23 390 -23 c 0
 180 -23 38 131 38 359 c 0
 38 587 180 741 389 741 c 0
389 659 m 0
 235 659 131 539 131 359 c 0
 131 179 235 59 390 59 c 0
 544 59 649 179 649 355 c 0
 649 539 547 659 389 659 c 0
EndSplineSet
Ligature: 0 0 'liga' O uni030B
EndChar
StartChar: Racute
Encoding: 292 340 186
Width: 722
Flags: W
HStem: 0 21G<93 186 566 679> 314 82<186 432> 647 82<93 432>
VStem: 93 93<0 314 0 647> 545 90<119 193> 554 97<511 536>
Fore
383 941 m 1xf0
 496 941 l 1
 347 793 l 1
 287 793 l 1
 383 941 l 1xf0
186 314 m 1
 186 0 l 1
 93 0 l 1
 93 729 l 1
 429 729 l 2
 572 729 651 660 651 534 c 0xf4
 651 451 618 400 536 360 c 1
 615 326 634 290 635 170 c 0
 637 73 644 47 679 23 c 1
 679 0 l 1
 566 0 l 1
 553 30 545 74 545 119 c 1xf8
 546 184 l 1
 546 274 509 314 426 314 c 2
 186 314 l 1
186 396 m 1
 411 396 l 2
 510 396 554 435 554 521 c 0
 554 565 541 598 516 619 c 0
 493 639 463 647 411 647 c 2
 186 647 l 1
 186 396 l 1
EndSplineSet
Ligature: 0 0 'liga' R acutecomb
EndChar
StartChar: Rcaron
Encoding: 293 344 187
Width: 722
Flags: W
HStem: 0 21G<93 186 566 679> 314 82<186 436> 647 82<93 438>
VStem: 93 93<0 314 0 647> 545 90<119 193> 554 97<511 536>
Fore
404 790 m 1xf0
 309 790 l 1
 213 940 l 1
 276 940 l 1
 357 844 l 1
 436 940 l 1
 500 940 l 1
 404 790 l 1xf0
186 314 m 1
 186 0 l 1
 93 0 l 1
 93 729 l 1
 429 729 l 2
 572 729 651 660 651 534 c 0xf4
 651 451 618 400 536 360 c 1
 615 326 634 290 635 170 c 0
 637 73 644 47 679 23 c 1
 679 0 l 1
 566 0 l 1
 553 30 545 74 545 119 c 1xf8
 546 184 l 1
 546 274 509 314 426 314 c 2
 186 314 l 1
186 396 m 1
 411 396 l 2
 510 396 554 435 554 521 c 0
 554 565 541 598 516 619 c 0
 493 639 463 647 411 647 c 2
 186 647 l 1
 186 396 l 1
EndSplineSet
Ligature: 0 0 'liga' R uni030C
EndChar
StartChar: Sacute
Encoding: 294 346 188
Width: 667
Flags: W
HStem: -23 82<319 369> 663 78<303 353>
VStem: 70 93<525 542> 508 88<515 533.073> 528 93<184 202>
Fore
362 939 m 1xe0
 475 939 l 1
 326 791 l 1
 266 791 l 1
 362 939 l 1xe0
596 515 m 1xf0
 508 515 l 1xf0
 507 610 442 663 326 663 c 0
 228 663 163 614 163 540 c 0
 163 484 195 456 283 432 c 2
 466 383 l 2
 565 356 621 290 621 200 c 0
 621 137 590 72 541 33 c 0
 494 -3 423 -23 336 -23 c 0
 225 -23 141 13 91 81 c 0
 62 121 49 165 48 232 c 1
 136 232 l 1
 135 187 147 152 174 120 c 0
 209 78 263 59 342 59 c 0
 401 59 447 70 476 90 c 0
 507 112 528 152 528 191 c 0xe8
 528 248 486 285 394 309 c 2
 213 357 l 2
 117 382 70 438 70 527 c 0
 70 659 169 741 329 741 c 0
 497 741 595 658 596 515 c 1xf0
EndSplineSet
Ligature: 0 0 'liga' S acutecomb
EndChar
StartChar: Scaron
Encoding: 295 352 189
Width: 667
Flags: W
HStem: -23 82<319 369> 663 78<303 353>
VStem: 70 93<525 542> 508 88<515 533.073> 528 93<184 202>
Fore
380 790 m 1xe0
 285 790 l 1
 189 940 l 1
 252 940 l 1
 333 844 l 1
 412 940 l 1
 476 940 l 1
 380 790 l 1xe0
596 515 m 1xf0
 508 515 l 1xf0
 507 610 442 663 326 663 c 0
 228 663 163 614 163 540 c 0
 163 484 195 456 283 432 c 2
 466 383 l 2
 565 356 621 290 621 200 c 0
 621 137 590 72 541 33 c 0
 494 -3 423 -23 336 -23 c 0
 225 -23 141 13 91 81 c 0
 62 121 49 165 48 232 c 1
 136 232 l 1
 135 187 147 152 174 120 c 0
 209 78 263 59 342 59 c 0
 401 59 447 70 476 90 c 0
 507 112 528 152 528 191 c 0xe8
 528 248 486 285 394 309 c 2
 213 357 l 2
 117 382 70 438 70 527 c 0
 70 659 169 741 329 741 c 0
 497 741 595 658 596 515 c 1xf0
EndSplineSet
Ligature: 0 0 'liga' S uni030C
EndChar
StartChar: Scedilla
Encoding: 296 350 190
Width: 667
Flags: W
HStem: -214 41<281 308> -91 150<306 342> 663 78<302 352>
VStem: 70 93<525 542> 352 75<-135 -119> 508 88<515 533.073> 528 93<185 202>
Fore
335 -24 m 1xfa
 320 -56 l 1
 334 -54 340 -54 348 -54 c 0
 398 -54 427 -78 427 -121 c 0
 427 -178 380 -214 304 -214 c 0
 266 -214 241 -207 179 -180 c 1
 200 -140 l 1
 209 -144 l 2
 254 -167 273 -173 298 -173 c 0
 329 -173 352 -154 352 -128 c 0
 352 -105 335 -91 306 -91 c 0
 295 -91 287 -93 275 -98 c 1
 264 -92 l 1
 295 -23 l 1
 289 -21 285 -20 284 -20 c 2
 240 -13 l 1
 119 13 45 108 48 232 c 1
 136 232 l 1
 135 187 147 152 174 120 c 0
 209 78 263 59 342 59 c 0
 401 59 447 70 476 90 c 0
 507 112 528 152 528 191 c 0xfa
 528 248 486 285 394 309 c 2
 213 357 l 2
 117 382 70 438 70 527 c 0
 70 659 169 741 329 741 c 0
 497 741 595 658 596 515 c 1
 508 515 l 1xfc
 507 610 442 663 326 663 c 0
 228 663 163 614 163 540 c 0
 163 484 195 456 283 432 c 2
 466 383 l 2
 565 356 621 290 621 200 c 0
 621 114 568 35 487 2 c 0
 446 -14 406 -21 335 -24 c 1xfa
EndSplineSet
Ligature: 0 0 'liga' S uni0327
EndChar
StartChar: Tcaron
Encoding: 297 356 191
Width: 611
Flags: W
HStem: 0 21G<261 354> 647 82<21 261 21 593>
VStem: 261 93<0 647>
Fore
356 790 m 1
 261 790 l 1
 165 940 l 1
 228 940 l 1
 309 844 l 1
 388 940 l 1
 452 940 l 1
 356 790 l 1
354 647 m 5
 354 0 l 1
 261 0 l 1
 261 647 l 5
 21 647 l 5
 21 729 l 5
 593 729 l 5
 593 647 l 5
 354 647 l 5
EndSplineSet
Ligature: 0 0 'liga' T uni030C
EndChar
StartChar: Udieresis
Encoding: 298 220 192
Width: 722
Flags: W
HStem: -23 82<364 390> 709 20G<85 178 552 645> 811 103<232 336 394 498>
VStem: 85 93<217 729> 552 93<217 729>
Fore
336 914 m 1
 336 811 l 1
 232 811 l 1
 232 914 l 1
 336 914 l 1
498 914 m 1
 498 811 l 1
 394 811 l 1
 394 914 l 1
 498 914 l 1
552 729 m 1
 645 729 l 1
 645 217 l 2
 645 71 535 -23 364 -23 c 0
 191 -23 85 69 85 217 c 2
 85 729 l 1
 178 729 l 1
 178 217 l 2
 178 162 195 125 231 97 c 1
 266 72 310 59 364 59 c 0
 481 59 552 119 552 217 c 2
 552 729 l 1
EndSplineSet
KernsSLIF: 65 -36 0 0 98 3 0 0 44 -27 0 0 109 -4 0 0 110 -4 0 0 112 3 0 0 46 -25 0 0 114 -4 0 0
Ligature: 0 0 'liga' U uni0308
EndChar
StartChar: Uacute
Encoding: 299 218 193
Width: 722
Flags: W
HStem: -23 82<364 389> 709 20G<85 178 552 645>
VStem: 85 93<217 729> 552 93<217 729>
Fore
387 941 m 1
 500 941 l 1
 351 793 l 1
 291 793 l 1
 387 941 l 1
552 729 m 1
 645 729 l 1
 645 217 l 2
 645 71 535 -23 364 -23 c 0
 191 -23 85 69 85 217 c 2
 85 729 l 1
 178 729 l 1
 178 217 l 2
 178 162 195 125 231 97 c 1
 266 72 310 59 364 59 c 0
 481 59 552 119 552 217 c 2
 552 729 l 1
EndSplineSet
KernsSLIF: 65 -36 0 0 44 -27 0 0 109 -4 0 0 110 -4 0 0 112 3 0 0 46 -25 0 0 114 -4 0 0
Ligature: 0 0 'liga' U acutecomb
EndChar
StartChar: Ugrave
Encoding: 300 217 194
Width: 722
Flags: W
HStem: -23 82<364 390> 709 20G<85 178 552 645>
VStem: 85 93<217 729> 552 93<217 729>
Fore
334 939 m 1
 430 791 l 1
 370 791 l 1
 221 939 l 1
 334 939 l 1
552 729 m 1
 645 729 l 1
 645 217 l 2
 645 71 535 -23 364 -23 c 0
 191 -23 85 69 85 217 c 2
 85 729 l 1
 178 729 l 1
 178 217 l 2
 178 162 195 125 231 97 c 1
 266 72 310 59 364 59 c 0
 481 59 552 119 552 217 c 2
 552 729 l 1
EndSplineSet
KernsSLIF: 65 -36 0 0
Ligature: 0 0 'liga' U gravecomb
EndChar
StartChar: Ucircumflex
Encoding: 301 219 195
Width: 722
Flags: W
HStem: -23 82<364 390> 709 20G<85 178 552 645>
VStem: 85 93<217 729> 552 93<217 729>
Fore
317 940 m 1
 412 940 l 1
 508 790 l 1
 445 790 l 1
 364 886 l 1
 285 790 l 1
 221 790 l 1
 317 940 l 1
552 729 m 1
 645 729 l 1
 645 217 l 2
 645 71 535 -23 364 -23 c 0
 191 -23 85 69 85 217 c 2
 85 729 l 1
 178 729 l 1
 178 217 l 2
 178 162 195 125 231 97 c 1
 266 72 310 59 364 59 c 0
 481 59 552 119 552 217 c 2
 552 729 l 1
EndSplineSet
KernsSLIF: 65 -36 0 0
Ligature: 0 0 'liga' U uni0302
EndChar
StartChar: Uring
Encoding: 302 366 196
Width: 722
Flags: W
HStem: -23 82<364 390> 709 20G<85 178 552 645> 778 44<365 374> 909 44<365 374>
VStem: 85 93<217 729> 277 44<866 874> 409 44<865 874> 552 93<217 729>
Fore
365 953 m 0
 414 953 453 914 453 865 c 0
 453 817 413 778 365 778 c 0
 317 778 277 818 277 866 c 0
 277 913 317 953 365 953 c 0
365 909 m 0
 341 909 321 889 321 866 c 0
 321 842 341 822 365 822 c 0
 389 822 409 842 409 865 c 0
 409 890 390 909 365 909 c 0
552 729 m 1
 645 729 l 1
 645 217 l 2
 645 71 535 -23 364 -23 c 0
 191 -23 85 69 85 217 c 2
 85 729 l 1
 178 729 l 1
 178 217 l 2
 178 162 195 125 231 97 c 1
 266 72 310 59 364 59 c 0
 481 59 552 119 552 217 c 2
 552 729 l 1
EndSplineSet
Ligature: 0 0 'liga' U uni030A
EndChar
StartChar: Uhungarumlaut
Encoding: 303 368 197
Width: 722
Flags: W
HStem: -23 82<364 390> 709 20G<85 178 552 645>
VStem: 85 93<217 729> 552 93<217 729>
Fore
329 939 m 1
 442 939 l 1
 293 789 l 1
 233 789 l 1
 329 939 l 1
503 939 m 1
 616 939 l 1
 467 789 l 1
 407 789 l 1
 503 939 l 1
552 729 m 1
 645 729 l 1
 645 217 l 2
 645 71 535 -23 364 -23 c 0
 191 -23 85 69 85 217 c 2
 85 729 l 1
 178 729 l 1
 178 217 l 2
 178 162 195 125 231 97 c 1
 266 72 310 59 364 59 c 0
 481 59 552 119 552 217 c 2
 552 729 l 1
EndSplineSet
Ligature: 0 0 'liga' U uni030B
EndChar
StartChar: Yacute
Encoding: 304 221 198
Width: 667
Flags: W
HStem: 0 21G<294 387> 709 20G<13 128 550 661>
VStem: 294 93<0 286>
Fore
365 939 m 1
 478 939 l 1
 329 791 l 1
 269 791 l 1
 365 939 l 1
387 286 m 1
 387 0 l 1
 294 0 l 1
 294 286 l 1
 13 729 l 1
 128 729 l 1
 342 374 l 1
 550 729 l 1
 661 729 l 1
 387 286 l 1
EndSplineSet
Ligature: 0 0 'liga' Y acutecomb
EndChar
StartChar: Zacute
Encoding: 305 377 199
Width: 611
Flags: W
HStem: 0 82<145 583> 647 82<56 466>
DStem: 466 647 581 645 28 82 145 82
Fore
348 941 m 1
 461 941 l 1
 312 793 l 1
 252 793 l 1
 348 941 l 1
581 729 m 1
 581 645 l 1
 145 82 l 1
 583 82 l 1
 583 0 l 1
 28 0 l 1
 28 82 l 1
 466 647 l 1
 56 647 l 1
 56 729 l 1
 581 729 l 1
EndSplineSet
Ligature: 0 0 'liga' Z acutecomb
EndChar
StartChar: Zcaron
Encoding: 306 381 200
Width: 611
Flags: W
HStem: 0 82<145 583> 647 82<56 466>
DStem: 466 647 581 645 28 82 145 82
Fore
366 790 m 1
 271 790 l 1
 175 940 l 1
 238 940 l 1
 319 844 l 1
 398 940 l 1
 462 940 l 1
 366 790 l 1
581 729 m 1
 581 645 l 1
 145 82 l 1
 583 82 l 1
 583 0 l 1
 28 0 l 1
 28 82 l 1
 466 647 l 1
 56 647 l 1
 56 729 l 1
 581 729 l 1
EndSplineSet
Ligature: 0 0 'liga' Z uni030C
EndChar
StartChar: Zdotaccent
Encoding: 307 379 201
Width: 611
Flags: W
HStem: 0 82<145 583> 647 82<56 466> 811 104<268 372>
VStem: 268 104<811 915>
DStem: 466 647 581 645 28 82 145 82
Fore
372 915 m 1
 372 811 l 1
 268 811 l 1
 268 915 l 1
 372 915 l 1
581 729 m 1
 581 645 l 1
 145 82 l 1
 583 82 l 1
 583 0 l 1
 28 0 l 1
 28 82 l 1
 466 647 l 1
 56 647 l 1
 56 729 l 1
 581 729 l 1
EndSplineSet
Ligature: 0 0 'liga' Z uni0307
EndChar
StartChar: Amacron
Encoding: 308 256 202
Width: 667
Flags: W
HStem: 0 21G<17 116 549 653> 219 78<216 474> 709 20G<277 397> 829 70<198 472>
DStem: 277 729 336 629 17 0 216 297 277 729 193 219 17 0 116 0 474 219 397 729 549 0 653 0
Fore
472 899 m 1
 472 829 l 1
 198 829 l 1
 198 899 l 1
 472 899 l 1
474 219 m 1
 193 219 l 1
 116 0 l 1
 17 0 l 1
 277 729 l 1
 397 729 l 1
 653 0 l 1
 549 0 l 1
 474 219 l 1
448 297 m 1
 336 629 l 1
 216 297 l 1
 448 297 l 1
EndSplineSet
Ligature: 0 0 'liga' A uni0304
EndChar
StartChar: Tcommaaccent
Encoding: 309 354 203
Width: 611
Flags: W
HStem: -284 38<260 271.254 260 322> 0 21G<261 354> 647 82<21 261 21 593>
VStem: 260 100<-161 -60>
Fore
260 -60 m 1
 360 -60 l 1
 360 -163 l 2
 360 -238 322 -285 260 -284 c 1
 260 -246 l 1
 298 -246 317 -215 315 -160 c 1
 260 -160 l 1
 260 -60 l 1
354 647 m 1
 354 0 l 1
 261 0 l 1
 261 647 l 1
 21 647 l 1
 21 729 l 1
 593 729 l 1
 593 647 l 1
 354 647 l 1
EndSplineSet
Ligature: 0 0 'liga' T uni0327
EndChar
StartChar: Ydieresis
Encoding: 310 376 204
Width: 667
Flags: W
HStem: 0 21G<294 387> 709 20G<13 128 550 661> 811 103<208 312 370 474>
VStem: 294 93<0 286>
Fore
312 914 m 1
 312 811 l 1
 208 811 l 1
 208 914 l 1
 312 914 l 1
474 914 m 1
 474 811 l 1
 370 811 l 1
 370 914 l 1
 474 914 l 1
387 286 m 1
 387 0 l 1
 294 0 l 1
 294 286 l 1
 13 729 l 1
 128 729 l 1
 342 374 l 1
 550 729 l 1
 661 729 l 1
 387 286 l 1
EndSplineSet
Ligature: 0 0 'liga' Y uni0308
EndChar
StartChar: Emacron
Encoding: 311 274 205
Width: 667
Flags: W
HStem: 0 82<183 613> 332 82<183 580> 647 82<90 595> 830 70<208 482>
VStem: 90 93<0 332 0 647>
Fore
482 900 m 1
 482 830 l 1
 208 830 l 1
 208 900 l 1
 482 900 l 1
183 332 m 1
 183 82 l 1
 613 82 l 1
 613 0 l 1
 90 0 l 1
 90 729 l 1
 595 729 l 1
 595 647 l 1
 183 647 l 1
 183 414 l 1
 580 414 l 1
 580 332 l 1
 183 332 l 1
EndSplineSet
Ligature: 0 0 'liga' E uni0304
EndChar
StartChar: Imacron
Encoding: 312 298 206
Width: 278
Flags: W
HStem: 0 21G<100 194> 709 20G<100 194> 830 70<20 274>
VStem: 100 94<0 729>
Fore
274 900 m 1
 274 830 l 1
 20 830 l 1
 20 900 l 1
 274 900 l 1
194 729 m 1
 194 0 l 1
 100 0 l 1
 100 729 l 1
 194 729 l 1
EndSplineSet
Ligature: 0 0 'liga' I uni0304
EndChar
StartChar: Iogonek
Encoding: 313 302 207
Width: 278
Flags: W
HStem: -204 45<175 191> -20 20G<100 143> 709 20G<100 194>
VStem: 100 94<-1 729>
Fore
194 729 m 1
 194 0 l 1
 158 -33 138 -71 138 -107 c 0
 138 -138 158 -159 189 -159 c 0
 203 -159 216 -156 234 -150 c 1
 234 -195 l 1
 216 -200 193 -204 175 -204 c 0
 110 -204 66 -169 66 -116 c 0
 66 -72 86 -41 143 0 c 1
 100 0 l 1
 100 729 l 1
 194 729 l 1
EndSplineSet
Ligature: 0 0 'liga' I uni0328
EndChar
StartChar: Kcommaaccent
Encoding: 314 310 208
Width: 667
Flags: W
HStem: -284 38<299 310.254 299 361> 0 21G<79 172 548 658> 709 20G<79 172 535 655>
VStem: 79 93<0 255 0 729> 299 100<-161 -60>
DStem: 291 374 358 432 548 0 658 0 535 729 655 729 172 360 358 432 535 729 291 374 172 360 172 255
Fore
299 -60 m 1
 399 -60 l 1
 399 -163 l 2
 399 -238 361 -285 299 -284 c 1
 299 -246 l 1
 337 -246 356 -215 354 -160 c 1
 299 -160 l 1
 299 -60 l 1
172 255 m 1
 172 0 l 1
 79 0 l 1
 79 729 l 1
 172 729 l 1
 172 360 l 1
 535 729 l 1
 655 729 l 1
 358 432 l 1
 658 0 l 1
 548 0 l 1
 291 374 l 1
 172 255 l 1
EndSplineSet
Ligature: 0 0 'liga' K uni0327
EndChar
StartChar: Lcommaaccent
Encoding: 315 315 209
Width: 556
Flags: W
HStem: -284 38<257 268.254 257 319> 0 82<172 533> 709 20G<80 173>
VStem: 80 93<0 729> 257 100<-161 -60>
Fore
257 -60 m 1
 357 -60 l 1
 357 -163 l 2
 357 -238 319 -285 257 -284 c 1
 257 -246 l 1
 295 -246 314 -215 312 -160 c 1
 257 -160 l 1
 257 -60 l 1
173 729 m 1
 173 82 l 1
 533 82 l 1
 533 0 l 1
 80 0 l 1
 80 729 l 1
 173 729 l 1
EndSplineSet
Ligature: 0 0 'liga' L uni0327
EndChar
StartChar: Ncommaaccent
Encoding: 316 325 210
Width: 722
Flags: W
HStem: -284 38<298 309.254 298 360> 0 21G<76 164 541 646> 709 20G<76 177 558 646>
VStem: 76 88<0 591> 298 100<-161 -60> 558 88<133 729>
DStem: 164 591 177 729 541 0 558 133
Fore
298 -60 m 1
 398 -60 l 1
 398 -163 l 2
 398 -238 360 -285 298 -284 c 1
 298 -246 l 1
 336 -246 355 -215 353 -160 c 1
 298 -160 l 1
 298 -60 l 1
646 729 m 1
 646 0 l 1
 541 0 l 1
 164 591 l 1
 164 0 l 1
 76 0 l 1
 76 729 l 1
 177 729 l 1
 558 133 l 1
 558 729 l 1
 646 729 l 1
EndSplineSet
Ligature: 0 0 'liga' N uni0327
EndChar
StartChar: Omacron
Encoding: 317 332 211
Width: 778
Flags: W
HStem: -23 82<390 407> 659 82<389 407> 830 70<253 527>
VStem: 38 93<359 378> 649 93<328 378>
Fore
527 900 m 1
 527 830 l 1
 253 830 l 1
 253 900 l 1
 527 900 l 1
389 741 m 0
 603 741 742 588 742 353 c 0
 742 234 695 121 616 54 c 0
 557 4 478 -23 390 -23 c 0
 180 -23 38 131 38 359 c 0
 38 587 180 741 389 741 c 0
389 659 m 0
 235 659 131 539 131 359 c 0
 131 179 235 59 390 59 c 0
 544 59 649 179 649 355 c 0
 649 539 547 659 389 659 c 0
EndSplineSet
Ligature: 0 0 'liga' O uni0304
EndChar
StartChar: Rcommaaccent
Encoding: 318 342 212
Width: 722
Flags: W
HStem: -284 38<319 330.254 319 381> 0 21G<93 186 566 679> 314 82<186 432> 647 82<93 432>
VStem: 93 93<0 314 0 647> 319 100<-161 -60> 545 90<119 197> 554 97<515 536>
Fore
319 -60 m 1xfc
 419 -60 l 1
 419 -163 l 2
 419 -238 381 -285 319 -284 c 1
 319 -246 l 1
 357 -246 376 -215 374 -160 c 1
 319 -160 l 1
 319 -60 l 1xfc
186 314 m 1
 186 0 l 1
 93 0 l 1
 93 729 l 1
 429 729 l 2
 572 729 651 660 651 534 c 0xfd
 651 451 618 400 536 360 c 1
 615 326 634 290 635 170 c 0
 637 73 644 47 679 23 c 1
 679 0 l 1
 566 0 l 1
 553 30 545 74 545 119 c 1xfe
 546 184 l 1
 546 274 509 314 426 314 c 2
 186 314 l 1
186 396 m 1
 411 396 l 2
 510 396 554 435 554 521 c 0
 554 565 541 598 516 619 c 0
 493 639 463 647 411 647 c 2
 186 647 l 1
 186 396 l 1
EndSplineSet
Ligature: 0 0 'liga' R uni0327
EndChar
StartChar: Gcommaaccent
Encoding: 319 290 213
Width: 778
Flags: W
HStem: -284 38<337 348.254 337 399> -23 82<376 405> 303 82<405 627> 659 82<376 413>
VStem: 44 93<339 389> 337 100<-161 -60> 627 82<275 385>
Fore
337 -60 m 1
 437 -60 l 1
 437 -163 l 2
 437 -238 399 -285 337 -284 c 1
 337 -246 l 1
 375 -246 394 -215 392 -160 c 1
 337 -160 l 1
 337 -60 l 1
709 385 m 1
 709 -4 l 1
 650 -4 l 1
 627 93 l 1
 556 14 477 -23 378 -23 c 0
 181 -23 44 133 44 357 c 0
 44 488 92 601 176 671 c 0
 233 718 305 741 394 741 c 0
 561 741 673 656 699 508 c 1
 604 508 l 1
 584 602 504 659 393 659 c 0
 239 659 137 541 137 362 c 0
 137 272 166 185 214 133 c 0
 257 86 324 59 398 59 c 0
 531 59 627 153 627 283 c 2
 627 303 l 1
 405 303 l 1
 405 385 l 1
 709 385 l 1
EndSplineSet
Ligature: 0 0 'liga' G uni0327
EndChar
StartChar: Umacron
Encoding: 320 362 214
Width: 722
Flags: W
HStem: -23 82<364 390> 709 20G<85 178 552 645> 830 70<228 502>
VStem: 85 93<217 729> 552 93<217 729>
Fore
502 900 m 1
 502 830 l 1
 228 830 l 1
 228 900 l 1
 502 900 l 1
552 729 m 1
 645 729 l 1
 645 217 l 2
 645 71 535 -23 364 -23 c 0
 191 -23 85 69 85 217 c 2
 85 729 l 1
 178 729 l 1
 178 217 l 2
 178 162 195 125 231 97 c 1
 266 72 310 59 364 59 c 0
 481 59 552 119 552 217 c 2
 552 729 l 1
EndSplineSet
Ligature: 0 0 'liga' U uni0304
EndChar
StartChar: Uogonek
Encoding: 321 370 215
Width: 722
Flags: W
HStem: -205 45<525 541> -23 82<340 390> 709 20G<85 178 552 645>
VStem: 85 93<217 729> 394 73<-114 -104> 552 93<217 729>
Fore
602 -150 m 1
 602 -195 l 1
 578 -200 545 -205 527 -205 c 0
 505 -205 480 -200 457 -192 c 0
 415 -176 394 -150 394 -112 c 0
 394 -71 415 -42 467 -10 c 1
 423 -20 402 -23 366 -23 c 0
 192 -23 85 68 85 217 c 2
 85 729 l 1
 178 729 l 1
 178 217 l 2
 178 162 195 125 231 97 c 1
 266 72 310 59 364 59 c 0
 481 59 552 119 552 217 c 2
 552 729 l 1
 645 729 l 1
 645 217 l 2
 645 160 628 110 595 66 c 0
 580 46 577 43 532 0 c 0
 489 -41 467 -76 467 -106 c 0
 467 -141 492 -160 539 -160 c 0
 563 -160 584 -157 602 -150 c 1
EndSplineSet
Ligature: 0 0 'liga' U uni0328
EndChar
StartChar: adieresis
Encoding: 322 228 216
Width: 556
Flags: W
HStem: -23 70<478 517> 462 77<249 283> 612 103<140 244 302 406>
VStem: 42 87<120 138> 389 83<152 396>
Fore
244 715 m 1
 244 612 l 1
 140 612 l 1
 140 715 l 1
 244 715 l 1
406 715 m 1
 406 612 l 1
 302 612 l 1
 302 715 l 1
 406 715 l 1
535 49 m 1
 535 -14 l 1
 508 -21 495 -23 478 -23 c 0
 424 -23 398 1 392 54 c 1
 333 0 280 -23 214 -23 c 0
 108 -23 42 37 42 132 c 0
 42 200 73 247 134 272 c 0
 166 285 184 289 302 304 c 0
 368 312 389 327 389 362 c 2
 389 384 l 2
 389 434 347 462 272 462 c 0
 194 462 156 433 149 369 c 1
 65 369 l 1
 67 421 77 451 101 478 c 0
 136 517 199 539 275 539 c 0
 404 539 472 489 472 396 c 2
 472 88 l 2
 472 62 488 47 517 47 c 0
 522 47 526 47 535 49 c 1
389 165 m 2
 389 259 l 1
 361 246 343 242 255 230 c 0
 166 217 129 189 129 134 c 0
 129 81 167 50 232 50 c 0
 281 50 322 66 356 97 c 0
 381 120 389 137 389 165 c 2
EndSplineSet
KernsSLIF: 118 -21 0 0 119 -13 0 0 121 -26 0 0
Ligature: 0 0 'liga' a uni0308
EndChar
StartChar: aacute
Encoding: 323 225 217
Width: 556
Flags: W
HStem: -23 70<478 517> 462 77<249 283> 720 20G<303 416>
VStem: 42 87<120 138> 389 83<152 396>
Fore
303 740 m 1
 416 740 l 1
 267 592 l 1
 207 592 l 1
 303 740 l 1
535 49 m 1
 535 -14 l 1
 508 -21 495 -23 478 -23 c 0
 424 -23 398 1 392 54 c 1
 333 0 280 -23 214 -23 c 0
 108 -23 42 37 42 132 c 0
 42 200 73 247 134 272 c 0
 166 285 184 289 302 304 c 0
 368 312 389 327 389 362 c 2
 389 384 l 2
 389 434 347 462 272 462 c 0
 194 462 156 433 149 369 c 1
 65 369 l 1
 67 421 77 451 101 478 c 0
 136 517 199 539 275 539 c 0
 404 539 472 489 472 396 c 2
 472 88 l 2
 472 62 488 47 517 47 c 0
 522 47 526 47 535 49 c 1
389 165 m 2
 389 259 l 1
 361 246 343 242 255 230 c 0
 166 217 129 189 129 134 c 0
 129 81 167 50 232 50 c 0
 281 50 322 66 356 97 c 0
 381 120 389 137 389 165 c 2
EndSplineSet
KernsSLIF: 118 -21 0 0 119 -13 0 0 121 -26 0 0
Ligature: 0 0 'liga' a acutecomb
EndChar
StartChar: agrave
Encoding: 324 224 218
Width: 556
Flags: W
HStem: -23 70<478 517> 462 77<248 288> 720 20G<137 250>
VStem: 42 87<120 138> 389 83<152 396>
Fore
250 740 m 1
 346 592 l 1
 286 592 l 1
 137 740 l 1
 250 740 l 1
535 49 m 1
 535 -14 l 1
 508 -21 495 -23 478 -23 c 0
 424 -23 398 1 392 54 c 1
 333 0 280 -23 214 -23 c 0
 108 -23 42 37 42 132 c 0
 42 200 73 247 134 272 c 0
 166 285 184 289 302 304 c 0
 368 312 389 327 389 362 c 2
 389 384 l 2
 389 434 347 462 272 462 c 0
 194 462 156 433 149 369 c 1
 65 369 l 1
 67 421 77 451 101 478 c 0
 136 517 199 539 275 539 c 0
 404 539 472 489 472 396 c 2
 472 88 l 2
 472 62 488 47 517 47 c 0
 522 47 526 47 535 49 c 1
389 165 m 2
 389 259 l 1
 361 246 343 242 255 230 c 0
 166 217 129 189 129 134 c 0
 129 81 167 50 232 50 c 0
 281 50 322 66 356 97 c 0
 381 120 389 137 389 165 c 2
EndSplineSet
KernsSLIF: 118 -21 0 0 119 -13 0 0 121 -26 0 0
Ligature: 0 0 'liga' a gravecomb
EndChar
StartChar: acircumflex
Encoding: 325 226 219
Width: 556
Flags: W
HStem: -23 70<478 517> 462 77<249 283> 721 20G<228 323>
VStem: 42 87<120 138> 389 83<152 396>
Fore
228 741 m 1
 323 741 l 1
 419 591 l 1
 356 591 l 1
 275 687 l 1
 196 591 l 1
 132 591 l 1
 228 741 l 1
535 49 m 1
 535 -14 l 1
 508 -21 495 -23 478 -23 c 0
 424 -23 398 1 392 54 c 1
 333 0 280 -23 214 -23 c 0
 108 -23 42 37 42 132 c 0
 42 200 73 247 134 272 c 0
 166 285 184 289 302 304 c 0
 368 312 389 327 389 362 c 2
 389 384 l 2
 389 434 347 462 272 462 c 0
 194 462 156 433 149 369 c 1
 65 369 l 1
 67 421 77 451 101 478 c 0
 136 517 199 539 275 539 c 0
 404 539 472 489 472 396 c 2
 472 88 l 2
 472 62 488 47 517 47 c 0
 522 47 526 47 535 49 c 1
389 165 m 2
 389 259 l 1
 361 246 343 242 255 230 c 0
 166 217 129 189 129 134 c 0
 129 81 167 50 232 50 c 0
 281 50 322 66 356 97 c 0
 381 120 389 137 389 165 c 2
EndSplineSet
Ligature: 0 0 'liga' a uni0302
EndChar
StartChar: abreve
Encoding: 326 259 220
Width: 556
Flags: W
HStem: -23 70<478 517> 462 77<249 283> 597 69<256 283> 712 20G<125 184 367 426>
VStem: 42 87<120 138> 389 83<152 396>
Fore
125 732 m 1
 184 732 l 1
 189 688 219 666 276 666 c 0
 330 666 363 690 367 732 c 1
 426 732 l 1
 419 643 367 597 274 597 c 0
 218 597 173 617 146 654 c 0
 132 674 126 693 125 732 c 1
535 49 m 1
 535 -14 l 1
 508 -21 495 -23 478 -23 c 0
 424 -23 398 1 392 54 c 1
 333 0 280 -23 214 -23 c 0
 108 -23 42 37 42 132 c 0
 42 200 73 247 134 272 c 0
 166 285 184 289 302 304 c 0
 368 312 389 327 389 362 c 2
 389 384 l 2
 389 434 347 462 272 462 c 0
 194 462 156 433 149 369 c 1
 65 369 l 1
 67 421 77 451 101 478 c 0
 136 517 199 539 275 539 c 0
 404 539 472 489 472 396 c 2
 472 88 l 2
 472 62 488 47 517 47 c 0
 522 47 526 47 535 49 c 1
389 165 m 2
 389 259 l 1
 361 246 343 242 255 230 c 0
 166 217 129 189 129 134 c 0
 129 81 167 50 232 50 c 0
 281 50 322 66 356 97 c 0
 381 120 389 137 389 165 c 2
EndSplineSet
Ligature: 0 0 'liga' a uni0306
EndChar
StartChar: atilde
Encoding: 327 227 221
Width: 556
Flags: W
HStem: -23 70<478 517> 462 77<249 283> 613 67<329 345> 651 66<202 219>
VStem: 42 87<120 138> 389 83<152 396>
Fore
374 717 m 1xdc
 432 717 l 1xdc
 422 648 392 613 343 613 c 0xec
 324 613 312 617 258 638 c 0
 234 647 220 651 209 651 c 0
 194 651 182 637 176 614 c 1
 118 614 l 1
 129 680 160 717 204 717 c 0xdc
 225 717 232 715 274 698 c 0
 298 687 325 680 337 680 c 0xec
 355 680 366 692 374 717 c 1xdc
535 49 m 1
 535 -14 l 1
 508 -21 495 -23 478 -23 c 0
 424 -23 398 1 392 54 c 1
 333 0 280 -23 214 -23 c 0
 108 -23 42 37 42 132 c 0
 42 200 73 247 134 272 c 0
 166 285 184 289 302 304 c 0
 368 312 389 327 389 362 c 2
 389 384 l 2
 389 434 347 462 272 462 c 0
 194 462 156 433 149 369 c 1
 65 369 l 1
 67 421 77 451 101 478 c 0
 136 517 199 539 275 539 c 0
 404 539 472 489 472 396 c 2
 472 88 l 2
 472 62 488 47 517 47 c 0
 522 47 526 47 535 49 c 1
389 165 m 2
 389 259 l 1
 361 246 343 242 255 230 c 0
 166 217 129 189 129 134 c 0
 129 81 167 50 232 50 c 0
 281 50 322 66 356 97 c 0
 381 120 389 137 389 165 c 2
EndSplineSet
Ligature: 0 0 'liga' a tildecomb
EndChar
StartChar: aring
Encoding: 328 229 222
Width: 556
Flags: W
HStem: -23 70<478 517> 462 77<249 283> 579 44<276 283> 710 44<276 283>
VStem: 42 87<120 138> 188 44<667 669> 320 44<666 670> 389 83<152 396>
Fore
276 754 m 0
 325 754 364 715 364 666 c 0
 364 618 324 579 276 579 c 0
 228 579 188 619 188 667 c 0
 188 714 228 754 276 754 c 0
276 710 m 0
 252 710 232 690 232 667 c 0
 232 643 252 623 276 623 c 0
 300 623 320 643 320 666 c 0
 320 691 301 710 276 710 c 0
535 49 m 1
 535 -14 l 1
 508 -21 495 -23 478 -23 c 0
 424 -23 398 1 392 54 c 1
 333 0 280 -23 214 -23 c 0
 108 -23 42 37 42 132 c 0
 42 200 73 247 134 272 c 0
 166 285 184 289 302 304 c 0
 368 312 389 327 389 362 c 2
 389 384 l 2
 389 434 347 462 272 462 c 0
 194 462 156 433 149 369 c 1
 65 369 l 1
 67 421 77 451 101 478 c 0
 136 517 199 539 275 539 c 0
 404 539 472 489 472 396 c 2
 472 88 l 2
 472 62 488 47 517 47 c 0
 522 47 526 47 535 49 c 1
389 165 m 2
 389 259 l 1
 361 246 343 242 255 230 c 0
 166 217 129 189 129 134 c 0
 129 81 167 50 232 50 c 0
 281 50 322 66 356 97 c 0
 381 120 389 137 389 165 c 2
EndSplineSet
KernsSLIF: 118 -21 0 0 119 -13 0 0 121 -26 0 0
Ligature: 0 0 'liga' a uni030A
EndChar
StartChar: aogonek
Encoding: 329 261 223
Width: 556
Flags: W
HStem: -205 45<516 540> -23 73<213 236> 462 77<250 284>
VStem: 43 86<130 148> 389 84<149.532 259 354 398>
Fore
536 49 m 1
 536 -14 l 1
 488 -33 460 -66 460 -105 c 0
 460 -141 485 -160 532 -160 c 0
 557 -160 578 -157 596 -150 c 1
 596 -195 l 1
 571 -201 541 -205 525 -205 c 0
 505 -205 474 -199 451 -192 c 0
 411 -179 388 -150 388 -112 c 0
 388 -74 406 -50 456 -23 c 1
 418 -16 397 10 393 54 c 1
 337 1 281 -23 215 -23 c 0
 109 -23 43 37 43 132 c 0
 43 200 74 246 136 272 c 0
 167 285 185 289 304 304 c 0
 369 312 390 326 390 362 c 2
 390 384 l 2
 390 435 349 462 273 462 c 0
 195 462 157 433 151 369 c 1
 67 369 l 1
 69 421 79 451 102 478 c 1
 138 517 200 539 276 539 c 0
 405 539 473 489 473 396 c 2
 473 88 l 2
 473 62 489 47 518 47 c 0
 523 47 527 47 536 49 c 1
389 165 m 2
 389 259 l 1
 361 246 343 242 255 230 c 0
 166 217 129 189 129 134 c 0
 129 81 167 50 232 50 c 0
 281 50 322 66 356 97 c 0
 381 120 389 137 389 165 c 2
EndSplineSet
Ligature: 0 0 'liga' a uni0328
EndChar
StartChar: cacute
Encoding: 330 263 224
Width: 500
Flags: W
HStem: -23 77<254 272> 462 77<254 272> 720 20G<298 411>
VStem: 31 87<253 282>
Fore
298 740 m 1
 411 740 l 1
 262 592 l 1
 202 592 l 1
 298 740 l 1
471 348 m 1
 387 348 l 1
 377 421 333 462 263 462 c 0
 172 462 118 384 118 253 c 0
 118 129 173 54 265 54 c 0
 336 54 379 96 393 180 c 1
 477 180 l 1
 467 52 388 -23 263 -23 c 0
 121 -23 31 84 31 253 c 0
 31 427 123 539 264 539 c 0
 337 539 400 510 436 461 c 0
 456 432 467 399 471 348 c 1
EndSplineSet
Ligature: 0 0 'liga' c acutecomb
EndChar
StartChar: ccaron
Encoding: 331 269 225
Width: 500
Flags: W
HStem: -23 77<254 272> 462 77<254 272> 721 20G<122 185 345 409>
VStem: 31 87<253 282>
Fore
313 591 m 1
 218 591 l 1
 122 741 l 1
 185 741 l 1
 266 645 l 1
 345 741 l 1
 409 741 l 1
 313 591 l 1
471 348 m 1
 387 348 l 1
 377 421 333 462 263 462 c 0
 172 462 118 384 118 253 c 0
 118 129 173 54 265 54 c 0
 336 54 379 96 393 180 c 1
 477 180 l 1
 467 52 388 -23 263 -23 c 0
 121 -23 31 84 31 253 c 0
 31 427 123 539 264 539 c 0
 337 539 400 510 436 461 c 0
 456 432 467 399 471 348 c 1
EndSplineSet
Ligature: 0 0 'liga' c uni030C
EndChar
StartChar: ccedilla
Encoding: 332 231 226
Width: 500
Flags: W
HStem: -214 41<222 239> -23 76<264 283> 462 77<249 281>
VStem: 31 87<233 283> 283 75<-135 -119>
Fore
264 -23 m 1
 251 -56 l 1
 265 -54 271 -54 279 -54 c 0
 329 -54 358 -79 358 -121 c 0
 358 -178 311 -214 235 -214 c 0
 196 -214 174 -208 110 -181 c 1
 131 -140 l 1
 140 -144 l 2
 184 -167 204 -173 229 -173 c 0
 260 -173 283 -154 283 -128 c 0
 283 -105 266 -91 237 -91 c 0
 225 -91 218 -93 206 -99 c 1
 194 -92 l 1
 225 -21 l 1
 182 -13 159 -4 132 16 c 0
 67 62 31 148 31 253 c 0
 31 427 123 539 264 539 c 0
 337 539 400 510 436 461 c 0
 456 432 467 399 471 348 c 1
 387 348 l 1
 377 421 333 462 263 462 c 0
 172 462 118 384 118 252 c 0
 118 128 173 53 265 53 c 0
 336 53 379 96 393 180 c 1
 477 180 l 1
 470 55 387 -23 264 -23 c 1
EndSplineSet
Ligature: 0 0 'liga' c uni0327
EndChar
StartChar: dcaron
Encoding: 333 271 227
Width: 663
Flags: W
HStem: -23 78<249 268> 461 78<249 269> 505 38<548 559.254 548 610> 709 20G<412 495 548 648>
VStem: 26 87<232 282> 421 74<0 729> 548 100<628 729>
Fore
548 729 m 1xbe
 648 729 l 1
 648 626 l 2
 648 551 610 504 548 505 c 1
 548 543 l 1
 586 543 605 574 603 629 c 1
 548 629 l 1
 548 729 l 1xbe
495 729 m 1
 495 0 l 1
 421 0 l 1
 421 69 l 1
 376 4 326 -23 254 -23 c 0
 113 -23 26 86 26 263 c 0
 26 430 115 539 251 539 c 0xde
 321 539 377 511 412 458 c 1
 412 729 l 1
 495 729 l 1
265 461 m 0
 174 461 113 380 113 258 c 0
 113 136 174 55 266 55 c 0
 354 55 412 135 412 256 c 0
 412 381 355 461 265 461 c 0
EndSplineSet
Ligature: 0 0 'liga' d uni030C
EndChar
StartChar: edieresis
Encoding: 334 235 228
Width: 556
Flags: W
HStem: -23 77<263 297> 234 68<129 513> 462 77<263 297> 613 103<153 257 315 419>
VStem: 40 87<232 255> 424 89<234 308>
Fore
257 716 m 1
 257 613 l 1
 153 613 l 1
 153 716 l 1
 257 716 l 1
419 716 m 1
 419 613 l 1
 315 613 l 1
 315 716 l 1
 419 716 l 1
513 234 m 1
 127 234 l 1
 128 182 135 152 155 122 c 0
 183 78 228 54 281 54 c 0
 348 54 395 90 418 159 c 1
 502 159 l 1
 481 45 398 -23 278 -23 c 0
 131 -23 40 83 40 255 c 0
 40 427 134 539 280 539 c 0
 378 539 458 487 492 401 c 0
 507 362 513 314 513 234 c 1
129 302 m 1
 423 302 l 1
 424 304 424 306 424 308 c 0
 424 394 361 462 279 462 c 0
 195 462 136 399 129 302 c 1
EndSplineSet
Ligature: 0 0 'liga' e uni0308
EndChar
StartChar: eacute
Encoding: 335 233 229
Width: 556
Flags: W
HStem: -23 77<263 297> 234 68<129 513> 462 77<263 297> 719 20G<308 421>
VStem: 40 87<232 255> 424 89<234 308>
Fore
308 739 m 1
 421 739 l 1
 272 591 l 1
 212 591 l 1
 308 739 l 1
513 234 m 1
 127 234 l 1
 128 182 135 152 155 122 c 0
 183 78 228 54 281 54 c 0
 348 54 395 90 418 159 c 1
 502 159 l 1
 481 45 398 -23 278 -23 c 0
 131 -23 40 83 40 255 c 0
 40 427 134 539 280 539 c 0
 378 539 458 487 492 401 c 0
 507 362 513 314 513 234 c 1
129 302 m 1
 423 302 l 1
 424 304 424 306 424 308 c 0
 424 394 361 462 279 462 c 0
 195 462 136 399 129 302 c 1
EndSplineSet
KernsSLIF: 118 -15 0 0 119 -9 0 0 121 -19 0 0
Ligature: 0 0 'liga' e acutecomb
EndChar
StartChar: egrave
Encoding: 336 232 230
Width: 556
Flags: W
HStem: -23 77<263 297> 234 68<129 513> 462 77<263 297> 720 20G<138 251>
VStem: 40 87<232 255> 424 89<234 308>
Fore
251 740 m 1
 347 592 l 1
 287 592 l 1
 138 740 l 1
 251 740 l 1
513 234 m 1
 127 234 l 1
 128 182 135 152 155 122 c 0
 183 78 228 54 281 54 c 0
 348 54 395 90 418 159 c 1
 502 159 l 1
 481 45 398 -23 278 -23 c 0
 131 -23 40 83 40 255 c 0
 40 427 134 539 280 539 c 0
 378 539 458 487 492 401 c 0
 507 362 513 314 513 234 c 1
129 302 m 1
 423 302 l 1
 424 304 424 306 424 308 c 0
 424 394 361 462 279 462 c 0
 195 462 136 399 129 302 c 1
EndSplineSet
Ligature: 0 0 'liga' e gravecomb
EndChar
StartChar: ecircumflex
Encoding: 337 234 231
Width: 556
Flags: W
HStem: -23 77<263 297> 234 68<129 513> 462 77<263 297> 721 20G<240 335>
VStem: 40 87<232 255> 424 89<234 308>
Fore
240 741 m 1
 335 741 l 1
 431 591 l 1
 368 591 l 1
 287 687 l 1
 208 591 l 1
 144 591 l 1
 240 741 l 1
513 234 m 1
 127 234 l 1
 128 182 135 152 155 122 c 0
 183 78 228 54 281 54 c 0
 348 54 395 90 418 159 c 1
 502 159 l 1
 481 45 398 -23 278 -23 c 0
 131 -23 40 83 40 255 c 0
 40 427 134 539 280 539 c 0
 378 539 458 487 492 401 c 0
 507 362 513 314 513 234 c 1
129 302 m 1
 423 302 l 1
 424 304 424 306 424 308 c 0
 424 394 361 462 279 462 c 0
 195 462 136 399 129 302 c 1
EndSplineSet
KernsSLIF: 118 -15 0 0 119 -9 0 0 121 -19 0 0
Ligature: 0 0 'liga' e uni0302
EndChar
StartChar: ecaron
Encoding: 338 283 232
Width: 556
Flags: W
HStem: -23 77<263 297> 234 68<129 513> 462 77<263 297> 721 20G<144 207 367 431>
VStem: 40 87<232 255> 424 89<234 308>
Fore
335 591 m 1
 240 591 l 1
 144 741 l 1
 207 741 l 1
 288 645 l 1
 367 741 l 1
 431 741 l 1
 335 591 l 1
513 234 m 1
 127 234 l 1
 128 182 135 152 155 122 c 0
 183 78 228 54 281 54 c 0
 348 54 395 90 418 159 c 1
 502 159 l 1
 481 45 398 -23 278 -23 c 0
 131 -23 40 83 40 255 c 0
 40 427 134 539 280 539 c 0
 378 539 458 487 492 401 c 0
 507 362 513 314 513 234 c 1
129 302 m 1
 423 302 l 1
 424 304 424 306 424 308 c 0
 424 394 361 462 279 462 c 0
 195 462 136 399 129 302 c 1
EndSplineSet
Ligature: 0 0 'liga' e uni030C
EndChar
StartChar: edotaccent
Encoding: 339 279 233
Width: 556
Flags: W
HStem: -23 77<263 297> 234 68<129 513> 462 77<263 297> 612 104<231 335>
VStem: 40 87<232 255> 231 104<612 716> 424 89<234 308>
Fore
335 716 m 1
 335 612 l 1
 231 612 l 1
 231 716 l 1
 335 716 l 1
513 234 m 1
 127 234 l 1
 128 182 135 152 155 122 c 0
 183 78 228 54 281 54 c 0
 348 54 395 90 418 159 c 1
 502 159 l 1
 481 45 398 -23 278 -23 c 0
 131 -23 40 83 40 255 c 0
 40 427 134 539 280 539 c 0
 378 539 458 487 492 401 c 0
 507 362 513 314 513 234 c 1
129 302 m 1
 423 302 l 1
 424 304 424 306 424 308 c 0
 424 394 361 462 279 462 c 0
 195 462 136 399 129 302 c 1
EndSplineSet
Ligature: 0 0 'liga' e uni0307
EndChar
StartChar: eogonek
Encoding: 340 281 234
Width: 556
Flags: W
HStem: -204 44<407 427> -23 77<263 297> 234 68<130 513> 462 77<263 297>
VStem: 40 87<227 254> 279 72<-118 -107> 424 89<234 308>
Fore
513 234 m 1
 127 234 l 1
 128 182 136 152 155 122 c 0
 184 78 229 54 281 54 c 0
 348 54 395 90 419 159 c 1
 503 159 l 1
 493 104 468 61 422 15 c 0
 368 -41 351 -71 351 -109 c 0
 351 -141 378 -160 423 -160 c 0
 448 -160 469 -157 487 -150 c 1
 487 -195 l 1
 460 -201 440 -204 418 -204 c 0
 334 -204 279 -169 279 -116 c 0
 279 -93 290 -67 307 -48 c 0
 314 -41 321 -35 347 -15 c 1
 317 -21 302 -23 279 -23 c 0
 130 -23 40 81 40 254 c 0
 40 427 134 539 280 539 c 0
 378 539 459 487 492 401 c 0
 507 363 514 314 513 234 c 1
424 302 m 1
 424 308 l 2
 424 394 361 462 279 462 c 0
 195 462 136 399 130 302 c 1
 424 302 l 1
EndSplineSet
Ligature: 0 0 'liga' e uni0328
EndChar
StartChar: gbreve
Encoding: 341 287 235
Width: 556
Flags: W
HStem: -218 70<243 270> -23 77<244 264> 462 77<243 270> 597 69<263 302> 712 20G<132 191 374 433>
VStem: 29 87<229 279> 404 85<37 86 229 524>
Fore
132 732 m 1
 191 732 l 1
 196 688 226 666 283 666 c 0
 337 666 370 690 374 732 c 1
 433 732 l 1
 426 643 374 597 281 597 c 0
 225 597 180 617 153 654 c 0
 139 674 133 693 132 732 c 1
412 524 m 1
 489 524 l 1
 489 86 l 2
 489 -37 474 -103 434 -151 c 0
 400 -193 333 -218 255 -218 c 0
 132 -218 55 -159 46 -60 c 1
 131 -60 l 1
 136 -91 144 -105 163 -120 c 0
 186 -138 220 -148 258 -148 c 0
 309 -148 352 -130 374 -99 c 0
 395 -70 404 -27 404 44 c 2
 404 71 l 1
 357 5 311 -23 245 -23 c 0
 190 -23 134 3 95 47 c 0
 52 97 29 167 29 253 c 0
 29 423 119 539 252 539 c 0
 319 539 370 510 412 448 c 1
 412 524 l 1
261 462 m 0
 172 462 116 384 116 258 c 0
 116 131 171 54 262 54 c 0
 350 54 404 130 404 255 c 0
 404 386 351 462 261 462 c 0
EndSplineSet
Ligature: 0 0 'liga' g uni0306
EndChar
StartChar: idieresis
Encoding: 342 239 236
Width: 278
Flags: W
HStem: 0 21G<94 178> 504 20G<94 178> 605 103<3 107 165 269>
VStem: 94 84<0 524>
Fore
107 708 m 1
 107 605 l 1
 3 605 l 1
 3 708 l 1
 107 708 l 1
269 708 m 1
 269 605 l 1
 165 605 l 1
 165 708 l 1
 269 708 l 1
178 524 m 1
 178 0 l 1
 94 0 l 1
 94 524 l 1
 178 524 l 1
EndSplineSet
Ligature: 0 0 'liga' i uni0308
EndChar
StartChar: iacute
Encoding: 343 237 237
Width: 278
Flags: W
HStem: 0 21G<94 178> 504 20G<94 178> 719 20G<160 273>
VStem: 94 84<0 524>
Fore
160 739 m 1
 273 739 l 1
 124 591 l 1
 64 591 l 1
 160 739 l 1
178 524 m 1
 178 0 l 1
 94 0 l 1
 94 524 l 1
 178 524 l 1
EndSplineSet
Ligature: 0 0 'liga' i acutecomb
EndChar
StartChar: igrave
Encoding: 344 236 238
Width: 278
Flags: W
HStem: 0 21G<94 178> 504 20G<94 178> 720 20G<-6 107>
VStem: 94 84<0 524>
Fore
107 740 m 1
 203 592 l 1
 143 592 l 1
 -6 740 l 1
 107 740 l 1
178 524 m 1
 178 0 l 1
 94 0 l 1
 94 524 l 1
 178 524 l 1
EndSplineSet
Ligature: 0 0 'liga' i gravecomb
EndChar
StartChar: icircumflex
Encoding: 345 238 239
Width: 278
Flags: W
HStem: 0 21G<94 178> 504 20G<94 178> 721 20G<90 185>
VStem: 94 84<0 524>
Fore
90 741 m 1
 185 741 l 1
 281 591 l 1
 218 591 l 1
 137 687 l 1
 58 591 l 1
 -6 591 l 1
 90 741 l 1
178 524 m 1
 178 0 l 1
 94 0 l 1
 94 524 l 1
 178 524 l 1
EndSplineSet
Ligature: 0 0 'liga' i uni0302
EndChar
StartChar: lacute
Encoding: 346 314 240
Width: 222
Flags: W
HStem: 0 21G<68 152> 709 20G<68 152>
VStem: 68 84<0 729>
Fore
158 939 m 1
 271 939 l 1
 122 791 l 1
 62 791 l 1
 158 939 l 1
152 729 m 1
 152 0 l 1
 68 0 l 1
 68 729 l 1
 152 729 l 1
EndSplineSet
Ligature: 0 0 'liga' l acutecomb
EndChar
StartChar: lcaron
Encoding: 347 318 241
Width: 316
Flags: W
HStem: 0 21G<68 152> 505 38<205 216.254 205 267> 709 20G<68 152 205 305>
VStem: 68 84<0 729> 205 100<628 729>
Fore
205 729 m 1
 305 729 l 1
 305 626 l 2
 305 551 267 504 205 505 c 1
 205 543 l 1
 243 543 262 574 260 629 c 1
 205 629 l 1
 205 729 l 1
152 729 m 1
 152 0 l 1
 68 0 l 1
 68 729 l 1
 152 729 l 1
EndSplineSet
Ligature: 0 0 'liga' l uni030C
EndChar
StartChar: nacute
Encoding: 348 324 242
Width: 556
Flags: W
HStem: 0 21G<70 154 404 487> 466 73<296 321> 720 20G<310 423>
VStem: 70 77<0 524> 70 84<0 305> 404 83<0 396>
Fore
310 740 m 1xe4
 423 740 l 1
 274 592 l 1
 214 592 l 1
 310 740 l 1xe4
70 524 m 1xf4
 147 524 l 1
 147 436 l 1xf4
 193 509 243 539 321 539 c 0
 422 539 487 483 487 396 c 2
 487 0 l 1
 404 0 l 1
 404 363 l 2
 404 426 362 466 296 466 c 0
 210 466 154 396 154 289 c 2
 154 0 l 1xec
 70 0 l 1
 70 524 l 1xf4
EndSplineSet
Ligature: 0 0 'liga' n acutecomb
EndChar
StartChar: ncaron
Encoding: 349 328 243
Width: 556
Flags: W
HStem: 0 21G<70 154 404 487> 466 73<296 321> 721 20G<135 198 358 422>
VStem: 70 77<0 524> 70 84<0 305> 404 83<0 396>
Fore
326 591 m 1xe4
 231 591 l 1
 135 741 l 1
 198 741 l 1
 279 645 l 1
 358 741 l 1
 422 741 l 1
 326 591 l 1xe4
70 524 m 1xf4
 147 524 l 1
 147 436 l 1xf4
 193 509 243 539 321 539 c 0
 422 539 487 483 487 396 c 2
 487 0 l 1
 404 0 l 1
 404 363 l 2
 404 426 362 466 296 466 c 0
 210 466 154 396 154 289 c 2
 154 0 l 1xec
 70 0 l 1
 70 524 l 1xf4
EndSplineSet
Ligature: 0 0 'liga' n uni030C
EndChar
StartChar: ntilde
Encoding: 350 241 244
Width: 556
Flags: W
HStem: 0 21G<70 154 404 487> 466 73<296 321> 613 67<339 349> 651 66<206 215>
VStem: 70 77<0 524> 70 84<0 305> 404 83<0 396>
Fore
378 717 m 1xd2
 436 717 l 1xd2
 426 648 396 613 347 613 c 0xe2
 328 613 316 617 262 638 c 0
 238 647 224 651 213 651 c 0
 198 651 186 637 180 614 c 1
 122 614 l 1
 133 680 164 717 208 717 c 0xd2
 229 717 236 715 278 698 c 0
 302 687 329 680 341 680 c 0xe2
 359 680 370 692 378 717 c 1xd2
70 524 m 1xca
 147 524 l 1
 147 436 l 1xca
 193 509 243 539 321 539 c 0
 422 539 487 483 487 396 c 2
 487 0 l 1
 404 0 l 1
 404 363 l 2
 404 426 362 466 296 466 c 0
 210 466 154 396 154 289 c 2
 154 0 l 1xc6
 70 0 l 1
 70 524 l 1xca
EndSplineSet
Ligature: 0 0 'liga' n tildecomb
EndChar
StartChar: odieresis
Encoding: 351 246 245
Width: 556
Flags: W
HStem: -23 77<273 277> 462 77<259 277> 612 103<140 244 302 406>
VStem: 36 87<258 282> 423 87<232 282>
Fore
244 715 m 1
 244 612 l 1
 140 612 l 1
 140 715 l 1
 244 715 l 1
406 715 m 1
 406 612 l 1
 302 612 l 1
 302 715 l 1
 406 715 l 1
272 539 m 0
 423 539 510 435 510 254 c 0
 510 82 420 -23 273 -23 c 0
 124 -23 36 82 36 258 c 0
 36 434 125 539 272 539 c 0
273 462 m 0
 180 462 123 384 123 258 c 0
 123 131 180 54 273 54 c 0
 365 54 423 132 423 255 c 0
 423 385 367 462 273 462 c 0
EndSplineSet
KernsSLIF: 116 -10 0 0 118 -18 0 0 119 -10 0 0 120 -27 0 0 121 -22 0 0
Ligature: 0 0 'liga' o uni0308
EndChar
StartChar: oacute
Encoding: 352 243 246
Width: 556
Flags: W
HStem: -23 77<273 277> 462 77<259 277> 720 20G<298 411>
VStem: 36 87<258 282> 423 87<232 282>
Fore
298 740 m 1
 411 740 l 1
 262 592 l 1
 202 592 l 1
 298 740 l 1
272 539 m 0
 423 539 510 435 510 254 c 0
 510 82 420 -23 273 -23 c 0
 124 -23 36 82 36 258 c 0
 36 434 125 539 272 539 c 0
273 462 m 0
 180 462 123 384 123 258 c 0
 123 131 180 54 273 54 c 0
 365 54 423 132 423 255 c 0
 423 385 367 462 273 462 c 0
EndSplineSet
KernsSLIF: 118 -18 0 0 119 -10 0 0 121 -22 0 0
Ligature: 0 0 'liga' o acutecomb
EndChar
StartChar: ograve
Encoding: 353 242 247
Width: 556
Flags: W
HStem: -23 77<273 283> 462 77<259 283> 720 20G<132 245>
VStem: 36 87<258 282> 423 87<232 282>
Fore
245 740 m 1
 341 592 l 1
 281 592 l 1
 132 740 l 1
 245 740 l 1
272 539 m 0
 423 539 510 435 510 254 c 0
 510 82 420 -23 273 -23 c 0
 124 -23 36 82 36 258 c 0
 36 434 125 539 272 539 c 0
273 462 m 0
 180 462 123 384 123 258 c 0
 123 131 180 54 273 54 c 0
 365 54 423 132 423 255 c 0
 423 385 367 462 273 462 c 0
EndSplineSet
KernsSLIF: 118 -18 0 0 119 -10 0 0 121 -22 0 0
Ligature: 0 0 'liga' o gravecomb
EndChar
StartChar: ocircumflex
Encoding: 354 244 248
Width: 556
Flags: W
HStem: -23 77<273 277> 462 77<259 277> 721 20G<226 321>
VStem: 36 87<258 282> 423 87<232 282>
Fore
226 741 m 1
 321 741 l 1
 417 591 l 1
 354 591 l 1
 273 687 l 1
 194 591 l 1
 130 591 l 1
 226 741 l 1
272 539 m 0
 423 539 510 435 510 254 c 0
 510 82 420 -23 273 -23 c 0
 124 -23 36 82 36 258 c 0
 36 434 125 539 272 539 c 0
273 462 m 0
 180 462 123 384 123 258 c 0
 123 131 180 54 273 54 c 0
 365 54 423 132 423 255 c 0
 423 385 367 462 273 462 c 0
EndSplineSet
KernsSLIF: 116 -10 0 0
Ligature: 0 0 'liga' o uni0302
EndChar
StartChar: otilde
Encoding: 355 245 249
Width: 556
Flags: W
HStem: -23 77<273 277> 462 77<257 277> 613 67<336 346> 651 66<203 212>
VStem: 36 87<258 282> 423 87<232 282>
Fore
375 717 m 1xdc
 433 717 l 1xdc
 423 648 393 613 344 613 c 0xec
 325 613 313 617 259 638 c 0
 235 647 221 651 210 651 c 0
 195 651 183 637 177 614 c 1
 119 614 l 1
 130 680 161 717 205 717 c 0xdc
 226 717 233 715 275 698 c 0
 299 687 326 680 338 680 c 0xec
 356 680 367 692 375 717 c 1xdc
272 539 m 0
 423 539 510 435 510 254 c 0
 510 82 420 -23 273 -23 c 0
 124 -23 36 82 36 258 c 0
 36 434 125 539 272 539 c 0
273 462 m 0
 180 462 123 384 123 258 c 0
 123 131 180 54 273 54 c 0
 365 54 423 132 423 255 c 0
 423 385 367 462 273 462 c 0
EndSplineSet
Ligature: 0 0 'liga' o tildecomb
EndChar
StartChar: ohungarumlaut
Encoding: 356 337 250
Width: 556
Flags: W
HStem: -23 77<273 277> 462 77<259 277> 720 20G<240 353 414 527>
VStem: 36 87<258 282> 423 87<232 282>
Fore
240 740 m 1
 353 740 l 1
 204 590 l 1
 144 590 l 1
 240 740 l 1
414 740 m 1
 527 740 l 1
 378 590 l 1
 318 590 l 1
 414 740 l 1
272 539 m 0
 423 539 510 435 510 254 c 0
 510 82 420 -23 273 -23 c 0
 124 -23 36 82 36 258 c 0
 36 434 125 539 272 539 c 0
273 462 m 0
 180 462 123 384 123 258 c 0
 123 131 180 54 273 54 c 0
 365 54 423 132 423 255 c 0
 423 385 367 462 273 462 c 0
EndSplineSet
Ligature: 0 0 'liga' o uni030B
EndChar
StartChar: racute
Encoding: 357 341 251
Width: 333
Flags: W
HStem: 0 21G<69 153> 451 88<289 321> 721 20G<219 332>
VStem: 69 77<0 524> 69 84<0 289>
Fore
219 741 m 1xe0
 332 741 l 1
 183 593 l 1
 123 593 l 1
 219 741 l 1xe0
69 524 m 1xf0
 146 524 l 1
 146 429 l 1xf0
 194 507 235 539 289 539 c 0
 300 539 307 538 321 536 c 1
 321 451 l 1
 263 450 238 444 212 425 c 0
 172 396 153 347 153 272 c 2
 153 0 l 1xe8
 69 0 l 1
 69 524 l 1xf0
EndSplineSet
Ligature: 0 0 'liga' r acutecomb
EndChar
StartChar: sacute
Encoding: 358 347 252
Width: 500
Flags: W
HStem: -23 77<229 259> 462 77<225 259> 720 20G<274 387>
VStem: 47 87<376 394> 372 87<134 145>
Fore
274 740 m 1
 387 740 l 1
 238 592 l 1
 178 592 l 1
 274 740 l 1
438 378 m 1
 350 378 l 1
 348 433 312 462 245 462 c 0
 177 462 134 431 134 383 c 0
 134 346 163 324 231 308 c 2
 311 289 l 2
 415 264 459 221 459 143 c 0
 459 42 375 -23 243 -23 c 0
 106 -23 38 35 34 156 c 1
 122 156 l 1
 127 119 133 104 146 89 c 0
 167 67 205 54 250 54 c 0
 323 54 372 87 372 136 c 0
 372 174 349 195 291 209 c 2
 213 228 l 2
 89 258 47 297 47 379 c 0
 47 476 126 539 248 539 c 0
 369 539 437 481 438 378 c 1
EndSplineSet
Ligature: 0 0 'liga' s acutecomb
EndChar
StartChar: scaron
Encoding: 359 353 253
Width: 500
Flags: W
HStem: -23 77<229 259> 462 77<225 259> 721 20G<102 165 325 389>
VStem: 47 87<376 394> 372 87<134 145>
Fore
293 591 m 1
 198 591 l 1
 102 741 l 1
 165 741 l 1
 246 645 l 1
 325 741 l 1
 389 741 l 1
 293 591 l 1
438 378 m 1
 350 378 l 1
 348 433 312 462 245 462 c 0
 177 462 134 431 134 383 c 0
 134 346 163 324 231 308 c 2
 311 289 l 2
 415 264 459 221 459 143 c 0
 459 42 375 -23 243 -23 c 0
 106 -23 38 35 34 156 c 1
 122 156 l 1
 127 119 133 104 146 89 c 0
 167 67 205 54 250 54 c 0
 323 54 372 87 372 136 c 0
 372 174 349 195 291 209 c 2
 213 228 l 2
 89 258 47 297 47 379 c 0
 47 476 126 539 248 539 c 0
 369 539 437 481 438 378 c 1
EndSplineSet
Ligature: 0 0 'liga' s uni030C
EndChar
StartChar: scommaaccent
Encoding: 360 537 254
Width: 500
Flags: W
HStem: -284 38<198 209.254 198 260> -23 77<229 259> 462 77<225 259>
VStem: 47 87<371 389> 198 100<-161 -60> 372 87<131 149>
Fore
198 -60 m 1
 298 -60 l 1
 298 -163 l 2
 298 -238 260 -285 198 -284 c 1
 198 -246 l 1
 236 -246 255 -215 253 -160 c 1
 198 -160 l 1
 198 -60 l 1
438 378 m 1
 350 378 l 1
 348 433 312 462 245 462 c 0
 177 462 134 431 134 383 c 0
 134 346 163 324 231 308 c 2
 311 289 l 2
 415 264 459 221 459 143 c 0
 459 42 375 -23 243 -23 c 0
 106 -23 38 35 34 156 c 1
 122 156 l 1
 127 119 133 104 146 89 c 0
 167 67 205 54 250 54 c 0
 323 54 372 87 372 136 c 0
 372 174 349 195 291 209 c 2
 213 228 l 2
 89 258 47 297 47 379 c 0
 47 476 126 539 248 539 c 0
 369 539 437 481 438 378 c 1
EndSplineSet
Ligature: 0 0 'liga' s uni0326
EndChar
StartChar: tcaron
Encoding: 361 357 255
Width: 278
Flags: W
HStem: -23 73<186 214> 456 68<14 85 168 254> 576 38<222 233.254 222 284> 680 20G<222 277>
VStem: 85 83<60 456 524 668> 222 100<699 800>
Fore
222 800 m 1
 322 800 l 1
 322 697 l 2
 322 622 284 575 222 576 c 1
 222 614 l 1
 260 614 279 645 277 700 c 1
 222 700 l 1
 222 800 l 1
254 524 m 1
 254 456 l 1
 168 456 l 1
 168 97 l 2
 168 60 178 50 214 50 c 0
 230 50 243 51 254 54 c 1
 254 -16 l 1
 226 -21 206 -23 186 -23 c 0
 121 -23 85 7 85 60 c 2
 85 456 l 1
 14 456 l 1
 14 524 l 1
 85 524 l 1
 85 668 l 1
 168 668 l 1
 168 524 l 1
 254 524 l 1
EndSplineSet
Ligature: 0 0 'liga' t uni030C
EndChar
StartChar: udieresis
Encoding: 362 252 256
Width: 556
Flags: W
HStem: -23 73<232 256> 504 20G<65 148 399 482> 613 103<141 245 303 407>
VStem: 65 83<120 524> 407 75<0 524>
Fore
245 716 m 1
 245 613 l 1
 141 613 l 1
 141 716 l 1
 245 716 l 1
407 716 m 1
 407 613 l 1
 303 613 l 1
 303 716 l 1
 407 716 l 1
482 0 m 1
 407 0 l 1
 407 73 l 1
 358 4 309 -23 232 -23 c 0
 130 -23 65 33 65 120 c 2
 65 524 l 1
 148 524 l 1
 148 153 l 2
 148 90 190 50 256 50 c 0
 343 50 399 120 399 227 c 2
 399 524 l 1
 482 524 l 1
 482 0 l 1
EndSplineSet
Ligature: 0 0 'liga' u uni0308
EndChar
StartChar: uacute
Encoding: 363 250 257
Width: 556
Flags: W
HStem: -23 73<232 256> 504 20G<65 148 399 482> 719 20G<297 410>
VStem: 65 83<120 524> 407 75<0 524>
Fore
297 739 m 1
 410 739 l 1
 261 591 l 1
 201 591 l 1
 297 739 l 1
482 0 m 1
 407 0 l 1
 407 73 l 1
 358 4 309 -23 232 -23 c 0
 130 -23 65 33 65 120 c 2
 65 524 l 1
 148 524 l 1
 148 153 l 2
 148 90 190 50 256 50 c 0
 343 50 399 120 399 227 c 2
 399 524 l 1
 482 524 l 1
 482 0 l 1
EndSplineSet
Ligature: 0 0 'liga' u acutecomb
EndChar
StartChar: ugrave
Encoding: 364 249 258
Width: 556
Flags: W
HStem: -23 73<232 256> 504 20G<65 148 399 482> 720 20G<130 243>
VStem: 65 83<120 524> 407 75<0 524>
Fore
243 740 m 1
 339 592 l 1
 279 592 l 1
 130 740 l 1
 243 740 l 1
482 0 m 1
 407 0 l 1
 407 73 l 1
 358 4 309 -23 232 -23 c 0
 130 -23 65 33 65 120 c 2
 65 524 l 1
 148 524 l 1
 148 153 l 2
 148 90 190 50 256 50 c 0
 343 50 399 120 399 227 c 2
 399 524 l 1
 482 524 l 1
 482 0 l 1
EndSplineSet
Ligature: 0 0 'liga' u gravecomb
EndChar
StartChar: ucircumflex
Encoding: 365 251 259
Width: 556
Flags: W
HStem: -23 73<232 256> 504 20G<65 148 399 482> 721 20G<227 322>
VStem: 65 83<120 524> 407 75<0 524>
Fore
227 741 m 1
 322 741 l 1
 418 591 l 1
 355 591 l 1
 274 687 l 1
 195 591 l 1
 131 591 l 1
 227 741 l 1
482 0 m 1
 407 0 l 1
 407 73 l 1
 358 4 309 -23 232 -23 c 0
 130 -23 65 33 65 120 c 2
 65 524 l 1
 148 524 l 1
 148 153 l 2
 148 90 190 50 256 50 c 0
 343 50 399 120 399 227 c 2
 399 524 l 1
 482 524 l 1
 482 0 l 1
EndSplineSet
Ligature: 0 0 'liga' u uni0302
EndChar
StartChar: uring
Encoding: 366 367 260
Width: 556
Flags: W
HStem: -23 73<232 256> 504 20G<65 148 399 482> 579 44<263.75 276> 710 44<263.75 276>
VStem: 65 83<120 524> 185 44<667 669> 317 44<666 670> 407 75<0 524>
Fore
273 754 m 0
 322 754 361 715 361 666 c 0
 361 618 321 579 273 579 c 0
 225 579 185 619 185 667 c 0
 185 714 225 754 273 754 c 0
273 710 m 0
 249 710 229 690 229 667 c 0
 229 643 249 623 273 623 c 0
 297 623 317 643 317 666 c 0
 317 691 298 710 273 710 c 0
482 0 m 1
 407 0 l 1
 407 73 l 1
 358 4 309 -23 232 -23 c 0
 130 -23 65 33 65 120 c 2
 65 524 l 1
 148 524 l 1
 148 153 l 2
 148 90 190 50 256 50 c 0
 343 50 399 120 399 227 c 2
 399 524 l 1
 482 524 l 1
 482 0 l 1
EndSplineSet
Ligature: 0 0 'liga' u uni030A
EndChar
StartChar: uhungarumlaut
Encoding: 367 369 261
Width: 556
Flags: W
HStem: -23 73<232 256> 504 20G<65 148 399 482> 720 20G<243 356 417 530>
VStem: 65 83<120 524> 407 75<0 524>
Fore
243 740 m 1
 356 740 l 1
 207 590 l 1
 147 590 l 1
 243 740 l 1
417 740 m 1
 530 740 l 1
 381 590 l 1
 321 590 l 1
 417 740 l 1
482 0 m 1
 407 0 l 1
 407 73 l 1
 358 4 309 -23 232 -23 c 0
 130 -23 65 33 65 120 c 2
 65 524 l 1
 148 524 l 1
 148 153 l 2
 148 90 190 50 256 50 c 0
 343 50 399 120 399 227 c 2
 399 524 l 1
 482 524 l 1
 482 0 l 1
EndSplineSet
Ligature: 0 0 'liga' u uni030B
EndChar
StartChar: yacute
Encoding: 368 253 262
Width: 500
Flags: W
HStem: -218 82<96 112> 504 20G<20 109 388 478> 720 20G<272 385>
DStem: 20 524 109 524 197 -2 243 116 388 524 478 524 243 116 245 -110
Fore
272 740 m 1
 385 740 l 1
 236 592 l 1
 176 592 l 1
 272 740 l 1
388 524 m 1
 478 524 l 1
 245 -110 l 1
 229 -152 214 -174 188 -193 c 0
 166 -209 137 -218 110 -218 c 0
 88 -218 71 -214 54 -205 c 1
 54 -130 l 1
 72 -134 86 -136 98 -136 c 0
 133 -136 152 -122 165 -85 c 1
 197 -2 l 1
 20 524 l 1
 109 524 l 1
 243 116 l 1
 388 524 l 1
EndSplineSet
Ligature: 0 0 'liga' y acutecomb
EndChar
StartChar: zacute
Encoding: 369 378 263
Width: 500
Flags: W
HStem: 0 73<132 457> 451 73<52 344> 720 20G<277 390>
DStem: 344 451 443 450 31 75 132 73
Fore
277 740 m 1
 390 740 l 1
 241 592 l 1
 181 592 l 1
 277 740 l 1
443 524 m 1
 443 450 l 1
 132 73 l 1
 457 73 l 1
 457 0 l 1
 31 0 l 1
 31 75 l 1
 344 451 l 1
 52 451 l 1
 52 524 l 1
 443 524 l 1
EndSplineSet
Ligature: 0 0 'liga' z acutecomb
EndChar
StartChar: zcaron
Encoding: 370 382 264
Width: 500
Flags: W
HStem: 0 73<132 457> 451 73<52 344> 721 20G<107 170 330 394>
DStem: 344 451 443 450 31 75 132 73
Fore
298 591 m 1
 203 591 l 1
 107 741 l 1
 170 741 l 1
 251 645 l 1
 330 741 l 1
 394 741 l 1
 298 591 l 1
443 524 m 1
 443 450 l 1
 132 73 l 1
 457 73 l 1
 457 0 l 1
 31 0 l 1
 31 75 l 1
 344 451 l 1
 52 451 l 1
 52 524 l 1
 443 524 l 1
EndSplineSet
Ligature: 0 0 'liga' z uni030C
EndChar
StartChar: zdotaccent
Encoding: 371 380 265
Width: 500
Flags: W
HStem: 0 73<132 457> 451 73<52 344> 612 104<199 303>
VStem: 199 104<612 716>
DStem: 344 451 443 450 31 75 132 73
Fore
303 716 m 1
 303 612 l 1
 199 612 l 1
 199 716 l 1
 303 716 l 1
443 524 m 1
 443 450 l 1
 132 73 l 1
 457 73 l 1
 457 0 l 1
 31 0 l 1
 31 75 l 1
 344 451 l 1
 52 451 l 1
 52 524 l 1
 443 524 l 1
EndSplineSet
Ligature: 0 0 'liga' z uni0307
EndChar
StartChar: ydieresis
Encoding: 372 255 266
Width: 500
Flags: W
HStem: -218 82<96 112> 504 20G<20 109 388 478> 612 103<113 217 275 379>
DStem: 20 524 109 524 197 -2 243 116 388 524 478 524 243 116 245 -110
Fore
217 715 m 1
 217 612 l 1
 113 612 l 1
 113 715 l 1
 217 715 l 1
379 715 m 1
 379 612 l 1
 275 612 l 1
 275 715 l 1
 379 715 l 1
388 524 m 1
 478 524 l 1
 245 -110 l 1
 229 -152 214 -174 188 -193 c 0
 166 -209 137 -218 110 -218 c 0
 88 -218 71 -214 54 -205 c 1
 54 -130 l 1
 72 -134 86 -136 98 -136 c 0
 133 -136 152 -122 165 -85 c 1
 197 -2 l 1
 20 524 l 1
 109 524 l 1
 243 116 l 1
 388 524 l 1
EndSplineSet
Ligature: 0 0 'liga' y uni0308
EndChar
StartChar: tcommaaccent
Encoding: 373 355 267
Width: 278
Flags: W
HStem: -284 38<111 122.254 111 173> -23 73<186 214> 456 68<14 85 168 254>
VStem: 85 83<60 456 524 668>
Fore
111 -60 m 1
 211 -60 l 1
 211 -163 l 2
 211 -238 173 -285 111 -284 c 1
 111 -246 l 1
 149 -246 168 -215 166 -160 c 1
 111 -160 l 1
 111 -60 l 1
254 524 m 1
 254 456 l 1
 168 456 l 1
 168 97 l 2
 168 60 178 50 214 50 c 0
 230 50 243 51 254 54 c 1
 254 -16 l 1
 226 -21 206 -23 186 -23 c 0
 121 -23 85 7 85 60 c 2
 85 456 l 1
 14 456 l 1
 14 524 l 1
 85 524 l 1
 85 668 l 1
 168 668 l 1
 168 524 l 1
 254 524 l 1
EndSplineSet
Ligature: 0 0 'liga' t uni0327
EndChar
StartChar: amacron
Encoding: 374 257 268
Width: 556
Flags: W
HStem: -23 70<478 517> 462 77<249 283> 631 70<136 410>
VStem: 42 87<120 138> 389 83<152 396>
Fore
410 701 m 1
 410 631 l 1
 136 631 l 1
 136 701 l 1
 410 701 l 1
535 49 m 1
 535 -14 l 1
 508 -21 495 -23 478 -23 c 0
 424 -23 398 1 392 54 c 1
 333 0 280 -23 214 -23 c 0
 108 -23 42 37 42 132 c 0
 42 200 73 247 134 272 c 0
 166 285 184 289 302 304 c 0
 368 312 389 327 389 362 c 2
 389 384 l 2
 389 434 347 462 272 462 c 0
 194 462 156 433 149 369 c 1
 65 369 l 1
 67 421 77 451 101 478 c 0
 136 517 199 539 275 539 c 0
 404 539 472 489 472 396 c 2
 472 88 l 2
 472 62 488 47 517 47 c 0
 522 47 526 47 535 49 c 1
389 165 m 2
 389 259 l 1
 361 246 343 242 255 230 c 0
 166 217 129 189 129 134 c 0
 129 81 167 50 232 50 c 0
 281 50 322 66 356 97 c 0
 381 120 389 137 389 165 c 2
EndSplineSet
Ligature: 0 0 'liga' a uni0304
EndChar
StartChar: emacron
Encoding: 375 275 269
Width: 556
Flags: W
HStem: -23 77<263 297> 234 68<129 513> 462 77<263 297> 631 70<148 422>
VStem: 40 87<232 255> 424 89<234 308>
Fore
422 701 m 1
 422 631 l 1
 148 631 l 1
 148 701 l 1
 422 701 l 1
513 234 m 1
 127 234 l 1
 128 182 135 152 155 122 c 0
 183 78 228 54 281 54 c 0
 348 54 395 90 418 159 c 1
 502 159 l 1
 481 45 398 -23 278 -23 c 0
 131 -23 40 83 40 255 c 0
 40 427 134 539 280 539 c 0
 378 539 458 487 492 401 c 0
 507 362 513 314 513 234 c 1
129 302 m 1
 423 302 l 1
 424 304 424 306 424 308 c 0
 424 394 361 462 279 462 c 0
 195 462 136 399 129 302 c 1
EndSplineSet
Ligature: 0 0 'liga' e uni0304
EndChar
StartChar: imacron
Encoding: 376 299 270
Width: 216
Flags: W
HStem: 1 21G<65 149> 505 20G<65 149> 631 70<-16 232>
VStem: 65 84<1 525>
Fore
232 701 m 1
 232 631 l 1
 -16 631 l 1
 -16 701 l 1
 232 701 l 1
149 525 m 1
 149 1 l 1
 65 1 l 1
 65 525 l 1
 149 525 l 1
EndSplineSet
Ligature: 0 0 'liga' i uni0304
EndChar
StartChar: kcommaaccent
Encoding: 377 311 271
Width: 500
Flags: W
HStem: -284 38<217 228.254 217 279> 0 21G<58 141 399 502> 504 20G<363 470> 709 20G<58 141>
VStem: 58 83<0 204 0 729> 217 100<-161 -60>
DStem: 222 284 288 343 399 0 502 0 363 524 470 524 141 302 288 343
Fore
217 -60 m 1
 317 -60 l 1
 317 -163 l 2
 317 -238 279 -285 217 -284 c 1
 217 -246 l 1
 255 -246 274 -215 272 -160 c 1
 217 -160 l 1
 217 -60 l 1
141 729 m 1
 141 302 l 1
 363 524 l 1
 470 524 l 1
 288 343 l 1
 502 0 l 1
 399 0 l 1
 222 284 l 1
 141 204 l 1
 141 0 l 1
 58 0 l 1
 58 729 l 1
 141 729 l 1
EndSplineSet
Ligature: 0 0 'liga' k uni0327
EndChar
StartChar: lcommaaccent
Encoding: 378 316 272
Width: 222
Flags: W
HStem: -284 38<63 74.2538 63 125> 0 21G<68 152> 709 20G<68 152>
VStem: 68 84<0 729>
Fore
63 -60 m 1
 163 -60 l 1
 163 -163 l 2
 163 -238 125 -285 63 -284 c 1
 63 -246 l 1
 101 -246 120 -215 118 -160 c 1
 63 -160 l 1
 63 -60 l 1
152 729 m 1
 152 0 l 1
 68 0 l 1
 68 729 l 1
 152 729 l 1
EndSplineSet
Ligature: 0 0 'liga' l uni0327
EndChar
StartChar: ncommaaccent
Encoding: 379 326 273
Width: 556
Flags: W
HStem: -284 38<229 240.254 229 291> 0 21G<70 154 404 487> 466 73<296 321>
VStem: 70 77<0 524> 70 84<0 309> 229 100<-161 -60> 404 83<0 396>
Fore
229 -60 m 1xe6
 329 -60 l 1
 329 -163 l 2
 329 -238 291 -285 229 -284 c 1
 229 -246 l 1
 267 -246 286 -215 284 -160 c 1
 229 -160 l 1
 229 -60 l 1xe6
70 524 m 1xf6
 147 524 l 1
 147 436 l 1xf6
 193 509 243 539 321 539 c 0
 422 539 487 483 487 396 c 2
 487 0 l 1
 404 0 l 1
 404 363 l 2
 404 426 362 466 296 466 c 0
 210 466 154 396 154 289 c 2
 154 0 l 1xee
 70 0 l 1
 70 524 l 1xf6
EndSplineSet
Ligature: 0 0 'liga' n uni0327
EndChar
StartChar: omacron
Encoding: 380 333 274
Width: 556
Flags: W
HStem: -23 77<273 277> 462 77<259 277> 631 70<137 411>
VStem: 36 87<258 282> 423 87<232 282>
Fore
411 701 m 1
 411 631 l 1
 137 631 l 1
 137 701 l 1
 411 701 l 1
272 539 m 0
 423 539 510 435 510 254 c 0
 510 82 420 -23 273 -23 c 0
 124 -23 36 82 36 258 c 0
 36 434 125 539 272 539 c 0
273 462 m 0
 180 462 123 384 123 258 c 0
 123 131 180 54 273 54 c 0
 365 54 423 132 423 255 c 0
 423 385 367 462 273 462 c 0
EndSplineSet
Ligature: 0 0 'liga' o uni0304
EndChar
StartChar: rcommaaccent
Encoding: 381 343 275
Width: 333
Flags: W
HStem: -284 38<65 76.2538 65 127> 0 21G<69 153> 451 88<289 321>
VStem: 69 77<0 524> 69 84<0 293>
Fore
65 -60 m 1xe0
 165 -60 l 1
 165 -163 l 2
 165 -238 127 -285 65 -284 c 1
 65 -246 l 1
 103 -246 122 -215 120 -160 c 1
 65 -160 l 1
 65 -60 l 1xe0
69 524 m 1xf0
 146 524 l 1
 146 429 l 1xf0
 194 507 235 539 289 539 c 0
 300 539 307 538 321 536 c 1
 321 451 l 1
 263 450 238 444 212 425 c 0
 172 396 153 347 153 272 c 2
 153 0 l 1xe8
 69 0 l 1
 69 524 l 1xf0
EndSplineSet
Ligature: 0 0 'liga' r uni0327
EndChar
StartChar: umacron
Encoding: 382 363 276
Width: 556
Flags: W
HStem: -23 73<232 256> 504 20G<65 148 399 482> 631 70<137 411>
VStem: 65 83<120 524> 407 75<0 524>
Fore
411 701 m 1
 411 631 l 1
 137 631 l 1
 137 701 l 1
 411 701 l 1
482 0 m 1
 407 0 l 1
 407 73 l 1
 358 4 309 -23 232 -23 c 0
 130 -23 65 33 65 120 c 2
 65 524 l 1
 148 524 l 1
 148 153 l 2
 148 90 190 50 256 50 c 0
 343 50 399 120 399 227 c 2
 399 524 l 1
 482 524 l 1
 482 0 l 1
EndSplineSet
Ligature: 0 0 'liga' u uni0304
EndChar
StartChar: uogonek
Encoding: 383 371 277
Width: 556
Flags: W
HStem: -204 44<464 484> -23 73<232 256> 504 20G<65 148 399 482>
VStem: 65 83<120 524> 333 72<-113 -106> 407 75<-1 524>
Fore
482 524 m 1
 482 0 l 1
 436 -26 405 -69 405 -108 c 0
 405 -140 431 -160 472 -160 c 0
 488 -160 500 -158 521 -150 c 1
 521 -195 l 1
 515 -196 510 -197 508 -198 c 0
 488 -203 481 -204 469 -204 c 0
 386 -204 333 -168 333 -111 c 0
 333 -68 363 -34 429 0 c 1
 407 0 l 1
 407 73 l 1
 358 4 309 -23 232 -23 c 0
 130 -23 65 33 65 120 c 2
 65 524 l 1
 148 524 l 1
 148 153 l 2
 148 90 190 50 256 50 c 0
 343 50 399 120 399 227 c 2
 399 524 l 1
 482 524 l 1
EndSplineSet
Ligature: 0 0 'liga' u uni0328
EndChar
StartChar: rcaron
Encoding: 384 345 278
Width: 333
Flags: W
HStem: 0 21G<69 153> 451 88<289 321> 721 20G<48 111 271 335>
VStem: 69 77<0 524> 69 84<0 289>
Fore
239 591 m 1xe0
 144 591 l 1
 48 741 l 1
 111 741 l 1
 192 645 l 1
 271 741 l 1
 335 741 l 1
 239 591 l 1xe0
69 524 m 1xf0
 146 524 l 1
 146 429 l 1xf0
 194 507 235 539 289 539 c 0
 300 539 307 538 321 536 c 1
 321 451 l 1
 263 450 238 444 212 425 c 0
 172 396 153 347 153 272 c 2
 153 0 l 1xe8
 69 0 l 1
 69 524 l 1xf0
EndSplineSet
Ligature: 0 0 'liga' r uni030C
EndChar
StartChar: scedilla
Encoding: 385 351 279
Width: 500
Flags: W
HStem: -214 41<193 218> -91 145<216 250> 462 77<225 264>
VStem: 47 87<376 395> 262 75<-135 -119> 372 87<134 145>
Fore
244 -24 m 1
 230 -56 l 1
 244 -54 250 -54 258 -54 c 0
 308 -54 337 -78 337 -121 c 0
 337 -178 290 -214 214 -214 c 0
 176 -214 151 -207 89 -180 c 1
 110 -140 l 1
 119 -144 l 2
 164 -167 183 -173 208 -173 c 0
 239 -173 262 -154 262 -128 c 0
 262 -105 245 -91 216 -91 c 0
 204 -91 197 -93 185 -98 c 1
 174 -92 l 1
 205 -21 l 1
 93 -10 36 48 34 156 c 1
 122 156 l 1
 127 119 133 104 146 89 c 0
 167 67 205 54 250 54 c 0
 323 54 372 87 372 136 c 0
 372 174 349 195 291 209 c 2
 213 228 l 2
 89 258 47 297 47 379 c 0
 47 476 126 539 248 539 c 0
 369 539 437 481 438 378 c 1
 350 378 l 1
 348 433 312 462 245 462 c 0
 177 462 134 431 134 383 c 0
 134 346 163 324 231 308 c 2
 311 289 l 2
 415 264 459 221 459 143 c 0
 459 81 422 25 361 -2 c 0
 334 -14 304 -20 244 -24 c 1
EndSplineSet
Ligature: 0 0 'liga' s uni0327
EndChar
StartChar: gcommaaccent
Encoding: 386 291 280
Width: 556
Flags: W
HStem: -218 70<243 279> -23 77<244 264> 462 77<243 270> 692 21G<277 332> 778 38<270 332 320.746 331.937>
VStem: 29 87<229 279> 232 100<592 692> 404 85<37 86 229 524>
Fore
332 592 m 1
 232 592 l 1
 232 695 l 2
 232 770 270 817 332 816 c 1
 332 778 l 1
 294 778 275 747 277 692 c 1
 332 692 l 1
 332 592 l 1
412 524 m 1
 489 524 l 1
 489 86 l 2
 489 -37 474 -103 434 -151 c 0
 400 -193 333 -218 255 -218 c 0
 132 -218 55 -159 46 -60 c 1
 131 -60 l 1
 136 -91 144 -105 163 -120 c 0
 186 -138 220 -148 258 -148 c 0
 309 -148 352 -130 374 -99 c 0
 395 -70 404 -27 404 44 c 2
 404 71 l 1
 357 5 311 -23 245 -23 c 0
 190 -23 134 3 95 47 c 0
 52 97 29 167 29 253 c 0
 29 423 119 539 252 539 c 0
 319 539 370 510 412 448 c 1
 412 524 l 1
261 462 m 0
 172 462 116 384 116 258 c 0
 116 131 171 54 262 54 c 0
 350 54 404 130 404 255 c 0
 404 386 351 462 261 462 c 0
EndSplineSet
Ligature: 0 0 'liga' g uni0327
EndChar
StartChar: iogonek
Encoding: 387 303 281
Width: 222
Flags: W
HStem: -204 45<132 149> -20 20G<67 99> 504 20G<67 150> 709 20G<66 150>
VStem: 67 83<-1 524 624 729>
Fore
150 524 m 1
 150 0 l 1
 120 -27 97 -71 97 -103 c 0
 97 -136 117 -159 147 -159 c 0
 160 -159 172 -156 190 -150 c 1
 190 -195 l 1
 173 -200 149 -204 132 -204 c 0
 69 -204 25 -168 25 -116 c 0
 25 -74 43 -45 99 0 c 1
 67 0 l 1
 67 524 l 1
 150 524 l 1
150 729 m 1
 150 624 l 1
 66 624 l 1
 66 729 l 1
 150 729 l 1
EndSplineSet
Ligature: 0 0 'liga' i uni0328
EndChar
StartChar: Scommaaccent
Encoding: 388 536 282
Width: 667
Flags: W
HStem: -284 38<291 302.254 291 353> -23 82<319 369> 663 78<303 353>
VStem: 70 93<525 549> 291 100<-161 -60> 508 88<515 533.073> 528 93<189 202>
Fore
291 -60 m 1xf8
 391 -60 l 1
 391 -163 l 2
 391 -238 353 -285 291 -284 c 1
 291 -246 l 1
 329 -246 348 -215 346 -160 c 1
 291 -160 l 1
 291 -60 l 1xf8
596 515 m 1xfc
 508 515 l 1xfc
 507 610 442 663 326 663 c 0
 228 663 163 614 163 540 c 0
 163 484 195 456 283 432 c 2
 466 383 l 2
 565 356 621 290 621 200 c 0
 621 137 590 72 541 33 c 0
 494 -3 423 -23 336 -23 c 0
 225 -23 141 13 91 81 c 0
 62 121 49 165 48 232 c 1
 136 232 l 1
 135 187 147 152 174 120 c 0
 209 78 263 59 342 59 c 0
 401 59 447 70 476 90 c 0
 507 112 528 152 528 191 c 0xfa
 528 248 486 285 394 309 c 2
 213 357 l 2
 117 382 70 438 70 527 c 0
 70 659 169 741 329 741 c 0
 497 741 595 658 596 515 c 1xfc
EndSplineSet
Ligature: 0 0 'liga' S uni0326
EndChar
StartChar: Eth
Encoding: 389 208 283
Width: 722
Flags: W
HStem: 0 82<182 373> 339 67<20 89 182 353> 647 82<89 373>
VStem: 89 93<0 339 406 647> 574 93<365 401>
Fore
89 339 m 1
 20 339 l 1
 20 406 l 1
 89 406 l 1
 89 729 l 1
 371 729 l 2
 555 729 667 591 667 365 c 0
 667 138 555 0 371 0 c 2
 89 0 l 1
 89 339 l 1
182 339 m 1
 182 82 l 1
 355 82 l 2
 498 82 574 179 574 365 c 0
 574 550 498 647 355 647 c 2
 182 647 l 1
 182 406 l 1
 353 406 l 1
 353 339 l 1
 182 339 l 1
EndSplineSet
EndChar
StartChar: Dcroat
Encoding: 390 272 284
Width: 722
Flags: W
HStem: 0 82<182 373> 339 67<20 89 182 353> 647 82<89 373>
VStem: 89 93<0 339 406 647> 574 93<365 401>
Fore
89 339 m 1
 20 339 l 1
 20 406 l 1
 89 406 l 1
 89 729 l 1
 371 729 l 2
 555 729 667 591 667 365 c 0
 667 138 555 0 371 0 c 2
 89 0 l 1
 89 339 l 1
182 339 m 1
 182 82 l 1
 355 82 l 2
 498 82 574 179 574 365 c 0
 574 550 498 647 355 647 c 2
 182 647 l 1
 182 406 l 1
 353 406 l 1
 353 339 l 1
 182 339 l 1
EndSplineSet
EndChar
StartChar: Thorn
Encoding: 391 222 285
Width: 666
Flags: W
HStem: 0 21G<91 184> 189 82<184 413> 527 82<184 396> 709 20G<91 184>
VStem: 91 93<0 189 0 527 0 729> 516 100<383 417>
Fore
184 189 m 1
 184 0 l 1
 91 0 l 1
 91 729 l 1
 184 729 l 1
 184 609 l 1
 392 609 l 2
 531 609 616 529 616 397 c 0
 616 275 532 189 413 189 c 2
 184 189 l 1
184 271 m 1
 378 271 l 2
 465 271 516 319 516 399 c 0
 516 479 465 527 378 527 c 2
 184 527 l 1
 184 271 l 1
EndSplineSet
EndChar
StartChar: dcroat
Encoding: 392 273 286
Width: 556
Flags: W
HStem: -23 82<248 267> 457 82<248 267> 600 53<261 411 494 557> 709 20G<411 494>
VStem: 26 87<232 282> 420 74<0 600>
Fore
494 653 m 1
 557 653 l 1
 557 600 l 1
 494 600 l 1
 494 0 l 1
 420 0 l 1
 420 59 l 1
 372 3 319 -23 252 -23 c 0
 116 -23 26 91 26 264 c 0
 26 430 115 539 250 539 c 0
 318 539 367 515 411 461 c 1
 411 600 l 1
 261 600 l 1
 261 653 l 1
 411 653 l 1
 411 729 l 1
 494 729 l 1
 494 653 l 1
265 457 m 0
 174 457 113 377 113 258 c 0
 113 139 174 59 265 59 c 0
 353 59 411 137 411 256 c 0
 411 379 354 457 265 457 c 0
EndSplineSet
EndChar
StartChar: eth
Encoding: 393 240 287
Width: 556
Flags: W
HStem: -23 77<273 291> 462 75<254 273>
VStem: 36 87<258 282> 423 87<232 282>
DStem: 171 647 219 613 86 607 122 568 341 725 381 688 244 680 291 647
Fore
219 613 m 1
 122 568 l 1
 86 607 l 1
 171 647 l 1
 145 667 132 675 89 699 c 1
 133 743 l 1
 164 730 177 723 244 680 c 1
 341 725 l 1
 381 688 l 1
 291 647 l 1
 363 592 400 554 438 497 c 0
 489 419 510 351 510 259 c 0
 510 79 424 -23 273 -23 c 0
 122 -23 36 79 36 258 c 0
 36 375 71 458 140 502 c 0
 174 525 214 537 254 537 c 0
 273 537 287 534 317 524 c 1
 282 559 271 569 219 613 c 1
273 462 m 0
 180 462 123 384 123 258 c 0
 123 132 180 54 273 54 c 0
 365 54 423 132 423 255 c 0
 423 385 367 462 273 462 c 0
EndSplineSet
EndChar
StartChar: thorn
Encoding: 394 254 288
Width: 555
Flags: W
HStem: -23 78<277 300> 461 78<277 300>
VStem: 54 83<-218 55 -218 279 -218 714> 435 87<229 279>
Fore
54 -218 m 1
 54 714 l 1
 137 714 l 1
 137 459 l 1
 173 510 231 539 298 539 c 0
 434 539 522 427 522 253 c 0
 522 86 433 -23 298 -23 c 0
 230 -23 181 1 137 55 c 1
 137 -218 l 1
 54 -218 l 1
283 461 m 0
 195 461 137 381 137 258 c 0
 137 135 195 55 283 55 c 0
 374 55 435 136 435 255 c 0
 435 380 375 461 283 461 c 0
EndSplineSet
EndChar
StartChar: Euro
Encoding: 395 8364 289
Width: 556
Flags: W
HStem: -23 78<345 355> 254 59<23 85 168 390> 379 59<23 81 178 439> 633 76<337 355>
VStem: 79 88<313 362>
Fore
79 313 m 1
 79 338 l 2
 79 350 79 360 81 379 c 1
 2 379 l 1
 24 438 l 1
 87 438 l 1
 97 502 119 558 153 608 c 0
 200 676 265 709 351 709 c 0
 420 709 477 689 543 642 c 1
 511 562 l 1
 438 616 397 633 344 633 c 0
 258 633 206 571 178 438 c 1
 462 438 l 1
 439 379 l 1
 169 379 l 1
 167 363 167 354 167 343 c 0
 167 336 167 328 168 313 c 1
 414 313 l 1
 390 254 l 1
 176 254 l 1
 201 122 258 55 345 55 c 0
 394 55 430 69 511 117 c 1
 511 24 l 1
 460 -7 405 -23 345 -23 c 0
 261 -23 186 16 147 80 c 0
 117 129 97 186 85 254 c 1
 2 254 l 1
 24 313 l 1
 79 313 l 1
EndSplineSet
EndChar
StartChar: onesuperior
Encoding: 396 185 290
Width: 351
Flags: W
HStem: 689 20G<179 222>
VStem: 160 62<284 709>
Fore
160 580 m 1
 61 580 l 1
 61 626 l 1
 76 627 l 2
 148 634 162 645 179 709 c 1
 222 709 l 1
 222 284 l 1
 160 284 l 1
 160 580 l 1
EndSplineSet
EndChar
StartChar: twosuperior
Encoding: 397 178 291
Width: 351
Flags: W
HStem: 284 58<94 323> 656 53<165 182>
VStem: 263 63<571 589>
Fore
323 342 m 1
 323 284 l 1
 19 284 l 1
 24 381 50 420 146 471 c 2
 204 502 l 2
 243 523 263 550 263 581 c 0
 263 624 226 656 178 656 c 0
 146 656 118 641 104 617 c 0
 96 604 93 588 91 557 c 1
 29 557 l 1
 32 660 81 709 180 709 c 0
 266 709 326 657 326 583 c 0
 326 530 293 485 230 454 c 2
 167 422 l 2
 124 399 106 380 94 342 c 1
 323 342 l 1
EndSplineSet
EndChar
StartChar: threesuperior
Encoding: 398 179 292
Width: 351
Flags: W
HStem: 270 53<159 177> 476 51<135 169.502> 656 53<169 177>
VStem: 25 63<567 585.095> 245 63<574.255 591> 259 63<404 414>
Fore
135 476 m 1xf4
 135 527 l 1
 221 527 245 541 245 588 c 0
 245 630 216 656 169 656 c 0
 136 656 109 643 97 621 c 0
 90 608 88 595 88 567 c 1
 25 567 l 1
 27 661 76 709 169 709 c 0
 255 709 308 663 308 589 c 0xf8
 308 550 288 521 251 504 c 1
 299 488 322 455 322 404 c 0
 322 323 261 270 167 270 c 0
 71 270 16 322 16 412 c 1
 78 412 l 1
 81 350 109 323 169 323 c 0
 225 323 259 353 259 404 c 0
 259 440 236 468 201 474 c 0
 186 476 170 476 135 476 c 1xf4
EndSplineSet
EndChar
StartChar: degree
Encoding: 399 176 293
Width: 606
Flags: W
HStem: 383 57<301 312> 629 57<303 312>
VStem: 151 57<535 544> 397 57<535 544>
Fore
303 686 m 0
 386 686 454 618 454 535 c 0
 454 450 386 383 301 383 c 0
 219 383 151 452 151 535 c 0
 151 618 219 686 303 686 c 0
303 629 m 0
 251 629 208 586 208 535 c 0
 208 483 251 440 301 440 c 0
 355 440 397 482 397 535 c 0
 397 587 355 629 303 629 c 0
EndSplineSet
EndChar
StartChar: minus
Encoding: 400 8722 294
Width: 584
Flags: W
HStem: 197 70<40 544>
Fore
544 267 m 1
 544 197 l 1
 40 197 l 1
 40 267 l 1
 544 267 l 1
EndSplineSet
EndChar
StartChar: multiply
Encoding: 401 215 295
Width: 584
Flags: W
DStem: 96 377 145 426 242 231 291 281 242 231 291 181 95 84 145 35 291 181 341 231 438 34 488 84 438 427 487 377 291 281 341 231
Fore
438 427 m 1
 487 377 l 1
 341 231 l 1
 488 84 l 1
 438 34 l 1
 291 181 l 1
 145 35 l 1
 95 84 l 1
 242 231 l 1
 96 377 l 1
 145 426 l 1
 291 281 l 1
 438 427 l 1
EndSplineSet
EndChar
StartChar: divide
Encoding: 402 247 296
Width: 584
Flags: W
HStem: 0 104<240 344> 201 70<50 534> 368 104<240 344>
VStem: 240 104<0 104 368 472>
CounterMasks: 1 00
Fore
534 271 m 1
 534 201 l 1
 50 201 l 1
 50 271 l 1
 534 271 l 1
344 104 m 1
 344 0 l 1
 240 0 l 1
 240 104 l 1
 344 104 l 1
344 472 m 1
 344 368 l 1
 240 368 l 1
 240 472 l 1
 344 472 l 1
EndSplineSet
EndChar
StartChar: trademark
Encoding: 403 8482 297
Width: 1000
Flags: W
HStem: 674 55<63 217 63 438>
VStem: 217 68<292 674> 490 67<292 633> 871 67<292 729>
DStem: 557 633 584 729 678 292 716 367 847 729 871 633 716 367 748 292
Fore
285 674 m 1
 285 292 l 1
 217 292 l 1
 217 674 l 1
 63 674 l 1
 63 729 l 1
 438 729 l 1
 438 674 l 1
 285 674 l 1
748 292 m 1
 678 292 l 1
 557 633 l 1
 557 292 l 1
 490 292 l 1
 490 729 l 1
 584 729 l 1
 716 367 l 1
 847 729 l 1
 938 729 l 1
 938 292 l 1
 871 292 l 1
 871 633 l 1
 748 292 l 1
EndSplineSet
Ligature: 0 1 'liga' T M
EndChar
StartChar: plusminus
Encoding: 404 177 298
Width: 584
Flags: W
HStem: -11 70<50 534> 346 70<50 257 327 534>
VStem: 257 70<139 346 416 623>
Fore
534 416 m 1
 534 346 l 1
 327 346 l 1
 327 139 l 1
 257 139 l 1
 257 346 l 1
 50 346 l 1
 50 416 l 1
 257 416 l 1
 257 623 l 1
 327 623 l 1
 327 416 l 1
 534 416 l 1
534 59 m 1
 534 -11 l 1
 50 -11 l 1
 50 59 l 1
 534 59 l 1
EndSplineSet
EndChar
StartChar: onehalf
Encoding: 405 189 299
Width: 869
Flags: W
HStem: 0 58<612 841> 372 53<683 702> 689 20G<179 222 619 677>
VStem: 160 62<284 709> 781 63<285.153 302>
DStem: 619 709 677 709 167 -20 225 -20
Fore
160 580 m 1
 61 580 l 1
 61 626 l 1
 76 627 l 2
 148 634 162 645 179 709 c 1
 222 709 l 1
 222 284 l 1
 160 284 l 1
 160 580 l 1
619 709 m 1
 677 709 l 1
 225 -20 l 1
 167 -20 l 1
 619 709 l 1
841 58 m 1
 841 0 l 1
 537 0 l 1
 542 97 568 136 664 187 c 2
 722 218 l 2
 761 239 781 266 781 297 c 0
 781 340 744 372 696 372 c 0
 664 372 636 357 622 333 c 0
 614 320 611 304 609 273 c 1
 547 273 l 1
 550 376 599 425 698 425 c 0
 784 425 844 373 844 299 c 0
 844 246 811 201 748 170 c 2
 685 138 l 2
 642 115 624 96 612 58 c 1
 841 58 l 1
EndSplineSet
Ligature: 0 1 'frac' one slash two
Ligature: 0 1 'frac' one fraction two
EndChar
StartChar: onequarter
Encoding: 406 188 300
Width: 869
Flags: W
HStem: -20 21G<191 249> 100 53<591 720 782 849> 689 20G<179 222 643 701>
VStem: 160 62<284 709> 720 62<0 100 153 425>
DStem: 643 709 701 709 191 -20 249 -20 736 425 720 323 532 159 591 153
Fore
160 580 m 1
 61 580 l 1
 61 626 l 1
 76 627 l 2
 148 634 162 645 179 709 c 1
 222 709 l 1
 222 284 l 1
 160 284 l 1
 160 580 l 1
643 709 m 1
 701 709 l 1
 249 -20 l 1
 191 -20 l 1
 643 709 l 1
720 100 m 1
 532 100 l 1
 532 159 l 1
 736 425 l 1
 782 425 l 1
 782 153 l 1
 849 153 l 1
 849 100 l 1
 782 100 l 1
 782 0 l 1
 720 0 l 1
 720 100 l 1
720 153 m 1
 720 323 l 1
 591 153 l 1
 720 153 l 1
EndSplineSet
Ligature: 0 1 'frac' one slash four
Ligature: 0 1 'frac' one fraction four
EndChar
StartChar: threequarters
Encoding: 407 190 301
Width: 869
Flags: W
HStem: -20 21G<201 259> 100 53<591 720 782 849> 270 53<159 177> 476 51<135 169.502> 656 53<169 177>
VStem: 25 63<567 585.095> 245 63<574.255 591> 259 63<404 414> 720 62<0 100 153 425>
DStem: 653 709 711 709 201 -20 259 -20 736 425 720 323 532 159 591 153
Fore
135 476 m 1xfd80
 135 527 l 1
 221 527 245 541 245 588 c 0
 245 630 216 656 169 656 c 0
 136 656 109 643 97 621 c 0
 90 608 88 595 88 567 c 1
 25 567 l 1
 27 661 76 709 169 709 c 0
 255 709 308 663 308 589 c 0xfe80
 308 550 288 521 251 504 c 1
 299 488 322 455 322 404 c 0
 322 323 261 270 167 270 c 0
 71 270 16 322 16 412 c 1
 78 412 l 1
 81 350 109 323 169 323 c 0
 225 323 259 353 259 404 c 0
 259 440 236 468 201 474 c 0
 186 476 170 476 135 476 c 1xfd80
653 709 m 1
 711 709 l 1
 259 -20 l 1xfd80
 201 -20 l 1
 653 709 l 1
720 100 m 1
 532 100 l 1
 532 159 l 1
 736 425 l 1
 782 425 l 1
 782 153 l 1
 849 153 l 1
 849 100 l 1
 782 100 l 1
 782 0 l 1
 720 0 l 1
 720 100 l 1
720 153 m 1
 720 323 l 1
 591 153 l 1
 720 153 l 1
EndSplineSet
Ligature: 0 1 'frac' three slash four
Ligature: 0 1 'frac' three fraction four
EndChar
StartChar: commaaccent
Encoding: 408 63171 302
Width: 333
Flags: W
HStem: -284 38<116 127.254 116 178>
VStem: 116 100<-161 -60>
Fore
116 -60 m 1
 216 -60 l 1
 216 -163 l 2
 216 -238 178 -285 116 -284 c 1
 116 -246 l 1
 154 -246 173 -215 171 -160 c 1
 116 -160 l 1
 116 -60 l 1
EndSplineSet
EndChar
StartChar: copyright
Encoding: 409 169 303
Width: 737
Flags: W
HStem: -22 62<354 388> 126 62<375 388> 530 62<362 388> 680 62<369 388>
VStem: -13 68<360 379> 181 69<345 379> 683 68<361 379>
Fore
544 437 m 1
 473 437 l 1
 456 503 428 530 375 530 c 0
 299 530 250 463 250 358 c 0
 250 307 263 263 286 234 c 0
 307 206 343 188 375 188 c 0
 431 188 468 231 481 312 c 1
 552 312 l 1
 540 252 530 224 511 196 c 0
 478 149 432 126 375 126 c 0
 260 126 181 221 181 357 c 0
 181 497 260 592 378 592 c 0
 467 592 520 543 544 437 c 1
369 742 m 0
 580 742 751 571 751 361 c 0
 751 147 580 -22 364 -22 c 0
 159 -22 -13 152 -13 360 c 0
 -13 571 158 742 369 742 c 0
369 680 m 0
 196 680 55 536 55 360 c 0
 55 186 196 40 365 40 c 0
 543 40 683 182 683 361 c 0
 683 536 542 680 369 680 c 0
EndSplineSet
EndChar
StartChar: registered
Encoding: 410 174 304
Width: 737
Flags: W
HStem: -22 62<354 388> 325 63<272 420> 522 63<202 420> 680 62<369 388>
VStem: -13 68<360 379> 202 70<140 325 140 522> 470 70<218.835 248 248 274.453> 476 73<441 461> 683 68<361 379>
Fore
272 325 m 1xfe80
 272 140 l 1
 202 140 l 1
 202 585 l 1
 408 585 l 2
 503 585 549 544 549 459 c 0xfd80
 549 413 536 390 495 360 c 1
 532 336 539 319 540 248 c 0
 541 190 545 178 563 165 c 1
 563 140 l 1
 484 140 l 1
 475 161 469 189 469 217 c 1
 470 257 l 1
 470 305 451 325 406 325 c 2
 272 325 l 1xfe80
272 388 m 1
 401 388 l 2
 453 388 476 409 476 455 c 0
 476 502 454 522 401 522 c 2
 272 522 l 1
 272 388 l 1
369 742 m 0
 580 742 751 571 751 361 c 0
 751 147 580 -22 364 -22 c 0
 159 -22 -13 152 -13 360 c 0
 -13 571 158 742 369 742 c 0
369 680 m 0
 196 680 55 536 55 360 c 0
 55 186 196 40 365 40 c 0
 543 40 683 182 683 361 c 0
 683 536 542 680 369 680 c 0
EndSplineSet
EndChar
StartChar: lozenge
Encoding: 411 9674 305
Width: 489
Flags: W
HStem: 0 21G<208 270> 724 20G<208 270>
DStem: 16 372 79 372 208 0 240 60 208 744 240 684 16 372 79 372 240 684 270 744 400 372 462 372 400 372 462 372 240 60 270 0
Fore
270 744 m 1
 462 372 l 1
 270 0 l 1
 208 0 l 1
 16 372 l 1
 208 744 l 1
 270 744 l 1
240 60 m 1
 400 372 l 1
 240 684 l 1
 79 372 l 1
 240 60 l 1
EndSplineSet
EndChar
StartChar: Delta
Encoding: 412 8710 306
Width: 711
Flags: W
HStem: 0 82<143 701> 709 20G<304 404>
DStem: 304 729 355 616 10 0 143 82 355 616 404 729 566 82 701 0
Fore
10 0 m 1
 304 729 l 1
 404 729 l 1
 701 0 l 1
 10 0 l 1
355 616 m 1
 143 82 l 1
 566 82 l 1
 355 616 l 1
EndSplineSet
EndChar
StartChar: notequal
Encoding: 413 8800 307
Width: 548
Flags: W
HStem: 111 70<32 157 263 516> 283 70<32 253 359 516>
DStem: 157 111 224 111 97 4 148 -25 253 283 320 283 196 181 263 181 368 486 418 458 292 353 359 353
Fore
157 111 m 1
 32 111 l 1
 32 181 l 1
 196 181 l 1
 253 283 l 1
 32 283 l 1
 32 353 l 1
 292 353 l 1
 368 486 l 1
 418 458 l 1
 359 353 l 1
 516 353 l 1
 516 283 l 1
 320 283 l 1
 263 181 l 1
 516 181 l 1
 516 111 l 1
 224 111 l 1
 148 -25 l 1
 97 4 l 1
 157 111 l 1
EndSplineSet
Ligature: 0 1 'liga' equal uni0338
EndChar
StartChar: radical
Encoding: 414 8730 308
Width: 542
Flags: W
DStem: 119 461 155 521 360 -36 348 125 155 521 119 461 7 448 25 415 476 913 512 908 348 125 360 -36
Fore
476 913 m 1
 512 908 l 1
 360 -36 l 1
 119 461 l 1
 25 415 l 1
 7 448 l 1
 155 521 l 1
 348 125 l 1
 476 913 l 1
EndSplineSet
EndChar
StartChar: lessequal
Encoding: 415 8804 309
Width: 584
Flags: W
HStem: -11 67<45 534>
DStem: 45 363 140 399 534 156 534 235 534 639 534 560 45 432 140 399
Fore
534 56 m 1
 534 -11 l 1
 45 -11 l 1
 45 56 l 1
 534 56 l 1
45 363 m 1
 45 432 l 1
 534 639 l 1
 534 560 l 1
 140 399 l 1
 534 235 l 1
 534 156 l 1
 45 363 l 1
EndSplineSet
EndChar
StartChar: greaterequal
Encoding: 416 8805 310
Width: 584
Flags: W
HStem: -11 67<45 534>
DStem: 45 560 45 639 439 396 534 432 439 396 534 363 45 235 45 156
Fore
534 56 m 1
 534 -11 l 1
 45 -11 l 1
 45 56 l 1
 534 56 l 1
534 432 m 1
 534 363 l 1
 45 156 l 1
 45 235 l 1
 439 396 l 1
 45 560 l 1
 45 639 l 1
 534 432 l 1
EndSplineSet
EndChar
StartChar: logicalnot
Encoding: 417 172 311
Width: 584
Flags: W
HStem: 305 70<40 474>
VStem: 474 70<86 375>
Fore
40 375 m 1
 544 375 l 1
 544 86 l 1
 474 86 l 1
 474 305 l 1
 40 305 l 1
 40 375 l 1
EndSplineSet
EndChar
StartChar: summation
Encoding: 418 8721 312
Width: 711
Flags: W
HStem: -88 105<171 571> 594 159<130 623> 707 46<130 482>
DStem: 17 760 192 707 362 309 461 353 362 309 461 353 17 -92 171 17
Fore
616 753 m 1xc0
 623 594 l 1
 601 594 l 1xc0
 576 686 548 707 453 707 c 2
 192 707 l 1xa0
 461 353 l 1
 171 17 l 1
 513 17 l 2
 575 17 597 22 617 39 c 0
 637 55 643 66 664 117 c 0
 665 120 667 124 670 130 c 1
 694 130 l 1
 672 48 663 2 651 -97 c 1
 630 -91 602 -88 571 -88 c 2
 92 -88 l 2
 51 -88 51 -88 17 -92 c 1
 362 309 l 1
 17 760 l 1
 58 755 89 753 130 753 c 2
 616 753 l 1xc0
EndSplineSet
EndChar
StartChar: partialdiff
Encoding: 419 8706 313
Width: 490
Flags: W
HStem: -15 32<192 212> 367 41<218 256> 703 47<192 216>
VStem: 22 87<155 179> 379 79<405 456>
Fore
102 670 m 1
 62 722 l 1
 102 740 149 750 194 750 c 0
 347 750 458 605 458 405 c 0
 458 302 429 171 392 103 c 0
 349 26 287 -15 212 -15 c 0
 105 -15 22 70 22 179 c 0
 22 244 50 311 96 358 c 0
 130 392 169 408 218 408 c 0
 271 408 300 396 368 343 c 1
 377 402 379 426 379 456 c 0
 379 529 358 604 324 651 c 0
 300 684 261 703 214 703 c 0
 178 703 169 700 110 674 c 2
 102 670 l 1
361 304 m 1
 336 345 298 367 256 367 c 0
 175 367 109 271 109 155 c 0
 109 68 142 17 198 17 c 0
 253 17 299 61 325 139 c 0
 340 183 348 216 361 304 c 1
EndSplineSet
EndChar
StartChar: brokenbar
Encoding: 420 166 314
Width: 260
Flags: W
HStem: 709 20G<100 160>
VStem: 100 60<-212 189 328 729>
Fore
100 729 m 1
 160 729 l 1
 160 328 l 1
 100 328 l 1
 100 729 l 1
100 189 m 1
 160 189 l 1
 160 -212 l 1
 100 -212 l 1
 100 189 l 1
EndSplineSet
EndChar
StartChar: mu
Encoding: 421 181 315
Width: 556
Flags: W
HStem: -23 70<487 526> 504 20G<65 148 398 481>
VStem: 65 83<-220 3 -220 524> 398 83<211 524>
Fore
544 49 m 1
 544 -14 l 1
 518 -21 505 -23 487 -23 c 0
 430 -23 403 3 401 60 c 1
 362 5 306 -23 238 -23 c 0
 202 -23 173 -15 148 3 c 1
 148 -220 l 1
 65 -220 l 1
 65 524 l 1
 148 524 l 1
 148 153 l 2
 148 90 190 50 255 50 c 0
 342 50 398 120 398 227 c 2
 398 524 l 1
 481 524 l 1
 481 88 l 2
 481 61 497 47 526 47 c 0
 530 47 534 47 544 49 c 1
EndSplineSet
EndChar
StartChar: afii10017
Encoding: 422 1040 316
Width: 667
Flags: W
HStem: 0 21G<17 116 549 653> 219 78<216 474> 709 20G<277 397>
DStem: 277 729 336 629 17 0 216 297 277 729 193 219 17 0 116 0 474 219 397 729 549 0 653 0
Fore
474 219 m 5
 193 219 l 5
 116 0 l 5
 17 0 l 5
 277 729 l 5
 397 729 l 5
 653 0 l 5
 549 0 l 5
 474 219 l 5
448 297 m 5
 336 629 l 5
 216 297 l 5
 448 297 l 5
EndSplineSet
EndChar
StartChar: afii10018
Encoding: 423 1041 317
Width: 667
Flags: W
HStem: 0 82<172 416> 353 82<172 416> 647 82<79 568>
VStem: 79 93<0 353 0 647> 530 93<207 225>
Fore
623 218 m 0
 623 161 603 99 567 61 c 0
 528 19 477 0 408 0 c 2
 79 0 l 1
 79 729 l 1
 568 729 l 1
 568 647 l 1
 172 647 l 1
 172 435 l 1
 408 435 l 2
 498 435 623 396 623 218 c 0
172 82 m 1
 399 82 l 2
 444 82 474 93 496 117 c 0
 518 140 530 182 530 217 c 0
 530 253 518 295 496 318 c 0
 474 342 444 353 399 353 c 2
 172 353 l 1
 172 82 l 1
EndSplineSet
EndChar
StartChar: afii10019
Encoding: 424 1042 318
Width: 667
Flags: W
HStem: 0 82<172 416> 333 82<172 399> 647 82<79 377>
VStem: 79 93<0 333 0 647> 498 93<527 546> 530 93<191 225>
Fore
79 0 m 1xf4
 79 729 l 1
 375 729 l 2
 445 729 495 713 533 678 c 0
 571 644 591 597 591 544 c 0xf8
 591 470 556 416 490 385 c 1
 583 349 623 296 623 208 c 0
 623 151 603 99 567 61 c 0
 528 19 477 0 408 0 c 2
 79 0 l 1xf4
172 415 m 1
 352 415 l 2
 404 415 433 422 458 441 c 0
 484 461 498 492 498 531 c 0
 498 571 484 601 458 621 c 0
 433 640 404 647 352 647 c 2
 172 647 l 1
 172 415 l 1
172 82 m 1
 399 82 l 2
 444 82 474 93 496 117 c 0
 518 140 530 172 530 207 c 0xf4
 530 243 518 275 496 298 c 0
 474 322 444 333 399 333 c 2
 172 333 l 1
 172 82 l 1
EndSplineSet
EndChar
StartChar: afii10020
Encoding: 425 1043 319
Width: 611
Flags: W
HStem: 0 21G<79 172> 647 82<79 568>
VStem: 79 93<0 647>
Fore
172 0 m 5
 79 0 l 5
 79 729 l 5
 568 729 l 5
 568 647 l 5
 172 647 l 5
 172 0 l 5
EndSplineSet
EndChar
StartChar: afii10021
Encoding: 426 1044 320
Width: 812
Flags: W
HStem: 0 74<34 698> 0 82<262 698> 647 82<237 593>
VStem: 34 80<-135 0> 237 94<404 647> 593 94<82 729> 698 80<-135 74>
Fore
262 82 m 1x7e
 593 82 l 1
 593 647 l 1
 331 647 l 1
 331 404 l 2
 331 282 312 160 262 82 c 1x7e
126 74 m 1xbe
 205 110 237 240 237 404 c 2
 237 404 237 616 237 729 c 1
 687 729 l 1
 687 74 l 1
 778 74 l 1
 778 -135 l 1
 698 -135 l 1
 698 0 l 1
 114 0 l 1
 114 -135 l 1
 34 -135 l 1
 34 74 l 1
 126 74 l 1xbe
EndSplineSet
EndChar
StartChar: afii10022
Encoding: 427 1045 321
Width: 667
Flags: W
HStem: 0 82<172 602> 332 82<172 569> 647 82<79 584>
VStem: 79 93<0 332 0 647>
Fore
172 332 m 5
 172 82 l 5
 602 82 l 5
 602 0 l 5
 79 0 l 5
 79 729 l 5
 584 729 l 5
 584 647 l 5
 172 647 l 5
 172 414 l 5
 569 414 l 5
 569 332 l 5
 172 332 l 5
EndSplineSet
EndChar
StartChar: afii10023
Encoding: 428 1025 322
Width: 667
Flags: W
HStem: 0 82<172 602> 332 82<172 569> 647 82<79 584> 811 103<199 303 361 465>
VStem: 79 93<0 332 0 647>
Fore
172 332 m 5
 172 82 l 5
 602 82 l 5
 602 0 l 5
 79 0 l 5
 79 729 l 5
 584 729 l 5
 584 647 l 5
 172 647 l 5
 172 414 l 5
 569 414 l 5
 569 332 l 5
 172 332 l 5
303 914 m 5
 303 811 l 5
 199 811 l 5
 199 914 l 5
 303 914 l 5
465 914 m 5
 465 811 l 5
 361 811 l 5
 361 914 l 5
 465 914 l 5
EndSplineSet
Ligature: 0 1 'liga' afii10022 uni0308
LCarets: 0 65535 '    ' 1 0 
EndChar
StartChar: afii10024
Encoding: 429 1046 323
Width: 1023
Flags: W
HStem: 0 21G<63 173 459 552 830 948> 709 20G<105 221 459 552 790 906>
VStem: 459 93<0 324 421 729>
DStem: 105 729 221 729 388 375 459 421 388 375 459 324 63 0 173 0 552 324 623 375 830 0 948 0 790 729 906 729 552 421 623 375
Fore
459 324 m 1
 173 0 l 1
 63 0 l 1
 388 375 l 1
 105 729 l 1
 221 729 l 1
 459 421 l 1
 459 729 l 1
 552 729 l 1
 552 421 l 1
 790 729 l 1
 906 729 l 1
 623 375 l 1
 948 0 l 1
 830 0 l 1
 552 324 l 1
 552 0 l 1
 459 0 l 1
 459 324 l 1
EndSplineSet
EndChar
StartChar: afii10025
Encoding: 430 1047 324
Width: 667
Flags: W
HStem: -23 82<319 369> 321 82<257 365> 663 78<319 353>
VStem: 70 88<515 533.073> 503 93<526 542> 528 93<184 202>
Fore
257 321 m 5xf4
 257 403 l 5
 345 403 l 6
 434 403 503 474 503 540 c 4
 503 614 438 663 340 663 c 4
 224 663 159 610 158 515 c 5
 70 515 l 5
 71 658 169 741 337 741 c 4
 497 741 596 659 596 527 c 4xf8
 596 452 559 403 491 374 c 5
 574 343 621 282 621 200 c 4
 621 137 590 72 541 33 c 4
 494 -3 423 -23 336 -23 c 4
 225 -23 141 13 91 81 c 4
 62 121 49 165 48 232 c 5
 136 232 l 5
 135 187 147 152 174 120 c 4
 209 78 263 59 342 59 c 4
 401 59 447 70 476 90 c 4
 507 112 528 152 528 191 c 4
 528 270 460 321 365 321 c 6
 257 321 l 5xf4
EndSplineSet
EndChar
StartChar: afii10026
Encoding: 431 1048 325
Width: 728
Flags: W
HStem: 0 21G<79 184 561 649> 709 20G<79 167 548 649>
VStem: 79 88<0 729> 561 88<0 729>
DStem: 548 729 561 598 167 126 184 0
Fore
79 729 m 5
 167 729 l 5
 167 126 l 5
 548 729 l 5
 649 729 l 5
 649 0 l 5
 561 0 l 5
 561 598 l 5
 184 0 l 5
 79 0 l 5
 79 729 l 5
EndSplineSet
EndChar
StartChar: afii10027
Encoding: 432 1049 326
Width: 728
Flags: W
HStem: 0 21G<79 184 561 649> 709 20G<79 167 548 649> 789 69<350 368>
VStem: 79 88<0 729> 561 88<0 729>
DStem: 548 729 561 598 167 126 184 0
Fore
213 924 m 5
 272 924 l 5
 277 880 307 858 364 858 c 4
 418 858 451 882 455 924 c 5
 514 924 l 5
 507 835 455 789 362 789 c 4
 306 789 261 809 234 846 c 4
 220 866 214 885 213 924 c 5
79 729 m 5
 167 729 l 5
 167 126 l 5
 548 729 l 5
 649 729 l 5
 649 0 l 5
 561 0 l 5
 561 598 l 5
 184 0 l 5
 79 0 l 5
 79 729 l 5
EndSplineSet
LCarets: 0 65535 '    ' 1 0 
Ligature: 0 1 'liga' afii10026 uni0306
EndChar
StartChar: afii10028
Encoding: 433 1050 327
Width: 667
Flags: W
HStem: 0 21G<79 172 497 621> 709 20G<79 172 477 588>
VStem: 79 93<0 333 0 729>
DStem: 172 333 243 384 497 0 621 0 477 729 588 729 172 423 243 384
Fore
172 0 m 1
 79 0 l 1
 79 729 l 1
 172 729 l 1
 172 423 l 1
 477 729 l 1
 588 729 l 1
 243 384 l 1
 621 0 l 1
 497 0 l 1
 172 333 l 1
 172 0 l 1
EndSplineSet
EndChar
StartChar: afii10029
Encoding: 434 1051 328
Width: 673
Flags: W
HStem: -10 94<33 44.1703> 647 82<144 500>
VStem: 144 94<404 647> 500 94<0 729>
Fore
500 647 m 1
 238 647 l 1
 238 404 l 2
 238 198 191 -10 33 -10 c 1
 33 84 l 1
 113 84 144 232 144 404 c 2
 144 729 l 1
 594 729 l 1
 594 0 l 1
 500 0 l 1
 500 647 l 1
EndSplineSet
EndChar
StartChar: afii10030
Encoding: 435 1052 329
Width: 844
Flags: W
HStem: 0 21G<79 167 374 472 677 765> 709 20G<79 208 636 765>
VStem: 79 88<0 611> 677 88<0 729>
DStem: 167 611 208 729 374 0 424 94 636 729 677 611 424 94 472 0
Fore
472 0 m 1
 374 0 l 1
 167 611 l 1
 167 0 l 1
 79 0 l 1
 79 729 l 1
 208 729 l 1
 424 94 l 1
 636 729 l 1
 765 729 l 1
 765 0 l 1
 677 0 l 1
 677 611 l 1
 472 0 l 1
EndSplineSet
EndChar
StartChar: afii10031
Encoding: 436 1053 330
Width: 719
Flags: W
HStem: 332 82<172 546> 709 20G<79 172 546 640>
VStem: 79 94<0 332 0 729> 546 94<0 729>
Fore
546 332 m 1
 173 332 l 1
 173 0 l 1
 79 0 l 1
 79 729 l 1
 172 729 l 1
 172 414 l 1
 546 414 l 1
 546 729 l 1
 640 729 l 1
 640 0 l 1
 546 0 l 1
 546 332 l 1
EndSplineSet
EndChar
StartChar: afii10032
Encoding: 437 1054 331
Width: 778
Flags: W
HStem: -23 82<390 407> 659 82<389 407>
VStem: 38 93<359 378> 649 93<328 378>
Fore
389 741 m 4
 603 741 742 588 742 353 c 4
 742 234 695 121 616 54 c 4
 557 4 478 -23 390 -23 c 4
 180 -23 38 131 38 359 c 4
 38 587 180 741 389 741 c 4
389 659 m 4
 235 659 131 539 131 359 c 4
 131 179 235 59 390 59 c 4
 544 59 649 179 649 355 c 4
 649 539 547 659 389 659 c 4
EndSplineSet
EndChar
StartChar: afii10033
Encoding: 438 1055 332
Width: 719
Flags: W
HStem: 0 21G<79 173 546 640> 647 82<79 546>
VStem: 79 94<0 647> 546 94<0 729>
Fore
546 647 m 1
 173 647 l 1
 173 0 l 1
 79 0 l 1
 79 729 l 1
 640 729 l 1
 640 0 l 1
 546 0 l 1
 546 647 l 1
EndSplineSet
EndChar
StartChar: afii10034
Encoding: 439 1056 333
Width: 667
Flags: W
HStem: 0 21G<79 172> 309 82<172 401> 647 82<79 384>
VStem: 79 93<0 309 0 647> 508 97<511 529>
Fore
172 309 m 1
 172 0 l 1
 79 0 l 1
 79 729 l 1
 380 729 l 2
 524 729 605 652 605 515 c 0
 605 448 586 401 542 361 c 0
 503 326 458 309 401 309 c 2
 172 309 l 1
172 391 m 1
 366 391 l 2
 455 391 508 439 508 519 c 0
 508 599 455 647 366 647 c 2
 172 647 l 1
 172 391 l 1
EndSplineSet
EndChar
StartChar: afii10035
Encoding: 440 1057 334
Width: 722
Flags: W
HStem: -23 82<367 401> 659 82<351 385>
VStem: 48 93<328 378>
Fore
662 503 m 5
 567 503 l 5
 556 557 541 588 514 613 c 4
 484 641 429 659 370 659 c 4
 229 659 141 544 141 357 c 4
 141 175 233 59 378 59 c 4
 456 59 518 93 548 153 c 4
 563 182 573 216 581 266 c 5
 677 266 l 5
 655 73 555 -23 377 -23 c 4
 282 -23 210 4 154 62 c 4
 85 133 48 236 48 356 c 4
 48 474 84 578 150 650 c 4
 204 710 283 741 381 741 c 4
 541 741 633 663 662 503 c 5
EndSplineSet
EndChar
StartChar: afii10036
Encoding: 441 1058 335
Width: 611
Flags: W
HStem: 0 21G<261 354> 647 82<21 261 21 593>
VStem: 261 93<0 647>
Fore
354 647 m 1
 354 0 l 1
 261 0 l 1
 261 647 l 1
 21 647 l 1
 21 729 l 1
 593 729 l 1
 593 647 l 1
 354 647 l 1
EndSplineSet
EndChar
StartChar: afii10037
Encoding: 442 1059 336
Width: 650
Flags: W
HStem: 0 21G<139 252> 709 20G<26 139 508 619>
DStem: 26 729 139 729 265 247 318 359 265 247 619 729 139 0 252 0 508 729 619 729 318 359 252 0
Fore
252 0 m 1
 139 0 l 1
 265 247 l 1
 26 729 l 1
 139 729 l 1
 318 359 l 5
 508 729 l 1
 619 729 l 1
 252 0 l 1
EndSplineSet
EndChar
StartChar: afii10038
Encoding: 443 1060 337
Width: 936
Flags: W
HStem: 0 21G<399 494> 94 82<399 399 494 521.238> 554 82<399 399 494 521.238> 709 20G<399 494>
VStem: 64 100<365 385> 399 95<0 94 176 554 635 729> 729 100<365 385>
CounterMasks: 1 00
Fore
494 636 m 5
 583 636 829 628 829 365 c 4
 829 102 605 94 494 94 c 5
 494 0 l 5
 399 0 l 5
 399 94 l 5
 288 94 64 102 64 365 c 4
 64 628 310 636 399 636 c 5
 399 729 l 5
 494 729 l 5
 494 636 l 5
494 176 m 5
 551 176 729 190 729 365 c 4
 729 540 551 554 494 554 c 5
 494 176 l 5
399 176 m 5
 399 554 l 5
 342 554 164 540 164 365 c 4
 164 190 342 176 399 176 c 5
EndSplineSet
EndChar
StartChar: afii10039
Encoding: 444 1061 338
Width: 667
Flags: W
HStem: 0 21G<22 135 534 641> 709 20G<38 151 526 630>
DStem: 38 729 151 729 280 374 333 450 280 374 331 298 22 0 135 0 331 298 385 374 534 0 641 0 526 729 630 729 333 450 385 374
Fore
385 374 m 1
 641 0 l 5
 534 0 l 1
 331 298 l 1
 135 0 l 1
 22 0 l 1
 280 374 l 1
 38 729 l 1
 151 729 l 1
 333 450 l 1
 526 729 l 1
 630 729 l 1
 385 374 l 1
EndSplineSet
EndChar
StartChar: afii10040
Encoding: 445 1062 339
Width: 741
Flags: W
HStem: 0 82<172 627> 709 20G<79 173 546 640>
VStem: 79 94<0 729> 546 94<82 729> 627 80<-135 74>
Fore
546 82 m 1xf0
 546 729 l 1
 640 729 l 1
 640 74 l 5xf0
 707 74 l 5
 707 -135 l 5
 627 -135 l 5
 627 0 l 5xe8
 79 0 l 1
 79 729 l 1
 173 729 l 1
 173 82 l 1
 546 82 l 1xf0
EndSplineSet
EndChar
StartChar: afii10041
Encoding: 446 1063 340
Width: 648
Flags: W
HStem: 0 21G<476 569> 260 82<254 476> 709 20G<79 172 476 569>
VStem: 79 93<431 729> 476 93<0 729>
Fore
476 260 m 5
 264 260 l 6
 138 260 79 336 79 452 c 6
 79 729 l 5
 172 729 l 5
 172 434 l 6
 172 372 213 342 268 342 c 6
 476 342 l 5
 476 729 l 5
 569 729 l 5
 569 0 l 5
 476 0 l 5
 476 260 l 5
EndSplineSet
EndChar
StartChar: afii10042
Encoding: 447 1064 341
Width: 828
Flags: W
HStem: 0 82<172 749> 709 20G<79 173 367 461 655 749>
VStem: 79 94<0 729> 367 94<82 729> 655 94<82 729>
CounterMasks: 1 00
Fore
461 82 m 1
 655 82 l 1
 655 729 l 1
 749 729 l 1
 749 0 l 1
 79 0 l 1
 79 729 l 1
 173 729 l 1
 173 82 l 1
 367 82 l 1
 367 729 l 1
 461 729 l 1
 461 82 l 1
EndSplineSet
EndChar
StartChar: afii10043
Encoding: 448 1065 342
Width: 850
Flags: W
HStem: 0 82<172 736> 709 20G<79 173 367 461 655 749>
VStem: 79 94<0 729> 367 94<82 729> 655 94<82 729> 736 80<-135 74>
Fore
736 0 m 1xf4
 79 0 l 1
 79 729 l 1
 173 729 l 1
 173 82 l 1
 367 82 l 1
 367 729 l 1
 461 729 l 1
 461 82 l 1
 655 82 l 1
 655 729 l 1
 749 729 l 1
 749 74 l 1xf8
 816 74 l 1
 816 -135 l 1
 736 -135 l 1
 736 0 l 1xf4
EndSplineSet
EndChar
StartChar: afii10044
Encoding: 449 1066 343
Width: 897
Flags: W
HStem: 0 82<405 628> 369 82<405 628> 647 82<81 312>
VStem: 312 93<0 369 0 729> 763 93<207 241>
Fore
312 0 m 1
 312 647 l 1
 81 647 l 1
 81 729 l 1
 405 729 l 1
 405 451 l 1
 626 451 l 6
 758 451 856 354 856 226 c 0
 856 93 758 0 626 0 c 2
 312 0 l 1
405 82 m 1
 617 82 l 2
 703 82 763 144 763 225 c 0
 763 310 704 369 617 369 c 2
 405 369 l 1
 405 82 l 1
EndSplineSet
EndChar
StartChar: afii10045
Encoding: 450 1067 344
Width: 872
Flags: W
HStem: 0 82<172 400> 369 82<172 400> 709 20G<79 172 699 793>
VStem: 79 93<0 369 0 729> 530 93<207 241> 699 94<0 729>
Fore
623 226 m 0
 623 93 525 0 393 0 c 2
 79 0 l 1
 79 729 l 1
 172 729 l 1
 172 451 l 1
 393 451 l 2
 525 451 623 354 623 226 c 0
172 82 m 1
 384 82 l 2
 470 82 530 144 530 225 c 0
 530 310 471 369 384 369 c 2
 172 369 l 1
 172 82 l 1
793 729 m 1
 793 0 l 1
 699 0 l 1
 699 729 l 1
 793 729 l 1
EndSplineSet
EndChar
StartChar: afii10046
Encoding: 451 1068 345
Width: 667
Flags: W
HStem: 0 82<172 400> 369 82<172 400> 709 20G<79 172>
VStem: 79 93<0 369 0 729> 530 93<207 241>
Fore
623 226 m 0
 623 93 525 0 393 0 c 2
 79 0 l 1
 79 729 l 1
 172 729 l 1
 172 451 l 1
 393 451 l 6
 525 451 623 354 623 226 c 0
172 82 m 1
 384 82 l 2
 470 82 530 144 530 225 c 0
 530 310 471 369 384 369 c 2
 172 369 l 1
 172 82 l 1
EndSplineSet
EndChar
StartChar: afii10047
Encoding: 452 1069 346
Width: 722
Flags: W
HStem: -23 82<335 369> 332 82<217 584> 659 82<335 369>
Fore
584 332 m 5
 217 332 l 5
 217 414 l 5
 581 414 l 5
 565 567 481 659 355 659 c 0
 296 659 241 641 211 613 c 0
 184 588 169 557 158 503 c 1
 63 503 l 1
 92 663 184 741 344 741 c 0
 442 741 521 710 575 650 c 0
 641 578 677 474 677 356 c 0
 677 236 640 133 571 62 c 0
 515 4 443 -23 348 -23 c 0
 170 -23 70 73 48 266 c 1
 144 266 l 1
 152 216 162 182 177 153 c 0
 207 93 269 59 347 59 c 0
 485 59 575 164 584 332 c 5
EndSplineSet
EndChar
StartChar: afii10048
Encoding: 453 1070 347
Width: 1032
Flags: W
HStem: -23 82<610 644> 332 82<176 295> 659 82<625 644>
VStem: 83 94<0 332 0 729> 83 304<0 378> 865 93<328 378>
Fore
295 332 m 5xf4
 177 332 l 5
 177 0 l 5
 83 0 l 5
 83 729 l 5
 176 729 l 5
 176 414 l 5
 297 414 l 5
 318 611 433 741 625 741 c 4
 839 741 958 588 958 353 c 4
 958 234 911 121 832 54 c 4
 773 4 717 -23 629 -23 c 4
 427 -23 305 119 295 332 c 5xf4
625 659 m 4
 471 659 387 539 387 359 c 4xec
 387 179 471 59 626 59 c 4
 780 59 865 179 865 355 c 4
 865 539 783 659 625 659 c 4
EndSplineSet
EndChar
StartChar: afii10049
Encoding: 454 1071 348
Width: 702
Flags: W
HStem: 0 21G<32 142 530 623> 314 82<287 305 303 530> 647 82<287 529>
VStem: 79 93<521 529> 530 93<0 729>
DStem: 305 314 419 314 32 0 142 0
Fore
419 314 m 1
 142 0 l 1
 32 0 l 1
 305 314 l 1
 164 314 79 412 79 521 c 0
 79 578 99 630 135 668 c 0
 174 710 225 729 294 729 c 2
 623 729 l 1
 623 0 l 1
 530 0 l 1
 530 314 l 1
 419 314 l 1
530 647 m 1
 303 647 l 2
 258 647 228 636 206 612 c 0
 184 589 172 556 172 521 c 0
 172 485 184 454 206 431 c 0
 228 407 258 396 303 396 c 2
 530 396 l 1
 530 647 l 1
EndSplineSet
EndChar
StartChar: afii10065
Encoding: 455 1072 349
Width: 556
Flags: W
HStem: -23 70<478 517> 462 77<249 283>
VStem: 42 87<120 138> 389 83<152 396>
Fore
535 49 m 1
 535 -14 l 1
 508 -21 495 -23 478 -23 c 0
 424 -23 398 1 392 54 c 1
 333 0 280 -23 214 -23 c 0
 108 -23 42 37 42 132 c 0
 42 200 73 247 134 272 c 0
 166 285 184 289 302 304 c 0
 368 312 389 327 389 362 c 2
 389 384 l 2
 389 434 347 462 272 462 c 0
 194 462 156 433 149 369 c 1
 65 369 l 1
 67 421 77 451 101 478 c 0
 136 517 199 539 275 539 c 0
 404 539 472 489 472 396 c 2
 472 88 l 2
 472 62 488 47 517 47 c 0
 522 47 526 47 535 49 c 1
389 165 m 2
 389 259 l 1
 361 246 343 242 255 230 c 0
 166 217 129 189 129 134 c 0
 129 81 167 50 232 50 c 0
 281 50 322 66 356 97 c 0
 381 120 389 137 389 165 c 2
EndSplineSet
EndChar
StartChar: afii10066
Encoding: 456 1073 350
Width: 556
Flags: W
HStem: -23 77<273 277> 462 77<259 277>
VStem: 36 87<258 282> 396 74<765.897 774.937> 423 87<232 282>
Fore
117 469 m 1xf0
 155 530 230 539 272 539 c 0
 423 539 510 435 510 254 c 0xe8
 510 82 420 -23 273 -23 c 0
 124 -23 36 82 36 258 c 0
 36 442 68 658 207 690 c 2
 340 716 l 2
 369 723 396 748 396 775 c 1
 470 775 l 1
 470 715 469 666 359 640 c 2
 224 611 l 2
 171 598 129 541 117 469 c 1xf0
273 462 m 0
 180 462 123 384 123 258 c 0
 123 131 180 54 273 54 c 0
 365 54 423 132 423 255 c 0
 423 385 367 462 273 462 c 0
EndSplineSet
EndChar
StartChar: afii10067
Encoding: 457 1074 351
Width: 522
Flags: W
HStem: 0 76<154 313> 231 76<154 286> 449 75<70 263>
VStem: 70 84<0 231 0 449> 357 84<374 392> 377 91<143 161>
Fore
70 0 m 5xf4
 70 524 l 5
 289 524 l 6
 340 524 374 513 401 488 c 4
 428 463 441 430 441 392 c 4xf8
 441 338 419 300 372 277 c 5
 439 251 468 213 468 150 c 4
 468 109 453 72 427 44 c 4
 399 14 363 0 313 0 c 6
 70 0 l 5xf4
154 307 m 5
 252 307 l 6
 289 307 310 312 328 325 c 4
 347 340 357 348 357 376 c 4
 357 405 347 415 328 430 c 4
 310 444 289 449 252 449 c 6
 154 449 l 5
 154 307 l 5
154 76 m 5
 286 76 l 6
 318 76 339 84 355 102 c 4
 371 118 377 130 377 155 c 4xf4
 377 181 378 196 355 211 c 4
 335 224 318 231 286 231 c 6
 154 231 l 5
 154 76 l 5
EndSplineSet
EndChar
StartChar: afii10068
Encoding: 458 1075 352
Width: 430
Flags: W
HStem: 0 21G<70 154> 448 76<70 380>
VStem: 70 84<0 448>
Fore
70 524 m 1
 380 524 l 1
 380 448 l 1
 154 448 l 1
 154 0 l 1
 70 0 l 1
 70 524 l 1
EndSplineSet
EndChar
StartChar: afii10069
Encoding: 459 1076 353
Width: 602
Flags: W
HStem: 0 76<203 502> 448 76<169 424>
VStem: 30 70<-120 0> 169 83<321 448> 424 84<76 524> 502 70<-120 64>
Fore
87 64 m 1xf4
 136 69 169 199 169 321 c 2
 169 524 l 1
 508 524 l 1
 508 64 l 1xf8
 572 64 l 1
 572 -120 l 1
 502 -120 l 1
 502 0 l 1
 100 0 l 1
 100 -120 l 1
 30 -120 l 1
 30 64 l 1
 87 64 l 1xf4
203 76 m 1
 424 76 l 1
 424 448 l 1
 252 448 l 1
 252 321 l 2
 252 237 238 140 203 76 c 1
EndSplineSet
EndChar
StartChar: afii10070
Encoding: 460 1077 354
Width: 556
Flags: W
HStem: -23 77<263 297> 234 68<129 513> 462 77<263 297>
VStem: 40 87<232 255> 424 89<234 308>
Fore
513 234 m 1
 127 234 l 1
 128 182 135 152 155 122 c 0
 183 78 228 54 281 54 c 0
 348 54 395 90 418 159 c 1
 502 159 l 1
 481 45 398 -23 278 -23 c 0
 131 -23 40 83 40 255 c 0
 40 427 134 539 280 539 c 0
 378 539 458 487 492 401 c 0
 507 362 513 314 513 234 c 1
129 302 m 1
 423 302 l 1
 424 304 424 306 424 308 c 0
 424 394 361 462 279 462 c 0
 195 462 136 399 129 302 c 1
EndSplineSet
EndChar
StartChar: afii10071
Encoding: 461 1105 355
Width: 556
Flags: W
HStem: -23 77<263 297> 234 68<129 513> 462 77<263 297> 613 103<153 257 315 419>
VStem: 40 87<232 255> 424 89<234 308>
Fore
257 716 m 1
 257 613 l 1
 153 613 l 1
 153 716 l 1
 257 716 l 1
419 716 m 1
 419 613 l 1
 315 613 l 1
 315 716 l 1
 419 716 l 1
513 234 m 1
 127 234 l 1
 128 182 135 152 155 122 c 0
 183 78 228 54 281 54 c 0
 348 54 395 90 418 159 c 1
 502 159 l 1
 481 45 398 -23 278 -23 c 0
 131 -23 40 83 40 255 c 0
 40 427 134 539 280 539 c 0
 378 539 458 487 492 401 c 0
 507 362 513 314 513 234 c 1
129 302 m 1
 423 302 l 1
 424 304 424 306 424 308 c 0
 424 394 361 462 279 462 c 0
 195 462 136 399 129 302 c 1
EndSplineSet
LCarets: 0 65535 '    ' 1 0 
Ligature: 0 1 'liga' afii10070 uni0308
EndChar
StartChar: afii10072
Encoding: 462 1078 356
Width: 837
Flags: W
HStem: 0 21G<44 150 375 458 683 789> 504 20G<76 183 375 458 650 757>
VStem: 375 83<0 226 323 524>
DStem: 76 524 183 524 318 274 375 323 318 274 375 226 44 0 150 0 458 226 515 274 683 0 789 0 650 524 757 524 458 323 515 274
Fore
458 524 m 1
 458 323 l 1
 650 524 l 1
 757 524 l 1
 515 274 l 1
 789 0 l 1
 683 0 l 1
 458 226 l 1
 458 0 l 1
 375 0 l 1
 375 226 l 1
 150 0 l 1
 44 0 l 1
 318 274 l 1
 76 524 l 1
 183 524 l 1
 375 323 l 1
 375 524 l 1
 458 524 l 1
EndSplineSet
EndChar
StartChar: afii10073
Encoding: 463 1079 357
Width: 500
Flags: W
HStem: -23 77<235 259> 221 76<192 281> 462 77<225 259>
VStem: 351 87<376 394> 368 91<134 145>
Fore
192 221 m 5xe8
 192 297 l 5
 254 297 l 6
 324 297 351 346 351 383 c 4
 351 431 308 462 240 462 c 4
 178 462 137 433 135 378 c 5
 47 378 l 5
 48 481 122 539 237 539 c 4
 359 539 438 476 438 379 c 4xf0
 438 326 419 293 373 267 c 5
 432 241 459 203 459 143 c 4
 459 42 375 -23 243 -23 c 4
 106 -23 38 35 34 156 c 5
 122 156 l 5
 127 119 133 104 146 89 c 4
 167 67 205 54 250 54 c 4
 323 54 368 87 368 136 c 4
 368 174 341 221 281 221 c 6
 192 221 l 5xe8
EndSplineSet
EndChar
StartChar: afii10074
Encoding: 464 1080 358
Width: 567
Flags: W
HStem: 0 21G<70 179 414 497> 504 20G<70 154 389 497>
VStem: 70 84<0 524> 414 83<0 524>
DStem: 389 524 414 413 154 111 179 0
Fore
70 524 m 1
 154 524 l 1
 154 111 l 1
 389 524 l 1
 497 524 l 1
 497 0 l 1
 414 0 l 1
 414 413 l 1
 179 0 l 1
 70 0 l 1
 70 524 l 1
EndSplineSet
EndChar
StartChar: afii10075
Encoding: 465 1081 359
Width: 567
Flags: W
HStem: 0 21G<70 179 414 497> 504 20G<70 154 389 497> 564 69<277 295> 679 20G<133 192 375 434>
VStem: 70 84<0 524> 414 83<0 524>
DStem: 389 524 414 413 154 111 179 0
Fore
70 524 m 1
 154 524 l 1
 154 111 l 1
 389 524 l 1
 497 524 l 1
 497 0 l 1
 414 0 l 1
 414 413 l 1
 179 0 l 1
 70 0 l 1
 70 524 l 1
133 699 m 1
 192 699 l 1
 197 655 227 633 284 633 c 0
 338 633 371 657 375 699 c 1
 434 699 l 1
 427 610 375 564 282 564 c 0
 226 564 181 584 154 621 c 0
 140 641 134 660 133 699 c 1
EndSplineSet
LCarets: 0 65535 '    ' 1 0 
Ligature: 0 1 'liga' afii10074 uni0306
EndChar
StartChar: afii10076
Encoding: 466 1082 360
Width: 510
Flags: W
HStem: 0 21G<70 153 378 484> 504 20G<70 153 365 461>
VStem: 70 83<0 226 0 524>
DStem: 153 226 210 274 378 0 484 0 365 524 461 524 153 312 210 274
Fore
153 524 m 1
 153 312 l 1
 365 524 l 1
 461 524 l 1
 210 274 l 1
 484 0 l 1
 378 0 l 1
 153 226 l 1
 153 0 l 1
 70 0 l 1
 70 524 l 1
 153 524 l 1
EndSplineSet
EndChar
StartChar: afii10077
Encoding: 467 1083 361
Width: 557
Flags: W
HStem: 0 21G<403 487> 448 76<148 403>
VStem: 148 83<321 448> 403 84<0 524>
Fore
148 524 m 1
 487 524 l 1
 487 0 l 1
 403 0 l 1
 403 448 l 1
 231 448 l 1
 231 321 l 2
 231 167 197 -10 70 -10 c 1
 70 70 l 1
 120 70 148 178 148 321 c 2
 148 524 l 1
EndSplineSet
EndChar
StartChar: afii10078
Encoding: 468 1084 362
Width: 618
Flags: W
HStem: 0 21G<70 154 464 548> 504 20G<70 174 444 548>
VStem: 70 84<0 363> 464 84<0 524>
DStem: 154 363 174 524 284 40 309 198 444 524 464 363 309 198 334 40
Fore
70 524 m 1
 174 524 l 1
 309 198 l 1
 444 524 l 1
 548 524 l 1
 548 0 l 1
 464 0 l 1
 464 363 l 1
 334 40 l 1
 284 40 l 1
 154 363 l 1
 154 0 l 1
 70 0 l 1
 70 524 l 1
EndSplineSet
EndChar
StartChar: afii10079
Encoding: 469 1085 363
Width: 558
Flags: W
HStem: 233 76<154 404> 504 20G<70 154 404 488>
VStem: 70 84<0 233 0 524> 404 84<0 524>
Fore
70 524 m 1
 154 524 l 1
 154 309 l 1
 404 309 l 1
 404 524 l 1
 488 524 l 1
 488 0 l 1
 404 0 l 1
 404 233 l 1
 154 233 l 1
 154 0 l 1
 70 0 l 1
 70 524 l 1
EndSplineSet
EndChar
StartChar: afii10080
Encoding: 470 1086 364
Width: 556
Flags: W
HStem: -23 77<273 277> 462 77<259 277>
VStem: 36 87<258 282> 423 87<232 282>
Fore
272 539 m 0
 423 539 510 435 510 254 c 0
 510 82 420 -23 273 -23 c 0
 124 -23 36 82 36 258 c 0
 36 434 125 539 272 539 c 0
273 462 m 0
 180 462 123 384 123 258 c 0
 123 131 180 54 273 54 c 0
 365 54 423 132 423 255 c 0
 423 385 367 462 273 462 c 0
EndSplineSet
EndChar
StartChar: afii10081
Encoding: 471 1087 365
Width: 557
Flags: W
HStem: 0 21G<70 154 403 487> 448 76<70 403>
VStem: 70 84<0 448> 403 84<0 524>
Fore
70 524 m 1
 487 524 l 1
 487 0 l 1
 403 0 l 1
 403 448 l 1
 154 448 l 1
 154 0 l 1
 70 0 l 1
 70 524 l 1
EndSplineSet
EndChar
